<svg width="100%" height="auto" viewBox="0 0 285 330" version="1.1" xmlns="http://www.w3.org/2000/svg" xmlns:xlink="http://www.w3.org/1999/xlink">
    <g id="Page-1" stroke="none" stroke-width="1" fill="none" fill-rule="evenodd">
        <g id="iPad-Pro-Portrait" transform="translate(-229.000000, -518.000000)">
            <g id="Page-1" transform="translate(229.000000, 518.000000)">
                <g id="Group-25" transform="translate(0.000000, 11.108000)" fill="#00519E">
                    <path d="M100.1979,72.5371 C95.8409,76.0351 89.5019,75.3501 86.0149,70.9551 C82.5339,66.5681 83.2679,60.1891 87.6469,56.7151 C92.0289,53.2381 98.4009,53.9801 101.8839,58.3691 C105.3679,62.7601 104.5799,69.0601 100.1979,72.5371 M102.4749,30.3571 L100.0449,42.8611 C100.0449,42.8611 72.6489,36.1271 68.3289,64.1971 L55.8439,61.6561 C55.8439,61.6561 57.6959,19.5661 102.4749,30.3571 M210.5729,18.1461 C177.6529,-0.1699 140.5489,-3.9529 106.6869,4.6851 L104.4679,16.5231 C104.4679,16.5231 89.5519,12.8361 74.2069,17.3711 C66.7559,21.3961 59.6419,26.1091 52.9619,31.4711 C47.9659,37.7951 44.0799,46.4511 42.2899,58.2641 L29.3449,55.6351 C25.1769,61.0821 21.3479,66.8921 17.9189,73.0681 C-20.1461,141.4881 4.4229,227.6681 72.7829,265.8451 C111.9939,287.5051 157.0869,288.7261 195.6419,272.9111 L235.9969,319.0001 C235.9969,319.0001 227.3959,288.9701 218.6859,261.0031 C237.4759,248.7991 253.7979,231.9201 265.5839,210.7341 C303.6199,142.6111 279.1009,56.1601 210.5729,18.1461" id="Fill-23"></path>
                </g>
                <path d="M9.6295,62.7388 L21.0595,65.4458 L33.9125,68.4868 C36.0785,56.7408 40.2405,48.2118 45.4385,42.0518 C52.2855,36.9068 59.5475,32.4228 67.1235,28.6388 C82.6075,24.5998 97.3965,28.7618 97.3965,28.7618 L99.9935,17.0028 L102.7815,4.3738 C15.8245,-19.5912 9.6295,62.7388 9.6295,62.7388" id="Fill-32" fill="#00519E"></path>
                <path d="M92.1315,54.9459 L94.9615,42.5259 C50.5515,30.3029 47.3505,72.3149 47.3505,72.3149 L59.7475,75.2529 C64.9655,47.3369 92.1315,54.9459 92.1315,54.9459" id="Fill-34" fill="#00519E"></path>
                <path d="M79.2955,68.3951 C74.8075,71.7251 73.8695,78.0791 77.2075,82.5771 C80.5525,87.0791 86.8655,87.9691 91.3325,84.6121 C95.8215,81.2761 96.8125,75.0061 93.4705,70.5041 C90.1315,66.0041 83.7865,65.0611 79.2955,68.3951" id="Fill-36" fill="#00519E"></path>
            </g>
        </g>
    </g>
</svg>