<svg width="285" height="330" version="1.1" xmlns="http://www.w3.org/2000/svg" xmlns:xlink="http://www.w3.org/1999/xlink" style=""><rect id="backgroundrect" width="100%" height="100%" x="0" y="0" fill="none" stroke="none"/>
    
<g class="currentLayer" style=""><title>Layer 1</title><g stroke="none" stroke-width="1" fill="none" fill-rule="evenodd" class="" id="svg_1">
        <g id="svg_3">
            <g id="Page-1">
                <g id="Group-25" fill="#00519E">
                    <path d="M182.7918951833708,83.22629133013106 C187.13390541473927,86.70675881507486 193.45106970031338,86.02518855465314 196.92606075941876,81.65220898219559 C200.39503998792497,77.28718399475474 199.66358530108118,70.94009058305528 195.299669366359,67.4834868531616 C190.93277046225558,64.0239116268458 184.5827017298143,64.76220037302846 181.11170326049614,69.12922930400237 C177.6397104680509,73.49823158395156 178.42499627926736,79.7666816849378 182.7918951833708,83.22629133013106 M180.5227580236824,41.257464809546946 L182.94437845922948,53.69885645084287 C182.94437845922948,53.69885645084287 210.24601336989144,46.99859476168058 214.5511265646055,74.92802234886767 L226.99312244841713,72.39975693362067 C226.99312244841713,72.39975693362067 225.14750575175276,30.52051127814775 180.5227580236824,41.257464809546946 M72.79710205740412,29.107608709113265 C105.60372282615572,10.8833092909872 142.57989230420208,7.119292400835548 176.32524588859815,15.714040812278654 L178.53662052324216,27.49274955216788 C178.53662052324216,27.49274955216788 193.40121586844907,23.824198199095918 208.69337015830388,28.336493914617677 C216.11873051493603,32.341334910070145 223.20819322195894,37.03075016908406 229.8652018550929,42.365901812747325 C234.8439919143275,48.658242439021706 238.71662044059485,57.27090492011121 240.50045142786985,69.02474888926372 L253.40087616510573,66.408914201078 C257.5544851098093,71.82862537806068 261.37029954232275,77.60953590391728 264.787497481826,83.7546363966685 C302.7214142931625,151.8320248050004 278.2370180443977,237.5805085306638 210.11246812528407,275.5663443065132 C171.03653295928962,297.1179156541766 126.09886409448518,298.3327949481318 87.67667343863286,282.59697367897024 L47.46068179399663,328.4551868948329 C47.46068179399663,328.4551868948329 56.03206074371337,298.57556276393007 64.71205419778562,270.748619296588 C45.986781325435004,258.6057005121256 29.72102216057283,241.8112310581928 17.975610816401968,220.73130541290448 C-19.92935780681728,152.94939924338541 4.505191302642743,66.93127803157404 72.79710205740412,29.107608709113265 " id="Fill-23"/>
                </g>
                <path d="M273.04833402167424,62.42465760651612 L261.65770481788786,65.1181068634105 L248.84898726752726,68.14389332825522 C246.69043413684994,56.45667283293733 242.54276053635112,47.97038882130073 237.36268888163613,41.84122809314067 C230.53929174614314,36.72200136516403 223.30227148706035,32.260442899361806 215.75237598308013,28.4953943989658 C200.3217048329825,24.47661567029536 185.58364857865672,28.61779366375049 185.58364857865672,28.61779366375049 L182.99559374891396,16.917669913698774 L180.21721017536765,4.351879366444791 C266.87468880653614,-19.493091103247934 273.04833402167424,62.42465760651612 273.04833402167424,62.42465760651612 " id="Fill-32" fill="#00519E"/>
                <path d="M190.83050815295428,54.670769064374326 L188.010271224397,42.3129770521482 C232.2673029627913,30.151154655311984 235.45727512183657,71.95281633663399 235.45727512183657,71.95281633663399 L223.10297853783413,74.87609573571535 C217.90294393418299,47.09989334241254 190.83050815295428,54.670769064374326 190.83050815295428,54.670769064374326 " id="Fill-34" fill="#00519E"/>
                <path d="M203.62229161559662,68.05264505974628 C208.09484882491233,71.36595917838713 209.02960434804845,77.68814862007275 205.7031192722934,82.16361231237534 C202.3696280428121,86.64308389174403 196.07836205037893,87.5286433660076 191.62676211312646,84.1884289824593 C187.15322587796254,80.86913362777705 186.16563355358085,74.63053616652178 189.49614181368088,70.15106458715309 C192.823621212563,65.67359695131745 199.1467820314574,64.73532305403933 203.62229161559662,68.05264505974628 " id="Fill-36" fill="#00519E"/>
            </g>
        </g>
    </g></g></svg>