<?xml version="1.0" encoding="UTF-8" standalone="no"?>
<svg width="959px" height="333px" viewBox="0 0 959 333" version="1.1" xmlns="http://www.w3.org/2000/svg" xmlns:xlink="http://www.w3.org/1999/xlink">
    <!-- Generator: Sketch 39 (31667) - http://www.bohemiancoding.com/sketch -->
    <title>Group 7</title>
    <desc>Created with Sketch.</desc>
    <defs></defs>
    <g id="Page-1" stroke="none" stroke-width="1" fill="none" fill-rule="evenodd">
        <g id="servicios" transform="translate(-1.000000, -831.000000)">
            <g id="Group-5" transform="translate(1.000000, 830.000000)">
                <g id="Group-7">
                    <g id="Group-4">
                        <path d="M327.410609,157.196279 C327.410609,157.196279 423.624408,155.660101 429.645485,197.788381 C435.666562,239.91666 318.848638,219.352042 410.373523,93.4697327" id="Shape" stroke="#F6B11F" stroke-width="4" stroke-dasharray="10,10"></path>
                        <path d="M146.084372,79.4530522 C137.952908,69.4596224 167.882176,120.869665 223.611759,104.6578" id="Shape" stroke="#F6B11F" stroke-width="4" stroke-dasharray="10,10"></path>
                        <g id="XMLID_69_" transform="translate(0.000000, 0.874236)" fill="#04529D">
                            <ellipse id="XMLID_70_" cx="71.6503142" cy="71.6276497" rx="71.2805192" ry="71.2479485"></ellipse>
                        </g>
                        <g id="XMLID_67_" transform="translate(184.148115, 85.635377)" fill="#04529D">
                            <ellipse id="XMLID_68_" cx="71.9804694" cy="71.5609014" rx="71.2805192" ry="71.2479485"></ellipse>
                        </g>
                        <g id="XMLID_65_" transform="translate(409.938500, 14.415469)" fill="#04529D">
                            <ellipse id="XMLID_66_" cx="71.3211615" cy="71.5313565" rx="71.2805192" ry="71.2479485"></ellipse>
                        </g>
                        <g id="XMLID_63_" transform="translate(618.665654, 93.158284)" fill="#04529D">
                            <ellipse id="XMLID_64_" cx="71.615693" cy="71.5609014" rx="71.2805192" ry="71.2479485"></ellipse>
                        </g>
                        <g id="XMLID_52_" transform="translate(814.855923, 33.975028)" fill="#04529D">
                            <ellipse id="XMLID_62_" cx="71.458141" cy="71.5313565" rx="71.2805192" ry="71.2479485"></ellipse>
                        </g>
                        <path d="M552.541686,72.501886 C552.541686,72.501886 578.043957,108.57573 618.997817,92.9987987 C618.997817,92.9987987 690.279842,21.7523547 697.821241,93.8669422" id="Shape" stroke="#F6B11F" stroke-width="4" stroke-dasharray="10,10"></path>
                        <path d="M722.184023,228.444227 C722.184023,228.444227 777.32053,292.05793 793.70087,228.444227 C793.70087,228.444227 788.304479,96.9001783 815.033545,96.9001783" id="Shape" stroke="#F6B11F" stroke-width="4" stroke-dasharray="10,10"></path>
                        <g id="XMLID_50_" transform="translate(894.635193, 105.194936)" fill="#F8BA45">
                            <path d="M24.1129078,25.0287119 C22.8921345,26.4339909 21.1144115,27.0884839 18.8655393,27.0884839 C14.3708054,27.0884839 9.31310074,24.467503 8.28199131,23.9047896 C8.0968432,23.8115055 8.00201123,23.6249374 8.00201123,23.3435807 L8.00201123,9.58267906 C8.00201123,9.29981775 8.18715935,9.01996561 8.47014997,9.01996561 C9.49975412,8.83339751 14.6522907,7.70947519 15.9648855,3.49664722 C16.5263509,1.62344335 17.8374404,0.312952935 19.0552032,0.312952935 C19.6166686,0.312952935 20.0878179,0.59430966 20.4611247,1.06223448 C21.3989074,2.46600895 21.0225901,5.55641918 19.4315205,9.48939501 C19.8048273,9.39460638 20.272966,9.30132233 20.6492833,9.30132233 C22.3336796,9.30132233 25.2388492,10.1453925 25.8936413,15.948563 C26.3587695,20.1598864 25.7039774,23.2487921 24.1129078,25.0287119 L24.1129078,25.0287119 Z M5.56498035,24.6540711 L0.88208777,24.6540711 C0.602107693,24.6540711 0.320622346,24.3727144 0.320622346,24.0928623 L0.320622346,8.83189293 C0.320622346,8.45574757 0.603612962,8.26917948 0.88208777,8.26917948 L5.56498035,8.26917948 C5.84797096,8.26917948 6.12644577,8.5505362 6.12644577,8.83189293 L6.12644577,24.0928623 C6.12644577,24.3727144 5.84646569,24.6540711 5.56498035,24.6540711 L5.56498035,24.6540711 Z M3.22428669,21.1890201 C2.56798931,21.1890201 2.09834531,21.7517336 2.09834531,22.3129424 C2.09834531,22.9689399 2.56949458,23.4368648 3.22428669,23.4368648 C3.87907881,23.4368648 4.34721754,22.8756559 4.34721754,22.3129424 C4.34721754,21.6584495 3.88058408,21.1890201 3.22428669,21.1890201 L3.22428669,21.1890201 Z" id="XMLID_51_"></path>
                        </g>
                        <g id="XMLID_48_" transform="translate(67.737115, 38.993353)" fill="#F6B11F">
                            <path d="M30.5233482,5.90548207 L16.2503854,20.1749322 C16.142006,20.2817575 15.9267525,20.3900874 15.8183731,20.3900874 C15.7099937,20.3900874 15.4977508,20.2832621 15.3893714,20.1749322 L8.627702,13.3095272 C8.51932262,13.2027019 8.41094324,12.9875468 8.41094324,12.8777124 C8.41094324,12.7708871 8.51932262,12.5602457 8.627702,12.4519158 L10.8825953,10.1995574 C11.0948383,9.98289771 11.5253453,9.98289771 11.7375882,10.1995574 L15.8183731,14.2769731 L27.4104515,2.688687 C27.625705,2.47353185 28.0532014,2.47353185 28.2684549,2.688687 L30.521843,4.94104538 C30.6302224,5.04787066 30.7386017,5.2630258 30.7386017,5.36985108 C30.6317276,5.58500623 30.6317276,5.79865679 30.5233482,5.90548207 L30.5233482,5.90548207 Z M3.26292246,3.22431798 L3.26292246,22.9629216 L23.0105495,22.9629216 L23.0105495,22.9629216 L23.0105495,16.9566326 L26.1234463,13.7383329 L26.1234463,25.5402696 C26.1234463,25.8592408 25.7998134,26.1842304 25.4806963,26.1842304 L0.794280924,26.1842304 C0.470648039,26.1842304 0.150025693,25.8592408 0.150025693,25.5402696 L0.150025693,0.865134316 C0.150025693,0.541649311 0.470648039,0.221173469 0.794280924,0.221173469 L25.4806963,0.221173469 C25.7998134,0.221173469 26.1234463,0.541649311 26.1234463,0.865134316 L23.438046,3.33415242 L3.26141719,3.33415242 L3.26141719,3.22431798 L3.26292246,3.22431798 Z" id="XMLID_49_"></path>
                        </g>
                        <g id="XMLID_44_" transform="translate(446.064962, 50.525423)" fill="#FFFFFF">
                            <path d="M30.8971562,9.95335273 C27.8068385,9.95335273 25.3698076,12.3877655 25.3698076,15.4766711 C25.3698076,18.5670814 27.8068385,21.0014941 30.8971562,21.0014941 C33.9904845,21.0014941 36.4245049,18.5670814 36.4245049,15.4766711 C36.4245049,12.3877655 33.9904845,9.95335273 30.8971562,9.95335273 L30.8971562,9.95335273 Z" id="XMLID_47_"></path>
                            <path d="M60.7782558,18.3805133 C60.4019385,18.0976519 60.0286317,18.0976519 59.5574824,18.1924406 L43.2614377,24.2784724 C43.7295764,23.3426228 44.1962099,22.5000572 44.5725272,21.6574916 C45.4139727,19.6910037 45.8836167,17.6312317 45.8836167,15.4781757 C45.8836167,7.14730838 39.1400106,0.405279045 30.8023243,0.405279045 C22.4676485,0.405279045 15.7225371,7.1458038 15.7225371,15.4781757 C15.7225371,16.2274572 15.8173691,17.0715274 15.9106958,17.820809 L1.20421539,22.9694866 C0.733066116,23.1575593 0.359759346,23.6254841 0.359759346,24.186693 L0.359759346,56.3937628 C0.359759346,56.7684036 0.547918,57.237833 0.92122477,57.4244011 C1.29453154,57.7057578 1.67084885,57.7057578 2.04415562,57.6109692 L19.4661417,51.5249373 L40.2599309,59.9536024 C40.4480895,60.0468865 40.5429215,60.0468865 40.7280696,60.0468865 C40.9162282,60.0468865 41.0110602,60.0468865 41.1977136,59.9536024 L60.304096,52.8384369 C60.7752452,52.6518688 61.148552,52.1824394 61.148552,51.619726 L61.148552,19.4081424 C61.3397212,19.0350062 61.0582358,18.5670814 60.7782558,18.3805133 L60.7782558,18.3805133 Z M36.4245049,50.0248697 C36.4245049,50.0248697 35.5800488,51.7100008 30.8971562,51.7100008 C26.1194317,51.7100008 25.3698076,50.0248697 25.3698076,50.0248697 L25.3698076,49.6502289 C25.3698076,49.6502289 25.3698076,49.6502289 25.3698076,49.3688722 C25.4646396,45.9986098 25.9342836,45.0627601 29.3060867,44.4067626 C29.3060867,44.4067626 29.7742254,45.0627601 30.8971562,45.0627601 C32.0200871,45.0627601 32.4912364,44.4067626 32.4912364,44.4067626 C35.9578714,45.0627601 36.3311782,45.9986098 36.4245049,49.4621562 L36.4245049,49.7435129 L36.4245049,50.0248697 L36.4245049,50.0248697 Z M27.9016705,40.6618595 C27.9016705,38.6953716 28.3698092,37.105029 30.8038296,37.105029 C33.3356924,37.105029 33.7089992,38.6968762 33.7089992,40.6618595 C33.7089992,42.629852 32.3979097,44.21869 30.8038296,44.21869 C29.21276,44.2201945 27.9016705,42.629852 27.9016705,40.6618595 L27.9016705,40.6618595 Z M40.640764,19.7842877 C38.018585,25.5874583 32.8645431,31.7682787 31.365295,33.4519053 C31.2734736,33.546694 31.0853149,33.639978 30.8971562,33.639978 C30.7089976,33.639978 30.5238495,33.5451894 30.4290175,33.4519053 C28.9297694,31.6734901 23.778738,25.5874583 21.156559,19.7842877 C20.5002617,18.4737973 20.2187763,16.9752342 20.2187763,15.4766711 C20.2187763,9.57871196 24.9965009,4.80317053 30.8971562,4.80317053 C36.7978116,4.80317053 41.5740309,9.57871196 41.5740309,15.4766711 C41.5755362,16.9752342 41.2022294,18.4737973 40.640764,19.7842877 L40.640764,19.7842877 Z" id="XMLID_45_"></path>
                        </g>
                        <g id="XMLID_42_" transform="translate(495.233577, 64.066656)" fill="#F6B11F">
                            <path d="M26.6894275,5.21241668 L14.2333246,17.6658371 C14.1384927,17.7591211 13.950334,17.8524052 13.8570073,17.8524052 C13.7636806,17.8524052 13.5770272,17.7576165 13.4837005,17.6658371 L7.58304516,11.6745939 C7.4882132,11.5798052 7.3948865,11.3917326 7.3948865,11.2984485 C7.3948865,11.2051645 7.48971847,11.0185964 7.58304516,10.9253123 L9.55043204,8.95882441 C9.73558016,8.77075173 10.1118975,8.77075173 10.2970456,8.95882441 L13.8570073,12.5156549 L23.9739218,2.40336317 C24.1620805,2.21679507 24.5353872,2.21679507 24.7235459,2.40336317 L26.6909328,4.36985108 C26.7857647,4.46463971 26.8790914,4.65120781 26.8790914,4.74449186 C26.7842595,4.93256453 26.7842595,5.11913263 26.6894275,5.21241668 L26.6894275,5.21241668 Z M2.89864731,2.87279257 L2.89864731,20.0987452 L20.1324747,20.0987452 L20.1324747,20.0987452 L20.1324747,14.8567836 L22.8494857,12.0477301 L22.8494857,22.3480945 C22.8494857,22.6279466 22.5664951,22.9093033 22.2880203,22.9093033 L0.74310177,22.9093033 C0.460111155,22.9093033 0.181636347,22.626442 0.181636347,22.3480945 L0.181636347,0.81302061 C0.181636347,0.530159303 0.461616424,0.25181174 0.74310177,0.25181174 L22.2880203,0.25181174 C22.5680004,0.25181174 22.8494857,0.531663884 22.8494857,0.81302061 L20.5057815,2.9675812 L2.89864731,2.9675812 L2.89864731,2.87279257 L2.89864731,2.87279257 Z" id="XMLID_43_"></path>
                        </g>
                        <path d="M57.0356552,58.7229294 L62.7060044,58.7229294 L62.7060044,65.0858042 L66.4450932,65.0858042 L66.4450932,43.6440144 C66.4435879,42.1665154 65.2438883,40.967364 63.7642087,40.967364 L37.2910387,40.967364 C35.8083485,40.9643549 34.6071437,42.1635063 34.6041331,43.6440144 L34.6041331,43.6440144 L34.6041331,98.0617151 C34.6071437,99.5407187 35.8113591,100.738365 37.2910387,100.738365 L46.8148771,100.738365 L46.8148771,83.3183218 L54.1937069,83.3183218 L54.1937069,68.7374233 C54.2749914,67.0944204 55.4340488,65.7026826 57.0341499,65.3235281 L57.0356552,58.7229294 L57.0356552,58.7229294 L57.0356552,58.7229294 L57.0356552,58.7229294 Z M57.0356552,46.3251785 L62.7060044,46.3251785 L62.7060044,54.3671662 L57.0356552,54.3671662 L57.0356552,46.3251785 L57.0356552,46.3251785 L57.0356552,46.3251785 Z M44.1114136,91.5378501 L38.4440749,91.5378501 L38.4440749,83.4958624 L44.1129189,83.4958624 L44.1114136,91.5378501 L44.1114136,91.5378501 L44.1114136,91.5378501 Z M44.1114136,79.7675097 L38.4440749,79.7675097 L38.4440749,71.7195037 L44.1129189,71.7195037 L44.1129189,79.7629959 L44.1114136,79.7675097 L44.1114136,79.7675097 Z M44.1114136,66.7634125 L38.4440749,66.7634125 L38.4440749,58.7229294 L44.1129189,58.7229294 L44.1114136,66.7634125 L44.1114136,66.7634125 L44.1114136,66.7634125 Z M44.1114136,54.3671662 L38.4440749,54.3671662 L38.4440749,46.3251785 L44.1129189,46.3251785 L44.1114136,54.3671662 L44.1114136,54.3671662 L44.1114136,54.3671662 Z M53.5645044,79.7660051 L47.9001763,79.7660051 L47.9001763,71.7195037 L53.5675149,71.7195037 L53.5675149,79.7629959 L53.5645044,79.7660051 L53.5645044,79.7660051 Z M53.5645044,66.7634125 L47.9001763,66.7634125 L47.9001763,58.7229294 L53.5675149,58.7229294 L53.5675149,66.7634125 L53.5645044,66.7634125 L53.5645044,66.7634125 Z M53.5645044,54.3671662 L47.9001763,54.3671662 L47.9001763,46.3251785 L53.5675149,46.3251785 L53.5675149,54.3671662 L53.5645044,54.3671662 L53.5645044,54.3671662 Z M81.517354,67.235851 L59.0948635,67.235851 C57.8409743,67.235851 56.8234123,67.9099035 56.8234123,68.7374233 L56.8234123,99.2398024 C56.8234123,100.071836 57.8409743,100.741375 59.0948635,100.741375 L67.1631066,100.741375 L67.1631066,90.9766412 L73.6402801,90.9766412 L73.6402801,100.738365 L81.517354,100.738365 C82.7712433,100.738365 83.7888053,100.061304 83.7888053,99.2337841 L83.7888053,68.7359187 C83.7918158,67.9068944 82.7727485,67.235851 81.517354,67.235851 L81.517354,67.235851 Z M64.8735921,95.582165 L60.0732885,95.582165 L60.0732885,91.0759436 L64.8720868,91.0759436 L64.8735921,95.582165 L64.8735921,95.582165 L64.8735921,95.582165 Z M64.8735921,88.9845754 L60.0732885,88.9845754 L60.0732885,84.4768495 L64.8720868,84.4768495 L64.8735921,88.9845754 L64.8735921,88.9845754 L64.8735921,88.9845754 Z M64.8735921,81.6963831 L60.0732885,81.6963831 L60.0732885,77.1901617 L64.8720868,77.1901617 L64.8735921,81.6963831 L64.8735921,81.6963831 L64.8735921,81.6963831 Z M64.8735921,74.7467215 L60.0732885,74.7467215 L60.0732885,70.2405001 L64.8720868,70.2405001 L64.8735921,74.7467215 L64.8735921,74.7467215 L64.8735921,74.7467215 Z M72.8801191,88.9845754 L68.0813208,88.9845754 L68.0813208,84.4768495 L72.8801191,84.4768495 L72.8801191,88.9845754 L72.8801191,88.9845754 L72.8801191,88.9845754 Z M72.8801191,81.6963831 L68.0813208,81.6963831 L68.0813208,77.1901617 L72.8801191,77.1901617 L72.8801191,81.6963831 L72.8801191,81.6963831 L72.8801191,81.6963831 Z M72.8801191,74.7467215 L68.0813208,74.7467215 L68.0813208,70.2405001 L72.8801191,70.2405001 L72.8801191,74.7467215 L72.8801191,74.7467215 L72.8801191,74.7467215 Z M80.617203,95.6829719 L75.8214152,95.6829719 L75.8214152,91.1767506 L80.6202135,91.1767506 L80.6202135,95.6829719 L80.617203,95.6829719 L80.617203,95.6829719 Z M80.617203,88.9845754 L75.8214152,88.9845754 L75.8214152,84.4768495 L80.6202135,84.4768495 L80.6202135,88.9830709 L80.617203,88.9830709 L80.617203,88.9845754 Z M80.617203,81.6963831 L75.8214152,81.6963831 L75.8214152,77.1901617 L80.6202135,77.1901617 L80.6202135,81.6963831 L80.617203,81.6963831 L80.617203,81.6963831 Z M80.617203,74.7482261 L75.8214152,74.7482261 L75.8214152,70.2405001 L80.6202135,70.2405001 L80.6202135,74.7467215 L80.617203,74.7482261 L80.617203,74.7482261 Z" id="Forma_1_5_" fill="#FFFFFF"></path>
                        <path d="M717.07815,128.648351 L663.475513,128.648351 C661.976264,128.664901 660.773554,129.891135 660.793123,131.389698 L660.793123,131.391203 L660.793123,170.620154 C660.772049,172.118717 661.974759,173.349465 663.474007,173.366015 L663.475513,173.366015 L666.151881,173.366015 L666.151881,172.45123 C666.141344,170.2741 666.990316,168.184237 668.509133,166.626995 C669.997844,165.084799 672.052537,164.213646 674.19604,164.215151 C674.379683,164.215151 674.564831,164.225683 674.749979,164.234711 C672.96774,160.912595 669.830759,158.527833 666.150376,157.704827 L666.150376,144.308034 C671.177975,143.170571 675.066086,139.187944 676.080637,134.137064 L704.473025,134.137064 C705.487577,139.186439 709.375687,143.170571 714.403287,144.308034 L714.403287,157.706332 C709.375687,158.842291 705.487577,162.823413 704.473025,167.875798 L680.886962,167.875798 C681.77206,169.237444 682.238694,170.827786 682.234178,172.45123 L682.234178,173.366015 L717.07815,173.366015 C718.577398,173.349465 719.780108,172.121726 719.765056,170.623163 L719.765056,170.620154 L719.765056,131.391203 C719.781614,129.894144 718.581914,128.664901 717.081161,128.648351 C717.079655,128.648351 717.079655,128.648351 717.07815,128.648351 L717.07815,128.648351 Z M690.279842,158.902474 C695.727411,158.902474 699.994849,155.435918 699.994849,151.010944 C699.994849,146.587475 695.727411,143.108883 690.279842,143.108883 C684.829262,143.108883 680.561824,146.576943 680.561824,151.010944 C680.561824,155.444946 684.829262,158.902474 690.279842,158.902474 L690.279842,158.902474 Z M682.234178,178.856233 L682.234178,179.139094 C688.572867,180.530832 693.072116,186.163985 693.023948,192.65174 C693.061579,194.129239 691.894996,195.361491 690.413811,195.399105 C688.935636,195.43672 687.701316,194.269165 687.665189,192.790161 L687.665189,192.65174 C687.714863,188.125959 684.08867,184.414157 679.56082,184.355478 C678.060066,184.334414 676.858861,183.106675 676.873914,181.611121 L676.873914,172.45123 C676.879935,171.726021 676.596945,171.026391 676.089669,170.50731 C675.597446,169.992744 674.911043,169.703864 674.199051,169.706873 C673.481037,169.709882 672.79915,169.997257 672.294885,170.50731 C671.795136,171.0294 671.51064,171.727526 671.512145,172.45123 L671.512145,187.054697 C671.503113,192.197356 673.529206,197.133888 677.146368,200.788516 L703.4088,200.788516 C707.027467,197.132383 709.050549,192.195852 709.044528,187.054697 L709.044528,178.856233 L682.234178,178.856233 L682.234178,178.856233 L682.234178,178.856233 Z" id="Shape" fill="#FFFFFF"></path>
                        <path d="M248.323764,158.50376 C248.323764,157.78457 247.741225,157.203802 247.023211,157.206811 L247.018695,157.206811 L242.46074,157.206811 C241.742727,157.202297 241.158682,157.783065 241.155672,158.499246 L241.155672,158.50376 L241.155672,163.017504 C241.155672,163.736694 241.739716,164.317463 242.45773,164.315958 L242.46074,164.315958 L247.018695,164.315958 C247.736709,164.320472 248.322259,163.739703 248.323764,163.022018 L248.323764,163.017504 L248.323764,158.50376 L248.323764,158.50376 L248.323764,158.50376 Z M259.712631,158.50376 C259.712631,157.78457 259.128586,157.203802 258.410573,157.206811 L258.407562,157.206811 L253.851113,157.206811 C253.133099,157.202297 252.547549,157.783065 252.546044,158.499246 L252.546044,158.50376 L252.546044,163.017504 C252.546044,163.736694 253.130089,164.317463 253.848102,164.315958 L253.851113,164.315958 L258.407562,164.315958 C259.127081,164.318967 259.711126,163.738199 259.712631,163.022018 L259.712631,163.017504 L259.712631,158.50376 L259.712631,158.50376 Z M271.101498,158.50376 C271.101498,157.78457 270.518959,157.203802 269.79944,157.206811 L269.797935,157.206811 L265.23998,157.206811 C264.521966,157.202297 263.937922,157.783065 263.934911,158.499246 L263.934911,158.50376 L263.934911,163.017504 C263.936416,163.736694 264.518956,164.317463 265.236969,164.315958 L265.23998,164.315958 L269.797935,164.315958 C270.515948,164.318967 271.099993,163.738199 271.101498,163.022018 L271.101498,163.017504 L271.101498,158.50376 L271.101498,158.50376 Z M248.323764,169.798653 C248.323764,169.079463 247.741225,168.498694 247.023211,168.500199 L247.018695,168.500199 L242.46074,168.500199 C241.742727,168.498694 241.158682,169.077958 241.155672,169.794139 L241.155672,169.798653 L241.155672,174.313901 C241.155672,175.031587 241.739716,175.612355 242.45773,175.612355 L242.46074,175.612355 L247.018695,175.612355 C247.736709,175.615364 248.322259,175.034596 248.323764,174.316911 L248.323764,174.313901 L248.323764,169.798653 L248.323764,169.798653 L248.323764,169.798653 Z M259.712631,169.798653 C259.712631,169.079463 259.128586,168.498694 258.410573,168.500199 L258.407562,168.500199 L253.851113,168.500199 C253.133099,168.49719 252.547549,169.077958 252.546044,169.794139 L252.546044,169.798653 L252.546044,174.313901 C252.546044,175.031587 253.130089,175.612355 253.848102,175.612355 L253.851113,175.612355 L258.407562,175.612355 C259.127081,175.61386 259.711126,175.033091 259.712631,174.316911 L259.712631,174.313901 L259.712631,169.798653 L259.712631,169.798653 Z M271.101498,169.798653 C271.101498,169.079463 270.518959,168.498694 269.79944,168.500199 L269.797935,168.500199 L265.23998,168.500199 C264.521966,168.49719 263.937922,169.077958 263.934911,169.794139 L263.934911,169.798653 L263.934911,174.313901 C263.936416,175.031587 264.518956,175.612355 265.236969,175.612355 L265.23998,175.612355 L269.797935,175.612355 C270.515948,175.61386 271.099993,175.033091 271.101498,174.316911 L271.101498,174.313901 L271.101498,169.798653 L271.101498,169.798653 L271.101498,169.798653 Z M279.251026,133.371232 L279.251026,140.277261 C279.235973,143.402276 276.689057,145.925459 273.562613,145.908909 L273.553581,145.908909 L269.960504,145.908909 C266.823523,145.931478 264.260049,143.412808 264.229944,140.277261 L264.229944,133.348663 L248.030236,133.348663 L248.030236,140.277261 C247.998626,143.412808 245.435152,145.931478 242.299676,145.908909 L238.705093,145.908909 C235.578649,145.928468 233.028723,143.411304 233.007649,140.286288 L233.007649,140.277261 L233.007649,133.371232 C230.234944,133.453984 228.023703,135.710856 227.999619,138.48079 L227.999619,178.93748 C228.00865,181.779634 230.314723,184.07713 233.156671,184.081644 L279.102004,184.081644 C281.943952,184.075626 284.247014,181.779634 284.257551,178.93748 L284.257551,138.48079 C284.234972,135.709351 282.022226,133.452479 279.251026,133.371232 L279.251026,133.371232 L279.251026,133.371232 Z M277.581682,176.415802 C277.578671,177.642036 276.579173,178.635059 275.352378,178.63205 L236.806949,178.63205 C235.580155,178.635059 234.580656,177.64354 234.577645,176.415802 L234.577645,155.524689 C234.580656,154.299959 235.580155,153.305431 236.806949,153.30844 L275.352378,153.30844 C276.580678,153.305431 277.578671,154.298455 277.581682,155.524689 L277.581682,176.415802 L277.581682,176.415802 L277.581682,176.415802 L277.581682,176.415802 Z M238.691546,142.213657 L242.248497,142.213657 C243.321754,142.216666 244.196316,141.351532 244.202337,140.277261 L244.202337,128.95679 C244.196316,127.884023 243.321754,127.018889 242.248497,127.021898 L238.691546,127.021898 C237.616784,127.018889 236.743728,127.884023 236.737707,128.95679 L236.737707,140.277261 C236.742222,141.350027 237.616784,142.215161 238.691546,142.213657 L238.691546,142.213657 L238.691546,142.213657 Z M269.915346,142.213657 L273.472297,142.213657 C274.545554,142.216666 275.420115,141.351532 275.424631,140.277261 L275.424631,128.95679 C275.420115,127.884023 274.545554,127.018889 273.472297,127.021898 L269.915346,127.021898 C268.840584,127.018889 267.966022,127.884023 267.961506,128.95679 L267.961506,140.277261 C267.966022,141.350027 268.840584,142.215161 269.915346,142.213657 L269.915346,142.213657 L269.915346,142.213657 Z" id="Forma_1_4_" fill="#FFFFFF"></path>
                        <g id="XMLID_40_" transform="translate(264.927385, 162.369030)" fill="#F6B11F">
                            <path d="M34.7245547,7.13021134 L18.5865632,23.2653425 C18.4631312,23.385709 18.2192775,23.5060755 18.098856,23.5060755 C17.9754239,23.5060755 17.7375914,23.385709 17.6141593,23.2653425 L9.97040216,15.5032069 C9.84697008,15.3813358 9.72504327,15.1390982 9.72504327,15.014218 C9.72504327,14.895356 9.84697008,14.654623 9.97040216,14.5327519 L12.5173177,11.9870002 C12.7566555,11.743258 13.2443627,11.743258 13.4837005,11.9870002 L18.0973507,16.595533 L31.2037299,3.49363805 C31.4475836,3.25140045 31.930775,3.25140045 32.1746286,3.49363805 L34.7230494,6.0408944 C34.8449762,6.16276549 34.966903,6.4050031 34.966903,6.52536961 C34.8464815,6.7691118 34.8464815,7.01134941 34.7245547,7.13021134 L34.7245547,7.13021134 Z M3.90266189,4.09998437 L3.90266189,26.4174406 L26.2303204,26.4174406 L26.2303204,26.4174406 L26.2303204,19.6242554 L29.7496399,15.9876822 L29.7496399,29.3303102 C29.7496399,29.6899051 29.3838594,30.0555184 29.0225948,30.0555184 L1.11038746,30.0555184 C0.744607039,30.0555184 0.383342424,29.6899051 0.383342424,29.3303102 L0.383342424,1.43236151 C0.383342424,1.06674823 0.744607039,0.704144104 1.11038746,0.704144104 L29.0225948,0.704144104 C29.3838594,0.704144104 29.7496399,1.06674823 29.7496399,1.43236151 L26.7135118,4.22185546 L3.90266189,4.22185546 L3.90266189,4.09998437 L3.90266189,4.09998437 Z" id="XMLID_41_"></path>
                        </g>
                        <path d="M880.177082,84.6995276 C883.667801,84.6814726 886.505234,81.8739237 886.557918,78.3832948 L873.802267,78.3832948 C873.854951,81.8694099 876.686362,84.6769588 880.177082,84.6995276 L880.177082,84.6995276 Z M871.217719,71.9572275 C871.958312,72.5274639 872.869,72.8359031 873.803772,72.8374077 L873.803772,75.7713414 L886.559423,75.7713414 L886.559423,72.8374077 C887.49269,72.8374077 888.400368,72.5274639 889.136444,71.9572275 C891.022547,70.5022973 891.370264,67.7925462 889.916174,65.9088102 C889.11236,64.8676399 887.878039,64.2477523 886.560929,64.2312019 C885.751094,64.2312019 884.960827,64.4644121 884.280446,64.9037498 C883.863486,62.5972265 881.655256,61.0655626 879.347678,61.4838363 C877.637693,61.7922755 876.287466,63.1117934 875.941254,64.8149795 C875.293988,64.4343204 874.554901,64.2327065 873.805277,64.2312019 C871.44351,64.2432386 869.537839,66.1645891 869.549881,68.5252773 L869.549881,68.5403231 C869.545365,69.8748868 870.162526,71.1372307 871.217719,71.9572275 L871.217719,71.9572275 Z M917.978908,94.1934363 C917.923213,94.1317485 917.846444,94.0941339 917.762149,94.0941339 C917.677854,94.0971431 917.59958,94.1317485 917.539369,94.1934363 C916.247848,95.4979084 914.140471,95.5099451 912.833898,94.2205188 C912.826371,94.2114913 912.81734,94.2024638 912.808308,94.1934363 C912.751108,94.1287393 912.668318,94.0926294 912.584023,94.0941339 C912.499728,94.0941339 912.422959,94.1317485 912.367264,94.1934363 C911.742578,94.8253605 910.88909,95.1804417 909.99797,95.1804417 L909.99797,95.1804417 C909.111367,95.1804417 908.259385,94.8253605 907.639214,94.1934363 C907.580508,94.1302439 907.497718,94.0941339 907.413423,94.0941339 C907.327623,94.0971431 907.249349,94.1317485 907.190643,94.1934363 C906.568967,94.8253605 905.716985,95.1804417 904.828876,95.1804417 C903.940767,95.1804417 903.087279,94.8253605 902.458077,94.1934363 C902.405392,94.1317485 902.327118,94.0941339 902.244329,94.0941339 C902.158528,94.0971431 902.078749,94.1317485 902.020044,94.1934363 C901.267409,94.9472316 900.201678,95.2977991 899.146485,95.1443318 L899.838908,96.85805 C899.998467,97.2477366 900.291994,97.5682124 900.663796,97.7653126 L895.728018,99.9830656 L895.747587,94.1317485 L895.747587,94.0956385 C895.746081,90.0693787 892.4947,86.7954095 888.465094,86.7653179 L883.860476,86.7653179 L877.386313,91.1632093 L876.919679,91.4761623 L876.919679,114.135158 C876.921184,114.813725 876.373266,115.362897 875.69439,115.365906 C875.014008,115.367411 874.46308,114.819743 874.461574,114.141177 L874.461574,114.135158 L874.461574,90.8141465 C874.46308,90.4003866 874.667796,90.0152137 875.007987,89.780499 C875.241304,89.6195088 879.180594,86.9353356 879.441005,86.7653179 L871.901112,86.7653179 C867.873011,86.7969141 864.62163,90.0693787 864.618619,94.0956385 L864.591524,99.1209405 L858.577974,95.2361112 C858.102308,94.9261675 857.546864,94.7591589 856.979378,94.751636 C856.655745,93.8669422 856.38028,92.9641933 856.152985,92.0509124 C856.709934,90.2378918 858.191119,84.9808843 857.507727,82.7556084 C856.652734,79.9134541 853.654238,78.303552 850.813795,79.1581542 C850.798742,79.1641725 850.782184,79.1686863 850.765626,79.1732 L850.7581,79.1732 C847.911636,80.1000222 846.337124,83.1377721 847.220717,85.9934676 L847.220717,85.9934676 C847.911636,88.2262664 852.096284,91.7093724 853.568438,92.875423 C853.937229,93.881988 854.250325,94.9096171 854.501704,95.952292 C853.441995,97.3274794 853.697891,99.2999857 855.072202,100.357706 C855.198644,100.454 855.331108,100.54277 855.471098,100.619504 L856.225238,104.31626 C856.46006,105.500366 857.611591,106.270711 858.796238,106.035997 C858.874512,106.020951 858.95128,106.001391 859.025039,105.977318 C859.929705,105.686934 860.546866,104.851891 860.561918,103.905509 L865.985403,107.412689 C866.930713,108.02054 868.131917,108.062668 869.119374,107.519514 C870.10081,106.967333 870.714959,105.929171 870.723991,104.800735 L870.769149,94.1317485 C870.77216,93.4968151 871.291477,92.9852574 871.926701,92.9897712 C871.947775,92.9897712 871.968849,92.9897712 871.989922,92.9927803 L872.000459,146.507732 C871.994438,148.544935 873.645719,150.202984 875.685358,150.207498 C877.724998,150.212012 879.3823,148.561486 879.386815,146.522778 L879.386815,146.507732 L879.386815,117.424173 C879.386815,116.98634 879.742059,116.631259 880.180092,116.631259 C880.619631,116.631259 880.97638,116.98634 880.97638,117.424173 L880.97638,117.424173 L880.97638,146.507732 C880.970359,148.544935 882.621639,150.202984 884.661279,150.207498 C886.700919,150.212012 888.359725,148.561486 888.362736,146.522778 L888.362736,146.507732 L888.30102,92.9927803 C888.933233,92.9190559 889.505235,93.374944 889.577488,94.0068682 C889.582004,94.0444828 889.583509,94.0851065 889.585014,94.122721 L889.539856,104.764625 C889.535341,105.819337 890.062185,106.806342 890.941262,107.393129 C891.811308,107.967879 892.917681,108.055145 893.869011,107.626339 L905.823859,102.261002 C907.386328,101.552344 908.087784,99.7197639 907.393855,98.1504855 C907.36676,98.0978251 907.34117,98.0451648 907.306549,97.9819723 L918.499731,97.9819723 C919.234303,97.9864861 919.896621,97.5366162 920.161548,96.8520317 L920.853972,95.1458364 C920.688393,95.1714142 920.519802,95.1819463 920.351212,95.1819463 C919.460093,95.1819463 918.6051,94.8253605 917.978908,94.1934363 L917.978908,94.1934363 Z M854.914148,83.5695869 C855.024033,84.744665 854.92619,85.9287706 854.61761,87.0677387 L852.975361,81.7490434 C853.898092,81.9717215 854.634168,82.6623243 854.914148,83.5695869 L854.914148,83.5695869 L854.914148,83.5695869 Z M849.815801,85.1749753 C849.538832,84.2647035 849.755591,83.274689 850.389309,82.5660311 L852.024031,87.8847264 C851.131407,87.1234082 850.381783,86.204109 849.815801,85.1749753 L849.815801,85.1749753 L849.815801,85.1749753 Z M880.095797,95.8003293 C879.406384,95.804843 878.843413,95.2511571 878.838897,94.5620588 C878.834382,93.8744651 879.388321,93.310247 880.077734,93.3057333 C880.767147,93.3012195 881.328613,93.8549055 881.333129,94.5440038 L881.333129,94.5530313 C881.334634,95.2376158 880.780695,95.7958155 880.095797,95.8003293 L880.095797,95.8003293 L880.095797,95.8003293 Z M881.334634,103.067458 C881.327107,103.749033 880.768653,104.295196 880.086766,104.287673 C879.404879,104.281655 878.858466,103.72195 878.865992,103.043384 C878.873519,102.367827 879.419931,101.823169 880.095797,101.82016 C880.7822,101.823169 881.337644,102.381368 881.334634,103.067458 L881.334634,103.067458 L881.334634,103.067458 L881.334634,103.067458 Z M880.095797,112.830686 C879.406384,112.836705 878.843413,112.281514 878.838897,111.592416 C878.834382,110.903318 879.388321,110.342109 880.077734,110.33609 C880.767147,110.331577 881.328613,110.885263 881.333129,111.574361 L881.333129,111.583388 C881.337644,112.267973 880.783705,112.827677 880.098808,112.830686 L880.095797,112.830686 L880.095797,112.830686 L880.095797,112.830686 Z M885.275429,101.82016 C885.964842,101.815646 886.527813,102.369332 886.532328,103.059935 C886.53835,103.747528 885.982905,104.310242 885.293492,104.314756 C884.605584,104.320774 884.042613,103.765583 884.038097,103.07799 L884.038097,103.067458 C884.033582,102.382873 884.586015,101.824673 885.272418,101.82016 L885.275429,101.82016 L885.275429,101.82016 L885.275429,101.82016 Z M884.036592,94.5530313 C884.042613,93.8714559 884.602573,93.3252928 885.28446,93.3328157 C885.966347,93.3388341 886.51276,93.8970338 886.503728,94.5786092 C886.497707,95.2526616 885.949789,95.7973201 885.275429,95.8003293 C884.589026,95.7973201 884.035087,95.2376158 884.036592,94.5530313 L884.036592,94.5530313 L884.036592,94.5530313 Z M885.275429,110.33609 C885.964842,110.331577 886.527813,110.885263 886.532328,111.574361 C886.53835,112.263459 885.982905,112.826173 885.293492,112.830686 C884.605584,112.836705 884.042613,112.281514 884.038097,111.592416 L884.038097,111.583388 C884.033582,110.898804 884.586015,110.3391 885.272418,110.33609 L885.275429,110.33609 L885.275429,110.33609 L885.275429,110.33609 Z M921.730039,88.3962841 C920.510771,86.4884749 918.731543,85.0049576 916.631692,84.1533645 C914.531841,83.3273493 912.313075,82.8488924 910.061192,82.7360488 L909.934749,82.7360488 C907.684372,82.8473878 905.46711,83.3288539 903.373281,84.1533645 C901.271925,85.0049576 899.488181,86.4884749 898.262892,88.3962841 C897.510257,89.6811966 897.27694,91.1872826 898.318587,92.246508 L898.353208,92.2826179 C899.068211,92.9987987 900.225763,93.0018078 900.945281,92.2871317 C900.946787,92.2856271 900.946787,92.2841225 900.948292,92.2826179 C901.657274,91.5679417 902.81031,91.563428 903.522302,92.2720858 C903.526818,92.275095 903.531334,92.2781042 903.534344,92.2826179 L903.534344,92.2826179 C904.222252,92.9957895 905.360236,93.0168536 906.075239,92.3292599 C906.090292,92.3127095 906.10685,92.2976637 906.120397,92.2826179 C906.829379,91.5679417 907.98091,91.563428 908.694407,92.2720858 C908.698923,92.275095 908.703439,92.2781042 908.704944,92.2826179 C909.048146,92.6286716 909.513274,92.8257718 909.99797,92.8302856 L909.99797,92.8302856 C910.484172,92.8272764 910.950806,92.6301762 911.289491,92.2826179 C911.998473,91.5679417 913.15151,91.563428 913.865007,92.2720858 C913.868018,92.275095 913.872533,92.2781042 913.875544,92.2826179 C914.220251,92.6301762 914.688389,92.8272764 915.177602,92.8302856 C915.663804,92.8272764 916.128932,92.6301762 916.469123,92.2826179 L916.469123,92.2826179 C917.178105,91.5679417 918.329636,91.563428 919.044639,92.2720858 C919.046144,92.275095 919.052165,92.2781042 919.055175,92.2826179 C919.764157,92.9957895 920.914183,93.0018078 921.629186,92.29315 C921.633702,92.2901408 921.638217,92.2871317 921.641228,92.2826179 L921.683376,92.246508 C922.729538,91.1872826 922.484179,89.6796921 921.730039,88.3962841 L921.730039,88.3962841 L921.730039,88.3962841 Z M906.040618,86.9879959 C905.658279,87.3761779 905.032087,87.3821962 904.643728,87.0000326 C904.637707,86.9970234 904.634696,86.9910051 904.63018,86.9879959 C904.234295,86.5907864 904.234295,85.9483301 904.63018,85.5511206 C905.017035,85.1569203 906.660789,84.1428324 907.044632,84.5370328 C907.429981,84.9342423 906.434998,86.592291 906.040618,86.9879959 L906.040618,86.9879959 L906.040618,86.9879959 Z M909.999476,88.5843568 C909.445537,88.5813476 908.999977,88.1284686 909.002988,87.5747827 L909.002988,87.5717735 C909.002988,87.0150784 909.451558,85.1223149 909.999476,85.1223149 C910.547394,85.1223149 911.004996,87.0150784 911.004996,87.5717735 C911.009511,88.1254595 910.563952,88.5813476 910.010013,88.5843568 L909.999476,88.5843568 L909.999476,88.5843568 L909.999476,88.5843568 Z M915.376297,86.9879959 C914.987938,87.3791871 914.35723,87.3821962 913.96586,86.9970234 C913.96285,86.9925096 913.961344,86.9910051 913.956829,86.9879959 C913.57148,86.5907864 912.56596,84.9342423 912.96034,84.5370328 C913.354721,84.1428324 914.981917,85.1569203 915.374792,85.5511206 C915.761646,85.9543485 915.761646,86.5877772 915.376297,86.9879959 L915.376297,86.9879959 L915.376297,86.9879959 Z" id="Shape" fill="#FFFFFF"></path>
                    </g>
                    <text id="Selecciona-la-ciudad" font-family="SourceSansPro-Light, Source Sans Pro" font-size="18" font-weight="300" fill="#033B71">
                        <tspan x="23.12" y="205">Selecciona la</tspan>
                        <tspan x="43.955" y="228">ciudad.</tspan>
                    </text>
                    <text id="1" font-family="SourceSansPro-Semibold, Source Sans Pro" font-size="24" font-weight="500" fill="#F8BA45">
                        <tspan x="64.344" y="182">1</tspan>
                    </text>
                    <text id="Agenda-el-día-que-qu" font-family="SourceSansPro-Light, Source Sans Pro" font-size="18" font-weight="300" fill="#033B71">
                        <tspan x="194.772" y="287">Agenda el día que </tspan>
                        <tspan x="193.98" y="310">quieras tenerlo en </tspan>
                        <tspan x="228.441" y="333">tu mesa.</tspan>
                    </text>
                    <text id="2" font-family="SourceSansPro-Semibold, Source Sans Pro" font-size="24" font-weight="500" fill="#F8BA45">
                        <tspan x="253.344" y="264">2</tspan>
                    </text>
                    <text id="Escoge-el-platillo-d" font-family="SourceSansPro-Light, Source Sans Pro" font-size="18" font-weight="300" fill="#033B71">
                        <tspan x="430.464" y="223">Escoge el platillo de</tspan>
                        <tspan x="471.117" y="246">tu gusto.</tspan>
                    </text>
                    <text id="3" font-family="SourceSansPro-Semibold, Source Sans Pro" font-size="24" font-weight="500" fill="#F8BA45">
                        <tspan x="496.344" y="200">3</tspan>
                    </text>
                    <text id="Realiza-el-pago-de-f" font-family="SourceSansPro-Light, Source Sans Pro" font-size="18" font-weight="300" fill="#033B71">
                        <tspan x="627.164" y="289">Realiza el pago de</tspan>
                        <tspan x="642.428" y="312">forma segura.</tspan>
                    </text>
                    <text id="4" font-family="SourceSansPro-Semibold, Source Sans Pro" font-size="24" font-weight="500" fill="#F8BA45">
                        <tspan x="685.344" y="266">4</tspan>
                    </text>
                    <text id="Toma-contacto-con-tu" font-family="SourceSansPro-Light, Source Sans Pro" font-size="18" font-weight="300" fill="#033B71">
                        <tspan x="820.196" y="234">Toma contacto con</tspan>
                        <tspan x="830.375" y="257">tu chef de turno.</tspan>
                    </text>
                    <text id="5" font-family="SourceSansPro-Semibold, Source Sans Pro" font-size="24" font-weight="500" fill="#F8BA45">
                        <tspan x="883.344" y="211">5</tspan>
                    </text>
                </g>
            </g>
        </g>
    </g>
</svg>