<?xml version="1.0" encoding="UTF-8" standalone="no"?>
<svg width="566px" height="330px" viewBox="0 0 566 330" version="1.1" xmlns="http://www.w3.org/2000/svg" xmlns:xlink="http://www.w3.org/1999/xlink">
    <!-- Generator: Sketch 3.8.3 (29802) - http://www.bohemiancoding.com/sketch -->
    <title>Page 1</title>
    <desc>Created with Sketch.</desc>
    <defs></defs>
    <g id="Page-1" stroke="none" stroke-width="1" fill="none" fill-rule="evenodd">
        <g id="iPad-Pro-Portrait" transform="translate(-229.000000, -518.000000)">
            <g id="Page-1" transform="translate(229.000000, 518.000000)">
                <path d="M263.8404,298.3424 C259.8244,300.4904 256.4624,301.3304 252.1674,301.3304 C240.8674,301.3304 233.6774,293.7664 233.6774,282.0004 C233.6774,268.3654 244.3224,256.7864 260.8524,256.7864 C262.9994,256.7864 265.4274,257.0674 268.0424,257.5334 L267.0154,264.5374 C264.8674,264.0704 262.9054,263.8834 260.9444,263.8834 C249.2734,263.8834 241.8024,272.6624 241.8024,281.5334 C241.8024,289.4714 246.1914,294.2334 253.2874,294.2334 C257.4904,294.2334 260.8524,293.0204 264.7744,290.6844 L263.8404,298.3424 Z" id="Fill-1" fill="#00519E"></path>
                <path d="M286.2545,294.5142 C292.8845,294.5142 298.3005,286.2012 298.3005,274.6232 C298.3005,267.6192 295.4055,263.0432 290.8295,263.0432 C284.0135,263.0432 278.8765,272.7542 278.8765,283.4012 C278.8765,290.1252 282.1455,294.5142 286.2545,294.5142 M286.5345,301.3302 C276.6365,301.3302 270.7525,294.3272 270.7525,282.5612 C270.7525,267.8992 279.4375,256.7862 290.8295,256.7862 C300.3555,256.7862 306.4255,264.0712 306.4255,275.0902 C306.4255,290.7782 297.5545,301.3302 286.5345,301.3302" id="Fill-3" fill="#00519E"></path>
                <path d="M324.8238,265.4713 L325.0108,265.6583 C329.5868,260.0553 334.2558,257.4403 338.9258,257.4403 C347.7968,257.4403 350.0378,266.6863 348.9178,273.5963 L344.9018,300.0243 L337.0568,300.0243 L340.8858,273.3153 C341.9138,266.0323 338.7378,263.9773 336.3098,263.9773 C334.0688,263.9773 329.6808,265.5653 323.7038,273.3153 L319.8748,300.0243 L312.0308,300.0243 L317.9138,258.0943 L325.8508,258.0943 L324.8238,265.4713 Z" id="Fill-5" fill="#00519E"></path>
                <path d="M383.191,269.4869 C378.429,265.8439 374.04,263.9769 370.585,263.9769 C367.316,263.9769 364.888,265.9379 364.888,268.3659 C364.888,274.3429 381.604,277.2369 381.604,288.8169 C381.604,296.3819 376.001,301.3309 368.624,301.3309 C363.394,301.3309 360.033,300.0239 354.056,295.8209 L355.457,288.1649 C360.966,292.5529 364.982,294.4209 368.343,294.4209 C371.518,294.4209 373.759,292.4599 373.759,289.7509 C373.759,282.7469 357.324,280.2249 357.324,268.8329 C357.324,261.6429 362.461,256.7869 370.492,256.7869 C374.881,256.7869 379.269,258.4669 383.191,261.1759 L383.191,269.4869 Z" id="Fill-7" fill="#00519E"></path>
                <path d="M420.8258,300.024 L412.9818,300.024 L413.9158,293.114 L413.7288,292.926 C410.4608,296.381 405.6048,300.676 399.9078,300.676 C395.2388,300.676 388.4218,297.315 390.0098,285.735 L393.9308,258.094 L401.8688,258.094 L397.9468,285.735 C396.9198,293.206 400.2818,294.608 402.4298,294.608 C405.5118,294.608 409.3398,292.178 415.0368,285.362 L418.8648,258.094 L426.8028,258.094 L420.8258,300.024 Z" id="Fill-9" fill="#00519E"></path>
                <path d="M444.734,265.3775 L444.921,265.5645 C450.057,259.7745 454.726,257.4405 459.396,257.4405 C462.851,257.4405 467.8,259.2155 468.92,266.8715 C474.991,259.4005 480.501,257.4405 484.609,257.4405 C490.679,257.4405 495.815,262.0165 494.228,272.8485 L490.399,300.0235 L482.462,300.0235 L486.383,272.4755 C487.224,266.9655 485.543,263.6975 482.088,263.6975 C479.287,263.6975 474.711,265.7525 468.92,273.4085 L465.091,300.0235 L457.154,300.0235 L460.89,273.5025 C461.824,267.4325 460.703,263.6975 456.22,263.6975 C453.138,263.6975 448.003,267.5255 443.614,273.4085 L439.879,300.0235 L431.941,300.0235 L437.918,258.0945 L445.855,258.0945 L444.734,265.3775 Z" id="Fill-11" fill="#00519E"></path>
                <path d="M517.857,294.5142 C524.488,294.5142 529.904,286.2012 529.904,274.6232 C529.904,267.6192 527.009,263.0432 522.433,263.0432 C515.616,263.0432 510.48,272.7542 510.48,283.4012 C510.48,290.1252 513.749,294.5142 517.857,294.5142 M518.137,301.3302 C508.239,301.3302 502.355,294.3272 502.355,282.5612 C502.355,267.8992 511.041,256.7862 522.433,256.7862 C531.959,256.7862 538.028,264.0712 538.028,275.0902 C538.028,290.7782 529.157,301.3302 518.137,301.3302" id="Fill-13" fill="#00519E"></path>
                <path d="M396.9235,91.8101 L387.1015,91.8101 C331.5075,91.8101 315.2025,129.9191 315.2025,155.4561 C315.2025,179.8161 328.9535,195.5321 350.3665,195.5321 C361.7595,195.5321 378.4565,188.6561 390.4405,179.0301 L387.4935,200.6391 C374.1355,208.2991 359.9915,212.4251 347.8125,212.4251 C317.3635,212.4251 296.1485,189.4421 296.1485,156.6361 C296.1485,109.8821 330.7225,74.9151 387.6905,74.9151 L400.4585,74.9151 L396.9235,91.8101 Z" id="Fill-15" fill="#F5B019"></path>
                <path d="M432.8727,94.7574 C432.8727,100.0604 428.5507,104.3824 423.2467,104.3824 C417.9427,104.3824 413.6207,100.0604 413.6207,94.7574 C413.6207,89.4524 417.9427,85.1304 423.2467,85.1304 C428.5507,85.1304 432.8727,89.4524 432.8727,94.7574 L432.8727,94.7574 Z M416.1757,210.6564 L399.4767,210.6564 L411.8527,122.4544 L428.5507,122.4544 L416.1757,210.6564 Z" id="Fill-17" fill="#F5B019"></path>
                <path d="M486.107,135.4195 L468.427,135.4195 L459.98,183.7445 C458.016,194.9425 460.57,198.4785 468.624,198.4785 C473.535,198.4785 477.463,197.2995 484.732,193.1745 L483.75,209.4795 C476.677,212.4255 471.963,213.4065 465.48,213.4065 C448.194,213.4065 440.14,202.4065 442.498,188.8525 L451.73,135.4195 L436.211,135.4195 L438.175,122.4545 L454.284,122.4545 L457.623,104.3825 L474.125,104.3825 L470.981,122.4545 L487.875,122.4545 L486.107,135.4195 Z" id="Fill-19" fill="#00519E"></path>
                <polygon id="Fill-21" fill="#00519E" points="502.4117 255.8385 484.7317 255.8385 508.6967 205.3545 491.6067 122.4545 508.3047 122.4545 520.0917 183.1545 520.4837 183.1545 548.1827 122.4545 565.6657 122.4545"></polygon>
                <g id="Group-25" transform="translate(0.000000, 11.108000)" fill="#F5B019">
                    <path d="M100.1979,72.5371 C95.8409,76.0351 89.5019,75.3501 86.0149,70.9551 C82.5339,66.5681 83.2679,60.1891 87.6469,56.7151 C92.0289,53.2381 98.4009,53.9801 101.8839,58.3691 C105.3679,62.7601 104.5799,69.0601 100.1979,72.5371 M102.4749,30.3571 L100.0449,42.8611 C100.0449,42.8611 72.6489,36.1271 68.3289,64.1971 L55.8439,61.6561 C55.8439,61.6561 57.6959,19.5661 102.4749,30.3571 M210.5729,18.1461 C177.6529,-0.1699 140.5489,-3.9529 106.6869,4.6851 L104.4679,16.5231 C104.4679,16.5231 89.5519,12.8361 74.2069,17.3711 C66.7559,21.3961 59.6419,26.1091 52.9619,31.4711 C47.9659,37.7951 44.0799,46.4511 42.2899,58.2641 L29.3449,55.6351 C25.1769,61.0821 21.3479,66.8921 17.9189,73.0681 C-20.1461,141.4881 4.4229,227.6681 72.7829,265.8451 C111.9939,287.5051 157.0869,288.7261 195.6419,272.9111 L235.9969,319.0001 C235.9969,319.0001 227.3959,288.9701 218.6859,261.0031 C237.4759,248.7991 253.7979,231.9201 265.5839,210.7341 C303.6199,142.6111 279.1009,56.1601 210.5729,18.1461" id="Fill-23"></path>
                </g>
                <path d="M186.6188,137.0025 C181.6238,149.8075 180.6958,172.1965 181.4338,188.5705 C164.5148,188.5705 151.6368,188.5585 139.4398,188.5515 C128.6918,188.5375 118.4808,188.5305 106.5048,188.5305 C106.4908,173.7775 106.2288,146.9755 101.2898,136.6585 C100.9278,135.9045 100.2008,135.4025 99.3688,135.3325 C83.4968,133.9945 71.5278,122.4415 71.5278,108.4635 C71.5278,93.5765 85.3578,81.4655 102.3558,81.4655 C106.2838,81.4655 110.1158,82.1065 113.7468,83.3735 C114.0008,83.4615 114.2618,83.5065 114.5188,83.5065 C115.3478,83.5065 116.1388,83.0675 116.5648,82.3095 C121.8028,73.0025 132.4068,67.2185 144.2348,67.2185 C156.0828,67.2185 166.6918,73.0185 171.9268,82.3505 C172.3498,83.1075 173.1408,83.5515 173.9728,83.5515 C174.2228,83.5515 174.4748,83.5105 174.7208,83.4265 C178.2548,82.2395 181.9688,81.6365 185.7648,81.6365 C202.7678,81.6365 216.5978,93.7485 216.5978,108.6355 C216.5978,122.6745 204.5678,134.2315 188.6178,135.5175 C187.7228,135.5865 186.9478,136.1665 186.6188,137.0025 M191.8888,70.7795 C187.8208,70.7795 183.8248,71.3415 179.9778,72.4455 C173.0738,61.5865 160.3108,54.9145 146.1938,54.9145 C132.1058,54.9145 119.3608,61.5615 112.4438,72.3805 C108.4678,71.1935 104.3268,70.5905 100.1128,70.5905 C78.6858,70.5905 61.2568,86.1295 61.2568,105.2295 C61.2568,122.7735 75.6698,137.3185 95.0088,139.5685 C99.7448,151.5415 99.7448,182.4605 99.7448,195.9205 C99.7448,197.2155 100.7948,198.2695 102.0918,198.2695 C116.4008,198.2695 128.3268,198.2755 140.9108,198.2875 C154.9788,198.3015 169.8718,198.3135 189.8388,198.3135 C190.4858,198.3135 191.1008,198.0455 191.5468,197.5725 C191.9878,197.1065 192.2188,196.4745 192.1808,195.8295 C191.1218,177.3785 192.2078,153.2475 196.9278,139.7625 C216.3128,137.5485 230.7468,123.0125 230.7468,105.4175 C230.7468,86.3185 213.3148,70.7795 191.8888,70.7795" id="Fill-26" fill="#FEFEFE"></path>
                <path d="M220.4674,229.3619 C221.1544,229.3619 221.7124,228.8029 221.7124,228.1179 C221.7124,227.4319 221.1544,226.8729 220.4674,226.8729 L193.2504,226.8729 L193.2444,226.8729 L189.3624,226.8729 L189.3544,226.8729 C189.3544,226.8729 187.6234,226.9029 187.6234,225.2289 C187.6234,224.3179 188.4024,223.5789 189.3624,223.5789 L191.0784,223.5789 L220.2644,223.5789 C220.9504,223.5789 221.5064,223.0209 221.5064,222.3349 C221.5064,221.6459 220.9504,221.0909 220.2644,221.0909 L191.1554,221.0909 L191.1554,221.0889 L189.4914,221.0889 C188.5314,221.0889 187.7544,220.3189 187.7544,219.3699 C187.7544,218.4219 188.5314,217.6509 189.4914,217.6509 L193.3694,217.6509 C193.3794,217.6509 193.3894,217.6539 193.4014,217.6539 L220.3914,217.6539 C221.0764,217.6539 221.6334,217.0979 221.6334,216.4109 C221.6334,215.7229 221.0764,215.1669 220.3914,215.1669 L193.2094,215.1669 C193.1944,215.1689 193.1774,215.1739 193.1594,215.1739 L189.0014,215.1739 C187.9744,215.1739 187.1404,214.4109 187.1404,213.4739 C187.1404,212.5549 187.9384,211.8109 188.9364,211.7769 C188.9364,211.7769 188.9344,211.7759 188.9334,211.7719 L188.9854,211.7719 L189.0014,211.7719 L193.1594,211.7719 L193.1774,211.7719 L220.3544,211.7719 C221.0394,211.7719 221.5984,211.2159 221.5984,210.5319 C221.5984,209.8449 221.0394,209.2879 220.3544,209.2879 L181.4554,209.2879 C181.4104,209.2879 181.3694,209.2969 181.3244,209.3009 C181.1814,209.2969 181.0394,209.2879 180.8924,209.2879 L180.3854,209.2879 C174.7174,209.2879 170.1204,212.2199 170.1204,215.8419 L170.1204,215.9579 L77.1784,213.4989 C76.9764,213.4809 76.7724,213.4669 76.5634,213.4669 C73.3014,213.4669 70.6564,216.1139 70.6564,219.3759 C70.6564,222.5659 73.1944,225.1629 76.3624,225.2719 C76.3714,225.2719 76.3834,225.2739 76.3934,225.2739 L76.4514,225.2739 C76.4884,225.2739 76.5254,225.2789 76.5634,225.2789 C76.6814,225.2789 76.7994,225.2689 76.9184,225.2599 L170.1204,222.7999 L170.1204,222.8109 C170.1204,226.4279 174.7174,229.3619 180.3854,229.3619 L180.8924,229.3619 C181.0634,229.3619 181.2294,229.3519 181.4014,229.3459 C181.4564,229.3539 181.5114,229.3619 181.5694,229.3619 L220.4674,229.3619 Z" id="Fill-28" fill="#FEFEFE"></path>
                <path d="M102.5592,232.7388 C88.9592,232.7388 70.5932,240.8808 70.5932,250.9248 C70.5932,260.9678 88.9592,269.1088 102.5592,269.1088 C114.2502,269.1088 120.7902,261.4638 122.3972,254.3378 L215.4712,256.7978 C215.6412,256.8108 215.8112,256.8228 215.9852,256.8228 C219.2502,256.8228 221.9012,254.1758 221.9012,250.9108 C221.9012,247.6428 219.2502,244.9968 215.9852,244.9968 C215.7472,244.9968 215.5122,245.0138 215.2802,245.0438 L122.4152,247.4968 C120.8382,240.2188 114.2932,232.7388 102.5592,232.7388" id="Fill-30" fill="#FEFEFE"></path>
                <path d="M9.6295,62.7388 L21.0595,65.4458 L33.9125,68.4868 C36.0785,56.7408 40.2405,48.2118 45.4385,42.0518 C52.2855,36.9068 59.5475,32.4228 67.1235,28.6388 C82.6075,24.5998 97.3965,28.7618 97.3965,28.7618 L99.9935,17.0028 L102.7815,4.3738 C15.8245,-19.5912 9.6295,62.7388 9.6295,62.7388" id="Fill-32" fill="#00519E"></path>
                <path d="M92.1315,54.9459 L94.9615,42.5259 C50.5515,30.3029 47.3505,72.3149 47.3505,72.3149 L59.7475,75.2529 C64.9655,47.3369 92.1315,54.9459 92.1315,54.9459" id="Fill-34" fill="#00519E"></path>
                <path d="M79.2955,68.3951 C74.8075,71.7251 73.8695,78.0791 77.2075,82.5771 C80.5525,87.0791 86.8655,87.9691 91.3325,84.6121 C95.8215,81.2761 96.8125,75.0061 93.4705,70.5041 C90.1315,66.0041 83.7865,65.0611 79.2955,68.3951" id="Fill-36" fill="#00519E"></path>
            </g>
        </g>
    </g>
</svg>