<svg width="100%" height="auto" viewBox="0 0 285 330" version="1.1" xmlns="http://www.w3.org/2000/svg" xmlns:xlink="http://www.w3.org/1999/xlink">
    <g id="Page-1" stroke="none" stroke-width="1" fill="none" fill-rule="evenodd">
        <g id="iPad-Pro-Portrait" transform="translate(-229.000000, -518.000000)">
            <g id="Page-1" transform="translate(229.000000, 518.000000)">
                <g id="Group-25" transform="translate(0.000000, 11.108000)" fill="#F5B019">
                    <path d="M100.1979,72.5371 C95.8409,76.0351 89.5019,75.3501 86.0149,70.9551 C82.5339,66.5681 83.2679,60.1891 87.6469,56.7151 C92.0289,53.2381 98.4009,53.9801 101.8839,58.3691 C105.3679,62.7601 104.5799,69.0601 100.1979,72.5371 M102.4749,30.3571 L100.0449,42.8611 C100.0449,42.8611 72.6489,36.1271 68.3289,64.1971 L55.8439,61.6561 C55.8439,61.6561 57.6959,19.5661 102.4749,30.3571 M210.5729,18.1461 C177.6529,-0.1699 140.5489,-3.9529 106.6869,4.6851 L104.4679,16.5231 C104.4679,16.5231 89.5519,12.8361 74.2069,17.3711 C66.7559,21.3961 59.6419,26.1091 52.9619,31.4711 C47.9659,37.7951 44.0799,46.4511 42.2899,58.2641 L29.3449,55.6351 C25.1769,61.0821 21.3479,66.8921 17.9189,73.0681 C-20.1461,141.4881 4.4229,227.6681 72.7829,265.8451 C111.9939,287.5051 157.0869,288.7261 195.6419,272.9111 L235.9969,319.0001 C235.9969,319.0001 227.3959,288.9701 218.6859,261.0031 C237.4759,248.7991 253.7979,231.9201 265.5839,210.7341 C303.6199,142.6111 279.1009,56.1601 210.5729,18.1461" id="Fill-23"></path>
                </g>
                <path d="M186.6188,137.0025 C181.6238,149.8075 180.6958,172.1965 181.4338,188.5705 C164.5148,188.5705 151.6368,188.5585 139.4398,188.5515 C128.6918,188.5375 118.4808,188.5305 106.5048,188.5305 C106.4908,173.7775 106.2288,146.9755 101.2898,136.6585 C100.9278,135.9045 100.2008,135.4025 99.3688,135.3325 C83.4968,133.9945 71.5278,122.4415 71.5278,108.4635 C71.5278,93.5765 85.3578,81.4655 102.3558,81.4655 C106.2838,81.4655 110.1158,82.1065 113.7468,83.3735 C114.0008,83.4615 114.2618,83.5065 114.5188,83.5065 C115.3478,83.5065 116.1388,83.0675 116.5648,82.3095 C121.8028,73.0025 132.4068,67.2185 144.2348,67.2185 C156.0828,67.2185 166.6918,73.0185 171.9268,82.3505 C172.3498,83.1075 173.1408,83.5515 173.9728,83.5515 C174.2228,83.5515 174.4748,83.5105 174.7208,83.4265 C178.2548,82.2395 181.9688,81.6365 185.7648,81.6365 C202.7678,81.6365 216.5978,93.7485 216.5978,108.6355 C216.5978,122.6745 204.5678,134.2315 188.6178,135.5175 C187.7228,135.5865 186.9478,136.1665 186.6188,137.0025 M191.8888,70.7795 C187.8208,70.7795 183.8248,71.3415 179.9778,72.4455 C173.0738,61.5865 160.3108,54.9145 146.1938,54.9145 C132.1058,54.9145 119.3608,61.5615 112.4438,72.3805 C108.4678,71.1935 104.3268,70.5905 100.1128,70.5905 C78.6858,70.5905 61.2568,86.1295 61.2568,105.2295 C61.2568,122.7735 75.6698,137.3185 95.0088,139.5685 C99.7448,151.5415 99.7448,182.4605 99.7448,195.9205 C99.7448,197.2155 100.7948,198.2695 102.0918,198.2695 C116.4008,198.2695 128.3268,198.2755 140.9108,198.2875 C154.9788,198.3015 169.8718,198.3135 189.8388,198.3135 C190.4858,198.3135 191.1008,198.0455 191.5468,197.5725 C191.9878,197.1065 192.2188,196.4745 192.1808,195.8295 C191.1218,177.3785 192.2078,153.2475 196.9278,139.7625 C216.3128,137.5485 230.7468,123.0125 230.7468,105.4175 C230.7468,86.3185 213.3148,70.7795 191.8888,70.7795" id="Fill-26" fill="#FEFEFE"></path>
                <path d="M220.4674,229.3619 C221.1544,229.3619 221.7124,228.8029 221.7124,228.1179 C221.7124,227.4319 221.1544,226.8729 220.4674,226.8729 L193.2504,226.8729 L193.2444,226.8729 L189.3624,226.8729 L189.3544,226.8729 C189.3544,226.8729 187.6234,226.9029 187.6234,225.2289 C187.6234,224.3179 188.4024,223.5789 189.3624,223.5789 L191.0784,223.5789 L220.2644,223.5789 C220.9504,223.5789 221.5064,223.0209 221.5064,222.3349 C221.5064,221.6459 220.9504,221.0909 220.2644,221.0909 L191.1554,221.0909 L191.1554,221.0889 L189.4914,221.0889 C188.5314,221.0889 187.7544,220.3189 187.7544,219.3699 C187.7544,218.4219 188.5314,217.6509 189.4914,217.6509 L193.3694,217.6509 C193.3794,217.6509 193.3894,217.6539 193.4014,217.6539 L220.3914,217.6539 C221.0764,217.6539 221.6334,217.0979 221.6334,216.4109 C221.6334,215.7229 221.0764,215.1669 220.3914,215.1669 L193.2094,215.1669 C193.1944,215.1689 193.1774,215.1739 193.1594,215.1739 L189.0014,215.1739 C187.9744,215.1739 187.1404,214.4109 187.1404,213.4739 C187.1404,212.5549 187.9384,211.8109 188.9364,211.7769 C188.9364,211.7769 188.9344,211.7759 188.9334,211.7719 L188.9854,211.7719 L189.0014,211.7719 L193.1594,211.7719 L193.1774,211.7719 L220.3544,211.7719 C221.0394,211.7719 221.5984,211.2159 221.5984,210.5319 C221.5984,209.8449 221.0394,209.2879 220.3544,209.2879 L181.4554,209.2879 C181.4104,209.2879 181.3694,209.2969 181.3244,209.3009 C181.1814,209.2969 181.0394,209.2879 180.8924,209.2879 L180.3854,209.2879 C174.7174,209.2879 170.1204,212.2199 170.1204,215.8419 L170.1204,215.9579 L77.1784,213.4989 C76.9764,213.4809 76.7724,213.4669 76.5634,213.4669 C73.3014,213.4669 70.6564,216.1139 70.6564,219.3759 C70.6564,222.5659 73.1944,225.1629 76.3624,225.2719 C76.3714,225.2719 76.3834,225.2739 76.3934,225.2739 L76.4514,225.2739 C76.4884,225.2739 76.5254,225.2789 76.5634,225.2789 C76.6814,225.2789 76.7994,225.2689 76.9184,225.2599 L170.1204,222.7999 L170.1204,222.8109 C170.1204,226.4279 174.7174,229.3619 180.3854,229.3619 L180.8924,229.3619 C181.0634,229.3619 181.2294,229.3519 181.4014,229.3459 C181.4564,229.3539 181.5114,229.3619 181.5694,229.3619 L220.4674,229.3619 Z" id="Fill-28" fill="#FEFEFE"></path>
                <path d="M102.5592,232.7388 C88.9592,232.7388 70.5932,240.8808 70.5932,250.9248 C70.5932,260.9678 88.9592,269.1088 102.5592,269.1088 C114.2502,269.1088 120.7902,261.4638 122.3972,254.3378 L215.4712,256.7978 C215.6412,256.8108 215.8112,256.8228 215.9852,256.8228 C219.2502,256.8228 221.9012,254.1758 221.9012,250.9108 C221.9012,247.6428 219.2502,244.9968 215.9852,244.9968 C215.7472,244.9968 215.5122,245.0138 215.2802,245.0438 L122.4152,247.4968 C120.8382,240.2188 114.2932,232.7388 102.5592,232.7388" id="Fill-30" fill="#FEFEFE"></path>
                <path d="M9.6295,62.7388 L21.0595,65.4458 L33.9125,68.4868 C36.0785,56.7408 40.2405,48.2118 45.4385,42.0518 C52.2855,36.9068 59.5475,32.4228 67.1235,28.6388 C82.6075,24.5998 97.3965,28.7618 97.3965,28.7618 L99.9935,17.0028 L102.7815,4.3738 C15.8245,-19.5912 9.6295,62.7388 9.6295,62.7388" id="Fill-32" fill="#00519E"></path>
                <path d="M92.1315,54.9459 L94.9615,42.5259 C50.5515,30.3029 47.3505,72.3149 47.3505,72.3149 L59.7475,75.2529 C64.9655,47.3369 92.1315,54.9459 92.1315,54.9459" id="Fill-34" fill="#00519E"></path>
                <path d="M79.2955,68.3951 C74.8075,71.7251 73.8695,78.0791 77.2075,82.5771 C80.5525,87.0791 86.8655,87.9691 91.3325,84.6121 C95.8215,81.2761 96.8125,75.0061 93.4705,70.5041 C90.1315,66.0041 83.7865,65.0611 79.2955,68.3951" id="Fill-36" fill="#00519E"></path>
            </g>
        </g>
    </g>
</svg>