<?xml version="1.0" encoding="utf-8"?>
<!-- Generator: Adobe Illustrator 16.0.0, SVG Export Plug-In . SVG Version: 6.00 Build 0)  -->
<!DOCTYPE svg PUBLIC "-//W3C//DTD SVG 1.1//EN" "http://www.w3.org/Graphics/SVG/1.1/DTD/svg11.dtd">
<svg version="1.1" id="Layer_1" xmlns="http://www.w3.org/2000/svg" xmlns:xlink="http://www.w3.org/1999/xlink" x="0px" y="0px"
	 width="80px" height="80px" viewBox="0 0 80 80" enable-background="new 0 0 80 80" xml:space="preserve">
<g>
	<g>
		<path fill="#EFA53B" d="M73.771,35.929c-0.002-0.056-0.002-0.115-0.004-0.171C73.211,17.622,58.343,3.089,40.072,3.089
			c-18.625,0-33.721,15.097-33.721,33.721c0,18.625,15.097,33.72,33.721,33.72c4.683,0,9.141-0.954,13.192-2.68l9.388,10.719
			c0,0-2.015-7.03-4.056-13.587c1.095-0.721,2.146-1.503,3.146-2.343c0.065-0.057,0.13-0.113,0.194-0.169
			c0.353-0.3,0.698-0.603,1.036-0.917c0.256-0.237,0.508-0.478,0.76-0.723c0.117-0.118,0.237-0.236,0.355-0.357
			c2.103-2.119,3.972-4.552,5.505-7.307c2.847-5.098,4.193-10.636,4.193-16.102c0.001-0.085,0.007-0.17,0.007-0.255
			C73.794,36.514,73.779,36.222,73.771,35.929 M60.622,47.461c0,2.759-2.241,5-5,5H24.731c-2.76,0-5.002-2.241-5.002-5v-21.12
			c0-2.757,2.243-5,5.002-5h30.9c2.757,0,5.001,2.251,4.99,5.01V47.461z"/>
		<path fill="#EFA53B" d="M58.339,26.351c0-1.498-1.219-2.716-2.717-2.716H24.73c-1.498,0-2.716,1.218-2.716,2.716v21.11
			c0,1.496,1.218,2.716,2.716,2.716h30.9c1.499,0,2.717-1.22,2.717-2.716h-0.009V26.351z M55.605,47.791
			c-0.229,0.236-0.524,0.355-0.83,0.355c-0.279,0-0.566-0.102-0.785-0.313L43.818,38.17l-2.851,2.556
			c-0.212,0.194-0.491,0.295-0.762,0.295c-0.271,0-0.541-0.093-0.763-0.288l-2.775-2.478l-10.229,9.568
			c-0.219,0.203-0.499,0.307-0.778,0.307c-0.306,0-0.61-0.128-0.836-0.364c-0.432-0.467-0.407-1.184,0.05-1.617l10.078-9.434
			L24.831,27.67c-0.472-0.423-0.515-1.142-0.092-1.616c0.423-0.474,1.142-0.516,1.616-0.094l10.948,9.799
			c0.068,0.05,0.128,0.102,0.188,0.16c0,0.009,0.008,0.017,0.016,0.025l2.69,2.404L53.99,25.969c0.474-0.423,1.192-0.38,1.615,0.085
			c0.424,0.474,0.38,1.193-0.084,1.616l-10.003,8.968l10.046,9.538C56.021,46.607,56.037,47.333,55.605,47.791"/>
	</g>
</g>
</svg>
