<?xml version="1.0" encoding="utf-8"?>
<!-- Generator: Adobe Illustrator 16.0.0, SVG Export Plug-In . SVG Version: 6.00 Build 0)  -->
<!DOCTYPE svg PUBLIC "-//W3C//DTD SVG 1.1//EN" "http://www.w3.org/Graphics/SVG/1.1/DTD/svg11.dtd">
<svg version="1.1" id="Layer_1" xmlns="http://www.w3.org/2000/svg" xmlns:xlink="http://www.w3.org/1999/xlink" x="0px" y="0px"
	 width="80px" height="80px" viewBox="0 0 80 80" enable-background="new 0 0 80 80" xml:space="preserve">
<g>
	<g>
		<path fill="#EFA53B" d="M73.706,35.927c-0.002-0.057-0.002-0.114-0.003-0.17c-0.558-18.136-15.424-32.67-33.694-32.67
			c-18.625,0-33.723,15.098-33.723,33.721c0,18.625,15.098,33.722,33.723,33.722c4.681,0,9.14-0.954,13.192-2.68l9.386,10.719
			c0,0-2.016-7.03-4.055-13.585c1.094-0.723,2.146-1.505,3.146-2.345c0.065-0.057,0.128-0.116,0.195-0.169
			c0.351-0.3,0.695-0.604,1.034-0.917c0.257-0.237,0.509-0.479,0.759-0.725c0.121-0.118,0.24-0.236,0.356-0.355
			c2.104-2.12,3.973-4.552,5.505-7.305c2.848-5.102,4.194-10.638,4.194-16.106c0.002-0.085,0.007-0.168,0.007-0.255
			C73.729,36.513,73.714,36.221,73.706,35.927 M58.525,51.505l-1.661,1.63l-0.036-0.032c-0.703,0.548-1.513,1.007-2.378,1.346
			c-0.806,0.313-1.599,0.51-2.425,0.609c-0.38,0.04-9.184,0.866-20.11-10.06C24.012,37.095,21.1,31.27,21.868,24.897
			c0.089-0.795,0.286-1.588,0.602-2.42c0.341-0.872,0.801-1.682,1.353-2.385l-0.045-0.043l1.64-1.651
			c1.202-1.201,3.122-1.237,4.28-0.08l5.822,5.824c1.156,1.158,1.123,3.078-0.079,4.28l-0.967,0.969l-1.97,1.966
			c0.103,0.18,0.208,0.368,0.317,0.565c1.029,1.854,2.437,4.392,5.113,7.067c2.667,2.669,5.202,4.077,7.054,5.104
			c0.202,0.111,0.395,0.219,0.58,0.322l2.933-2.934c1.2-1.2,3.12-1.236,4.28-0.079l5.822,5.822
			C59.76,48.384,59.726,50.303,58.525,51.505"/>
	</g>
</g>
</svg>
