<?xml version="1.0" encoding="utf-8"?>
<!-- Generator: Adobe Illustrator 16.0.0, SVG Export Plug-In . SVG Version: 6.00 Build 0)  -->
<!DOCTYPE svg PUBLIC "-//W3C//DTD SVG 1.1//EN" "http://www.w3.org/Graphics/SVG/1.1/DTD/svg11.dtd">
<svg version="1.1" id="Layer_1" xmlns="http://www.w3.org/2000/svg" xmlns:xlink="http://www.w3.org/1999/xlink" x="0px" y="0px"
	 width="80px" height="80px" viewBox="0 0 80 80" enable-background="new 0 0 80 80" xml:space="preserve">
<g>
	<path fill="#EFA53B" d="M40.884,19.218c-3.48,0-6.752,1.356-9.214,3.817c-4.591,4.589-5.157,13.229-1.212,18.489l10.426,15.054
		l10.408-15.031c3.963-5.283,3.397-13.922-1.193-18.511C47.638,20.575,44.364,19.218,40.884,19.218 M41.019,37.426
		c-2.929,0-5.311-2.382-5.311-5.311c0-2.927,2.382-5.311,5.311-5.311c2.928,0,5.31,2.384,5.31,5.311
		C46.328,35.044,43.946,37.426,41.019,37.426"/>
	<path fill="#EFA53B" d="M41.019,28.322c-2.092,0-3.795,1.703-3.795,3.794s1.703,3.792,3.795,3.792c2.091,0,3.794-1.701,3.794-3.792
		S43.109,28.322,41.019,28.322"/>
	<path fill="#EFA53B" d="M73.687,35.93c-0.003-0.057-0.003-0.115-0.005-0.171C73.125,17.624,58.258,3.09,39.988,3.09
		c-18.624,0-33.721,15.097-33.721,33.721c0,18.623,15.098,33.719,33.721,33.719c4.682,0,9.141-0.954,13.193-2.68l9.385,10.719
		c0,0-2.015-7.03-4.055-13.585c1.095-0.723,2.147-1.504,3.146-2.345c0.066-0.055,0.13-0.114,0.196-0.169
		c0.351-0.298,0.696-0.603,1.033-0.915c0.258-0.237,0.509-0.479,0.762-0.725c0.117-0.116,0.237-0.236,0.354-0.357
		c2.104-2.119,3.972-4.552,5.504-7.305c2.849-5.1,4.195-10.636,4.196-16.103c0-0.085,0.006-0.17,0.006-0.254
		C73.709,36.514,73.693,36.223,73.687,35.93 M52.523,42.434l-11.64,16.812L29.228,42.409c-4.35-5.795-3.717-15.362,1.368-20.446
		c2.749-2.749,6.401-4.263,10.288-4.263c3.886,0,7.539,1.514,10.288,4.263C56.258,27.047,56.889,36.614,52.523,42.434"/>
</g>
</svg>
