<?xml version="1.0" encoding="utf-8"?>
<!-- Generator: Adobe Illustrator 19.0.0, SVG Export Plug-In . SVG Version: 6.00 Build 0)  -->
<svg version="1.1" baseProfile="basic" id="Capa_1" xmlns="http://www.w3.org/2000/svg" xmlns:xlink="http://www.w3.org/1999/xlink"
	 x="0px" y="0px" viewBox="0 0 300 300" xml:space="preserve">
<style type="text/css">
	.st0{fill:#06518F;}
	.st1{fill:#EFA43B;}
</style>
<g id="XMLID_2539_">
	<path id="Fill-1_32_" class="st0" d="M112.4,75.9c-3.8,3.4-9.7,2.5-13.1-1.3c-3-3.8-2.5-9.7,1.7-13.1c3.8-3,9.7-2.5,13.1,1.7
		C117.1,67,116.2,72.5,112.4,75.9 M114.6,37.4l-2.1,11.4c0,0-24.9-5.9-28.7,19.4l-11.4-2.1C72.3,66.2,74,27.7,114.6,37.4
		 M213.1,26.5C183,10,149.2,6.2,118.4,14.2l-2.1,10.6c0,0-13.5-3.4-27.5,0.8c-6.8,3.8-13.1,8-19.4,12.7c-4.7,5.9-8,13.5-9.7,24.5
		l-11.8-2.5c-3.8,5.1-7.2,10.1-10.6,16.1C2.5,138.5,24.9,217.1,87.1,251.8c35.5,19.9,76.5,20.7,111.6,6.3l36.8,41.9
		c0,0-8-27.5-15.6-52.8c16.9-11,32.1-26.6,42.7-45.7C297.6,139.8,275.2,61.1,213.1,26.5"/>
	<path id="Fill-3_11_" class="st1" d="M30,56.9l10.6,2.5l11.8,3c2.1-10.6,5.9-18.6,10.6-24.1c6.3-4.7,12.7-8.9,19.9-12.3
		c14-3.8,27.5,0,27.5,0l2.5-10.6L115.4,4C35.9-17.9,30,56.9,30,56.9"/>
	<path id="Fill-5_11_" class="st1" d="M105.2,49.7l2.5-11.4c-40.6-11-43.1,27.1-43.1,27.1l11.4,2.5C80.3,42.9,105.2,49.7,105.2,49.7
		"/>
	<path id="Fill-7_11_" class="st1" d="M93.4,62c-4.2,3-5.1,8.9-1.7,13.1c3,4.2,8.9,5.1,12.7,1.7c4.2-3,5.1-8.9,2.1-12.7
		C103.1,59.9,97.6,59,93.4,62"/>
</g>
</svg>
