<?xml version="1.0" encoding="utf-8"?>
<!-- Generator: Adobe Illustrator 16.0.0, SVG Export Plug-In . SVG Version: 6.00 Build 0)  -->
<!DOCTYPE svg PUBLIC "-//W3C//DTD SVG 1.1//EN" "http://www.w3.org/Graphics/SVG/1.1/DTD/svg11.dtd">
<svg version="1.1" id="Capa_1" xmlns="http://www.w3.org/2000/svg" xmlns:xlink="http://www.w3.org/1999/xlink" x="0px" y="0px"
	 width="670.466px" height="192.399px" viewBox="-810.353 -441.367 670.466 192.399"
	 enable-background="new -810.353 -441.367 670.466 192.399" xml:space="preserve">
<path fill="none" stroke="#F6B11F" stroke-width="4" stroke-dasharray="10,10" d="M-569.908-111.68c0,0,63.918-1.021,67.918,26.979
	s-73.606,14.332-12.803-69.334"/>
<path fill="none" stroke="#F6B11F" stroke-width="4" stroke-dasharray="10,10" d="M-690.37-163.351
	c-5.402-6.642,14.481,27.527,51.504,16.752"/>
<g id="Capa_2" display="none">
	<g id="wpV8tH_1_" display="inline">
		
			<image overflow="visible" enable-background="new    " width="1314" height="520" id="wpV8tH_2_" xlink:href="31815271.jpeg"  transform="matrix(0.5392 0 0 0.5388 -64.3584 285.3779)">
		</image>
	</g>
</g>
<g id="Capa_1_1_">
	<g id="XMLID_60_">
		<path id="XMLID_61_" fill="none" stroke="#F6B11F" stroke-width="4" stroke-dasharray="10,10" d="M-528.48-303.903
			c0,0,90.229-30.367,83.26,19.912c-2.926,21.22-51.773-0.746-25.824-46.358c11.324-19.913,26.26-37.647,26.26-37.647"/>
	</g>
	<g id="XMLID_54_">
		<path id="XMLID_59_" fill="none" stroke="#F6B11F" stroke-width="4" stroke-dasharray="10,10" d="M-703.026-381.003
			c0,0,37.896,11.015,41.692,59.428c3.298,42.003,50.59,31.61,50.59,31.61"/>
	</g>
	<g id="XMLID_23_">
		<path id="XMLID_24_" fill="none" stroke="#F6B11F" stroke-width="4" stroke-dasharray="10,10" d="M-363.454-375.651
			c0,0,28.188,28.189,50.715,5.726c22.525-22.526,45.301-31.611,55.256-22.774c9.957,8.836,14.25,23.957,14.25,23.957"/>
	</g>
	<g id="XMLID_28_">
		<circle id="XMLID_29_" fill="#04529D" cx="-227.179" cy="-328.172" r="47.354"/>
	</g>
	<g id="XMLID_34_">
		<circle id="XMLID_35_" fill="#04529D" cx="-568.678" cy="-299.485" r="47.354"/>
	</g>
	<g id="XMLID_55_">
		<circle id="XMLID_56_" fill="#04529D" cx="-739.491" cy="-388.221" r="47.354"/>
	</g>
	<g id="XMLID_57_">
		<circle id="XMLID_58_" fill="#04529D" cx="-401.786" cy="-357.231" r="47.354"/>
	</g>
	<g id="XMLID_3_">
		<path id="XMLID_4_" fill="#FFFFFF" d="M-104.28-628.478h-0.125l0,0v-0.125l0,0h0.125l0,0V-628.478L-104.28-628.478z
			 M-104.405-628.478L-104.405-628.478L-104.405-628.478C-104.343-628.478-104.343-628.478-104.405-628.478L-104.405-628.478
			C-104.343-628.478-104.343-628.478-104.405-628.478L-104.405-628.478L-104.405-628.478L-104.405-628.478z M-104.405-628.54
			L-104.405-628.54L-104.405-628.54C-104.343-628.54-104.343-628.54-104.405-628.54L-104.405-628.54
			C-104.343-628.54-104.343-628.54-104.405-628.54L-104.405-628.54L-104.405-628.54L-104.405-628.54z M-104.405-628.478
			L-104.405-628.478L-104.405-628.478L-104.405-628.478L-104.405-628.478L-104.405-628.478L-104.405-628.478L-104.405-628.478
			L-104.405-628.478z M-104.405-628.54L-104.405-628.54L-104.405-628.54L-104.405-628.54L-104.405-628.54L-104.405-628.54
			L-104.405-628.54L-104.405-628.54L-104.405-628.54z M-104.28-628.603L-104.28-628.603h-0.125l0,0v0.063l0,0L-104.28-628.603
			C-104.28-628.54-104.28-628.54-104.28-628.603L-104.28-628.603z M-104.28-628.54L-104.28-628.54L-104.28-628.54
			C-104.343-628.54-104.343-628.54-104.28-628.54L-104.28-628.54C-104.343-628.478-104.343-628.478-104.28-628.54L-104.28-628.54
			C-104.28-628.478-104.28-628.478-104.28-628.54L-104.28-628.54z M-104.343-628.54L-104.343-628.54L-104.343-628.54
			L-104.343-628.54C-104.343-628.603-104.343-628.603-104.343-628.54L-104.343-628.54
			C-104.343-628.603-104.28-628.603-104.343-628.54L-104.343-628.54C-104.28-628.54-104.343-628.54-104.343-628.54z
			 M-104.405-628.54L-104.405-628.54L-104.405-628.54L-104.405-628.54C-104.405-628.603-104.405-628.603-104.405-628.54
			L-104.405-628.54C-104.405-628.603-104.405-628.603-104.405-628.54L-104.405-628.54L-104.405-628.54z"/>
	</g>
	<g id="XMLID_14_">
		<path id="XMLID_15_" fill="#F8BA45" d="M-196.624-346.404c-0.811,0.934-1.992,1.369-3.486,1.369c-2.986,0-6.346-1.742-7.031-2.116
			c-0.123-0.062-0.186-0.186-0.186-0.373v-9.146c0-0.188,0.123-0.374,0.311-0.374c0.684-0.124,4.107-0.871,4.979-3.671
			c0.373-1.245,1.244-2.116,2.053-2.116c0.373,0,0.686,0.187,0.934,0.498c0.623,0.933,0.373,2.987-0.684,5.601
			c0.248-0.063,0.559-0.125,0.809-0.125c1.119,0,3.049,0.561,3.484,4.418C-195.132-349.64-195.567-347.587-196.624-346.404z
			 M-208.946-346.653h-3.111c-0.186,0-0.373-0.187-0.373-0.373v-10.143c0-0.25,0.188-0.374,0.373-0.374h3.111
			c0.188,0,0.373,0.187,0.373,0.374v10.143C-208.573-346.84-208.759-346.653-208.946-346.653z M-210.501-348.956
			c-0.436,0-0.748,0.374-0.748,0.747c0,0.436,0.313,0.747,0.748,0.747s0.746-0.373,0.746-0.747
			C-209.755-348.645-210.065-348.956-210.501-348.956z"/>
	</g>
	<path fill="none" enable-background="new    " d="z"/>
	<g id="XMLID_32_">
		<path id="XMLID_30_" fill="#FFFFFF" d="M-405.458-375.277c-2.053,0-3.672,1.618-3.672,3.671c0,2.054,1.619,3.672,3.672,3.672
			c2.055,0,3.672-1.618,3.672-3.672C-401.786-373.659-403.403-375.277-405.458-375.277z"/>
		<path id="XMLID_33_" fill="#FFFFFF" d="M-385.606-369.677c-0.25-0.188-0.498-0.188-0.811-0.125l-10.826,4.045
			c0.311-0.622,0.621-1.182,0.871-1.742c0.559-1.307,0.871-2.676,0.871-4.107c0-5.537-4.48-10.018-10.02-10.018
			c-5.537,0-10.018,4.48-10.018,10.018c0,0.498,0.063,1.059,0.125,1.557l-9.77,3.422c-0.313,0.125-0.561,0.436-0.561,0.809v21.406
			c0,0.249,0.125,0.561,0.373,0.685c0.248,0.187,0.498,0.187,0.746,0.124l11.574-4.045l13.814,5.602
			c0.125,0.062,0.188,0.062,0.311,0.062c0.125,0,0.188,0,0.313-0.062l12.693-4.729c0.313-0.124,0.561-0.436,0.561-0.81v-21.406
			C-385.233-369.241-385.421-369.553-385.606-369.677z M-401.786-348.645c0,0-0.561,1.12-3.672,1.12c-3.174,0-3.672-1.12-3.672-1.12
			c0-0.124,0-0.187,0-0.249c0,0,0,0,0-0.187c0.063-2.24,0.375-2.862,2.615-3.298c0,0,0.311,0.436,1.057,0.436
			s1.059-0.436,1.059-0.436c2.303,0.436,2.551,1.058,2.613,3.36c0,0.124,0,0.187,0,0.187
			C-401.786-348.769-401.786-348.706-401.786-348.645z M-407.448-354.867c0-1.307,0.311-2.364,1.928-2.364
			c1.682,0,1.93,1.058,1.93,2.364c0,1.308-0.871,2.364-1.93,2.364C-406.577-352.503-407.448-353.56-407.448-354.867z
			 M-398.985-368.743c-1.742,3.857-5.166,7.965-6.162,9.084c-0.061,0.063-0.186,0.125-0.311,0.125s-0.248-0.063-0.311-0.125
			c-0.996-1.182-4.418-5.227-6.16-9.084c-0.436-0.871-0.623-1.867-0.623-2.863c0-3.92,3.174-7.094,7.094-7.094
			s7.094,3.174,7.094,7.094C-398.364-370.61-398.612-369.614-398.985-368.743z"/>
	</g>
	<g id="XMLID_19_">
		<path id="XMLID_20_" fill="#F6B11F" d="M-375.589-369.429l-8.275,8.277c-0.063,0.062-0.188,0.124-0.25,0.124
			s-0.186-0.063-0.248-0.124l-3.92-3.982c-0.063-0.063-0.125-0.188-0.125-0.25s0.063-0.186,0.125-0.248l1.307-1.307
			c0.123-0.125,0.373-0.125,0.496,0l2.365,2.364l6.721-6.721c0.125-0.124,0.373-0.124,0.498,0l1.307,1.307
			c0.063,0.063,0.125,0.187,0.125,0.249C-375.526-369.614-375.526-369.49-375.589-369.429z M-391.394-370.983v11.449h11.449l0,0
			v-3.484l1.805-1.867v6.846c0,0.186-0.188,0.373-0.373,0.373h-14.313c-0.188,0-0.373-0.188-0.373-0.373v-14.313
			c0-0.188,0.186-0.373,0.373-0.373h14.313c0.186,0,0.373,0.186,0.373,0.373l-1.557,1.432h-11.697V-370.983z"/>
	</g>
	<path id="XMLID_36_" fill="#FFFFFF" d="M-551.068-281.688h-34.349c-0.56,0-0.934-0.436-0.934-0.995v-34.412
		c0-0.56,0.436-0.995,0.934-0.995h34.349c0.56,0,0.934,0.436,0.934,0.995v34.412C-550.135-282.124-550.57-281.688-551.068-281.688z
		 M-575.585-288.658c0,0.312,0.249,0.561,0.56,0.561h8.96c0.311,0,0.56-0.249,0.56-0.561v-2.115c0-0.312-0.249-0.561-0.56-0.561
		h-8.96c-0.312,0-0.56,0.249-0.56,0.561V-288.658z M-575.585-296.249c0,0.311,0.249,0.56,0.56,0.56h8.96
		c0.311,0,0.56-0.249,0.56-0.56v-2.116c0-0.311-0.249-0.56-0.56-0.56h-8.96c-0.312,0-0.56,0.249-0.56,0.56V-296.249z
		 M-582.804-288.658c0,0.312,0.249,0.561,0.56,0.561h3.298c0.311,0,0.56-0.249,0.56-0.561v-2.115c0-0.312-0.249-0.561-0.56-0.561
		h-3.298c-0.312,0-0.56,0.249-0.56,0.561V-288.658z M-582.804-296.249c0,0.311,0.249,0.56,0.56,0.56h3.298
		c0.311,0,0.56-0.249,0.56-0.56v-2.116c0-0.311-0.249-0.56-0.56-0.56h-3.298c-0.312,0-0.56,0.249-0.56,0.56V-296.249z
		 M-553.744-313.361c0-0.436-0.373-0.872-0.871-0.872h-27.38c-0.436,0-0.871,0.374-0.871,0.872v8.649
		c0,0.436,0.374,0.871,0.871,0.871h27.38c0.436,0,0.871-0.374,0.871-0.871V-313.361z M-553.62-298.428c0-0.311-0.249-0.56-0.56-0.56
		h-7.84c-0.312,0-0.56,0.249-0.56,0.56v9.708c0,0.311,0.249,0.56,0.56,0.56h7.84c0.311,0,0.56-0.249,0.56-0.56V-298.428z
		 M-556.731-307.45h-13.13c-0.311,0-0.56-0.249-0.56-0.561v-2.115c0-0.312,0.249-0.56,0.56-0.56h13.13c0.311,0,0.56,0.248,0.56,0.56
		v2.115C-556.171-307.699-556.42-307.45-556.731-307.45z M-573.781-307.45h-5.974c-0.311,0-0.56-0.249-0.56-0.561v-2.115
		c0-0.312,0.249-0.56,0.56-0.56h5.974c0.312,0,0.56,0.248,0.56,0.56v2.115C-573.221-307.699-573.47-307.45-573.781-307.45z"/>
	<g id="XMLID_31_">
		<path id="XMLID_46_" fill="#FFFFFF" d="M-725.863-368.433h-24.58c-0.436,0-0.747-0.311-0.747-0.746v-3.982
			c0-0.436,0.311-0.747,0.747-0.747h24.58c0.436,0,0.747,0.312,0.747,0.747v3.982C-725.117-368.806-725.428-368.433-725.863-368.433
			z M-725.863-381.313h-24.58c-0.436,0-0.747-0.311-0.747-0.746v-3.982c0-0.436,0.311-0.748,0.747-0.748h24.58
			c0.436,0,0.747,0.313,0.747,0.748v3.982C-725.117-381.687-725.428-381.313-725.863-381.313z M-725.863-393.821h-24.58
			c-0.436,0-0.747-0.311-0.747-0.746v-3.982c0-0.436,0.311-0.747,0.747-0.747h24.58c0.436,0,0.747,0.312,0.747,0.747v3.982
			C-725.117-394.194-725.428-393.821-725.863-393.821z M-758.408-368.245c-0.374,0-0.747-0.063-1.058-0.125
			c-0.187-0.063-0.249-0.063-0.373-0.125c-0.249-0.063-0.374-0.311-0.374-0.56v-0.312c0-0.187,0.125-0.311,0.249-0.436
			c0.125-0.124,0.311-0.124,0.498-0.063c0.685,0.25,1.307,0.25,1.68,0c0.311-0.186,0.436-0.436,0.436-0.809
			c0-0.311-0.125-0.56-0.373-0.684c-0.125-0.063-0.374-0.188-0.996-0.188c-0.312,0-0.56-0.248-0.56-0.561v-0.248
			c0-0.312,0.249-0.561,0.56-0.561c0.373,0,1.058-0.063,1.307-0.436c0.125-0.187,0.125-0.498,0.062-0.684
			c-0.125-0.25-0.373-0.436-0.684-0.498c-0.125,0-0.187,0-0.249,0c-0.249,0-0.498,0.063-0.809,0.187
			c-0.187,0.062-0.374,0.062-0.498-0.063c-0.124-0.124-0.249-0.249-0.249-0.436v-0.312c0-0.248,0.125-0.498,0.373-0.56
			c0.498-0.124,0.996-0.249,1.494-0.249c0.685,0,1.245,0.125,1.618,0.436c0.56,0.373,0.809,0.934,0.809,1.618
			c0,0.187,0,0.933-0.685,1.431c-0.125,0.063-0.187,0.125-0.249,0.188c0.373,0.186,0.809,0.436,0.996,1.182
			c0.124,0.623,0.062,1.494-0.56,2.115C-756.79-368.308-757.848-368.245-758.408-368.245z M-756.105-380.567h-3.422
			c-0.311,0-0.56-0.248-0.56-0.56v-0.56c0-0.188,0.062-0.312,0.187-0.436c0.125-0.125,0.249-0.249,0.498-0.498l0.933-1.12
			c1.245-1.431,1.183-2.116,1.058-2.552c-0.125-0.248-0.249-0.373-0.56-0.436c-0.374-0.063-0.622,0-1.12,0.188
			c-0.187,0.063-0.374,0.063-0.498,0c-0.187-0.063-0.249-0.25-0.311-0.436l-0.062-0.374c0-0.249,0.125-0.497,0.373-0.56
			c0.56-0.188,1.183-0.312,1.68-0.312c0.498,0,0.872,0.063,1.183,0.249c0.56,0.311,0.933,0.746,0.996,1.369
			c0.311,1.369-0.56,2.551-1.618,3.857c-0.249,0.312-0.498,0.561-0.622,0.747h1.805c0.311,0,0.56,0.249,0.56,0.56v0.312
			C-755.545-380.815-755.794-380.567-756.105-380.567z M-757.848-392.763h-0.56c-0.311,0-0.56-0.25-0.56-0.561v-4.854l-0.374,0.311
			c-0.125,0.125-0.249,0.125-0.436,0.125s-0.311-0.125-0.373-0.249l-0.187-0.249c-0.187-0.248-0.125-0.561,0.125-0.746l1.431-1.245
			c0.125-0.062,0.249-0.124,0.374-0.124h0.622c0.311,0,0.56,0.248,0.56,0.56v6.472
			C-757.288-393.013-757.537-392.763-757.848-392.763z"/>
	</g>
	<path id="XMLID_53_" fill="#F6B11F" d="M-710.12-409.564l-6.223-6.223c-0.312-0.312-0.934-0.312-1.245,0l-1.743,1.742
		c-0.187,0.187-0.249,0.374-0.249,0.622c0,0.25,0.062,0.436,0.249,0.623v0.063c0.436,0.684-0.436,2.737-2.364,4.666
		c-0.56,0.561-1.12,0.996-1.68,1.369l-0.249,0.188l-0.622-0.623c-0.374-0.373-0.934-0.622-1.431-0.622
		c-0.56,0-1.058,0.187-1.432,0.622c-0.373,0.373-0.622,0.934-0.622,1.432c0,0.56,0.187,1.058,0.622,1.432l1.991,1.99l-6.72,6.97
		c-0.187,0.187-0.249,0.374-0.249,0.622c0,0.249,0.063,0.436,0.249,0.623c0.187,0.186,0.374,0.248,0.622,0.248
		c0.249,0,0.436-0.063,0.623-0.248l6.72-6.908l2.24,2.24c0.374,0.374,0.934,0.623,1.431,0.623c0.56,0,1.058-0.188,1.431-0.623
		c0.809-0.809,0.809-2.115,0-2.924l-0.622-0.623l0.187-0.248c0.374-0.561,0.871-1.121,1.369-1.681
		c1.929-1.929,3.609-2.427,4.231-2.427c0.187,0,0.311,0.063,0.436,0.125h0.062c0.374,0.373,0.934,0.373,1.245,0l1.743-1.743
		C-709.809-408.693-709.809-409.253-710.12-409.564z"/>
	<polygon fill="#FCFCFC" points="-241.085,-340.007 -244.468,-336.757 -235.46,-328.172 -235.46,-301.534 -229.835,-301.534 
		-229.835,-315.882 -227.179,-315.882 -227.179,-301.534 -221.585,-301.534 -221.585,-328.172 -212.431,-336.632 -215.96,-340.007 
		-225.104,-331.652 -231.46,-331.632 	"/>
	<circle fill="#FCFCFC" cx="-228.521" cy="-339.132" r="6.125"/>
</g>
<g id="XMLID_1_">
	<circle id="XMLID_2_" fill="#04529D" cx="-739.819" cy="-167.971" r="47.354"/>
</g>
<g id="XMLID_5_">
	<circle id="XMLID_6_" fill="#04529D" cx="-617.263" cy="-111.68" r="47.354"/>
</g>
<g id="XMLID_7_">
	<circle id="XMLID_8_" fill="#04529D" cx="-467.702" cy="-159.034" r="47.354"/>
</g>
<g id="XMLID_9_">
	<circle id="XMLID_10_" fill="#04529D" cx="-328.842" cy="-106.68" r="47.354"/>
</g>
<g id="XMLID_11_">
	<circle id="XMLID_12_" fill="#04529D" cx="-198.61" cy="-146.034" r="47.354"/>
</g>
<path fill="none" stroke="#F6B11F" stroke-width="4" stroke-dasharray="10,10" d="M-420.347-167.971
	c0,0,16.942,23.976,44.149,13.623c0,0,47.355-47.353,52.365,0.577"/>
<path fill="none" stroke="#F6B11F" stroke-width="4" stroke-dasharray="10,10" d="M-307.647-64.325c0,0,36.629,42.28,47.511,0
	c0,0-3.585-87.429,14.172-87.429"/>
<g id="XMLID_13_">
	<path id="XMLID_16_" fill="#F8BA45" d="M-202.125-156.686c-0.811,0.934-1.992,1.369-3.486,1.369c-2.986,0-6.346-1.742-7.031-2.116
		c-0.123-0.062-0.186-0.186-0.186-0.373v-9.146c0-0.188,0.123-0.374,0.311-0.374c0.684-0.124,4.107-0.871,4.979-3.671
		c0.373-1.245,1.244-2.116,2.053-2.116c0.373,0,0.686,0.187,0.934,0.498c0.623,0.933,0.373,2.987-0.684,5.601
		c0.248-0.063,0.559-0.125,0.809-0.125c1.119,0,3.049,0.561,3.484,4.418C-200.633-159.921-201.068-157.868-202.125-156.686z
		 M-214.447-156.935h-3.111c-0.186,0-0.373-0.187-0.373-0.373v-10.143c0-0.25,0.188-0.374,0.373-0.374h3.111
		c0.188,0,0.373,0.187,0.373,0.374v10.143C-214.074-157.121-214.26-156.935-214.447-156.935z M-216.002-159.237
		c-0.436,0-0.748,0.374-0.748,0.747c0,0.436,0.313,0.747,0.748,0.747s0.746-0.373,0.746-0.747
		C-215.256-158.926-215.566-159.237-216.002-159.237z"/>
</g>
<g id="XMLID_22_">
	<path id="XMLID_25_" fill="#F6B11F" d="M-722.141-186.316l-9.482,9.484c-0.072,0.071-0.215,0.143-0.287,0.143
		c-0.072,0-0.213-0.071-0.285-0.143l-4.492-4.563c-0.072-0.071-0.144-0.214-0.144-0.287c0-0.071,0.072-0.211,0.144-0.283
		l1.498-1.497c0.141-0.144,0.427-0.144,0.568,0l2.711,2.71l7.701-7.702c0.143-0.143,0.427-0.143,0.57,0l1.497,1.497
		c0.072,0.071,0.144,0.214,0.144,0.285C-722.069-186.529-722.069-186.387-722.141-186.316z M-740.251-188.099v13.119h13.119l0,0
		v-3.992l2.068-2.139v7.844c0,0.212-0.215,0.428-0.427,0.428h-16.4c-0.215,0-0.428-0.216-0.428-0.428v-16.4
		c0-0.215,0.213-0.428,0.428-0.428h16.4c0.212,0,0.427,0.213,0.427,0.428l-1.784,1.641h-13.404V-188.099z"/>
</g>
<g id="XMLID_37_">
	<path id="XMLID_39_" fill="#FFFFFF" d="M-470.556-175.961c-2.053,0-3.672,1.618-3.672,3.671c0,2.054,1.619,3.672,3.672,3.672
		c2.055,0,3.672-1.618,3.672-3.672C-466.884-174.343-468.501-175.961-470.556-175.961z"/>
	<path id="XMLID_38_" fill="#FFFFFF" d="M-450.705-170.36c-0.25-0.188-0.498-0.188-0.811-0.125l-10.826,4.045
		c0.311-0.622,0.621-1.182,0.871-1.742c0.559-1.307,0.871-2.676,0.871-4.107c0-5.537-4.48-10.018-10.02-10.018
		c-5.537,0-10.018,4.48-10.018,10.018c0,0.498,0.063,1.059,0.125,1.557l-9.77,3.422c-0.313,0.125-0.561,0.436-0.561,0.809v21.406
		c0,0.249,0.125,0.561,0.373,0.685c0.248,0.187,0.498,0.187,0.746,0.124l11.574-4.045l13.814,5.602
		c0.125,0.062,0.188,0.062,0.311,0.062c0.125,0,0.188,0,0.313-0.062l12.693-4.729c0.313-0.124,0.561-0.436,0.561-0.81v-21.406
		C-450.332-169.925-450.519-170.236-450.705-170.36z M-466.884-149.328c0,0-0.561,1.12-3.672,1.12c-3.174,0-3.672-1.12-3.672-1.12
		c0-0.124,0-0.187,0-0.249c0,0,0,0,0-0.187c0.063-2.24,0.375-2.862,2.615-3.298c0,0,0.311,0.436,1.057,0.436
		s1.059-0.436,1.059-0.436c2.303,0.436,2.551,1.058,2.613,3.36c0,0.124,0,0.187,0,0.187
		C-466.884-149.452-466.884-149.39-466.884-149.328z M-472.546-155.551c0-1.307,0.311-2.364,1.928-2.364
		c1.682,0,1.93,1.058,1.93,2.364c0,1.308-0.871,2.364-1.93,2.364C-471.675-153.187-472.546-154.243-472.546-155.551z
		 M-464.083-169.427c-1.742,3.857-5.166,7.965-6.162,9.084c-0.061,0.063-0.186,0.125-0.311,0.125s-0.248-0.063-0.311-0.125
		c-0.996-1.182-4.418-5.227-6.16-9.084c-0.436-0.871-0.623-1.867-0.623-2.863c0-3.92,3.174-7.094,7.094-7.094
		s7.094,3.174,7.094,7.094C-463.462-171.294-463.71-170.298-464.083-169.427z"/>
</g>
<g id="XMLID_26_">
	<path id="XMLID_27_" fill="#F6B11F" d="M-440.688-170.112l-8.275,8.277c-0.063,0.062-0.188,0.124-0.25,0.124
		s-0.186-0.063-0.248-0.124l-3.92-3.982c-0.063-0.063-0.125-0.188-0.125-0.25s0.063-0.186,0.125-0.248l1.307-1.307
		c0.123-0.125,0.373-0.125,0.496,0l2.365,2.364l6.72-6.721c0.125-0.124,0.373-0.124,0.498,0l1.307,1.307
		c0.063,0.063,0.125,0.187,0.125,0.249C-440.625-170.298-440.625-170.174-440.688-170.112z M-456.492-171.667v11.449h11.449l0,0
		v-3.484l1.804-1.867v6.846c0,0.186-0.188,0.373-0.373,0.373h-14.312c-0.188,0-0.373-0.188-0.373-0.373v-14.313
		c0-0.188,0.186-0.373,0.373-0.373h14.312c0.186,0,0.373,0.186,0.373,0.373l-1.556,1.432h-11.697V-171.667z"/>
</g>
<path id="Forma_1_1_" fill="#FFFFFF" d="M-187.08-157.218c-3.374,0.693-6.672-1.479-7.365-4.853
	c-0.694-3.374,1.479-6.672,4.853-7.366c3.359-0.69,6.646,1.461,7.356,4.816C-181.55-161.242-183.71-157.94-187.08-157.218z
	 M-220.791-130.171l2.833-1.11l4.659-8.129l5.983-4.343l2.697,1.555l2.778-1.004c0.383-0.907,1.273-1.497,2.259-1.492
	c5.674,0,8.975-4.006,9.251-7.842c0.19-1.933,1.729-3.533,3.334-4.305c0.412-0.21,0.85-0.363,1.302-0.455
	c0.473-0.084,0.951-0.127,1.43-0.131l0.02-0.006c2.184,0.063,4.754,1.268,5.295,3.775l2.912,13.453
	c0.165,0.754,0.115,1.541-0.141,2.27c-0.033,0.135-3.059,7.521-3.059,7.521h6.844c1.823-0.004,3.305,1.471,3.309,3.293
	c0.005,1.824-1.471,3.305-3.293,3.31c-0.005,0-0.01,0-0.016,0h-11.796c-1.108,0.001-2.146-0.546-2.771-1.46
	c-0.619-0.91-0.74-2.069-0.321-3.086l1.875-4.564l-4.056,1.15l1.526,8.303c0.322,1.799-0.873,3.518-2.67,3.841
	c-0.004,0.001-0.008,0.001-0.011,0.003c-0.199,0.033-0.4,0.049-0.604,0.05c-1.603,0.006-2.981-1.134-3.276-2.71l-2.067-11.25
	c-0.304-1.676,0.719-3.307,2.359-3.764l6.573-1.859l-1.069-4.93c-2.412,2.783-6.067,4.232-10.879,4.232
	c-0.568,0-1.118-0.2-1.555-0.564l-2.321,0.834l-6.365,12.045l0.27,6.489c0.03,0.792-0.588,1.458-1.38,1.487h-0.062
	c-0.769,0.004-1.403-0.602-1.437-1.369l-0.175-4.146l-0.687,4.457c-0.121,0.789-0.857,1.331-1.646,1.211
	c-0.789-0.119-1.331-0.855-1.213-1.645l0,0l1.134-7.273l-1.934-1.087l-3.059,1.199c-0.536,0.222-1.152-0.033-1.375-0.571
	c-0.222-0.537,0.034-1.152,0.571-1.375C-220.806-130.165-220.799-130.169-220.791-130.171z M-207.896-146.779
	c-0.187,0.175-0.379,0.355-0.57,0.53c-0.136,0.123,0.643,1.909,0.643,1.909l-5.824,4.169c-0.395-0.607-0.784-1.217-1.178-1.83
	c-0.825-1.362-1.729-2.676-2.705-3.933c-0.285-0.335-0.603-0.638-0.951-0.907c-1.594-1.229-0.603-2.078-0.35-2.225
	c0.629-0.346,1.393-0.331,2.006,0.039c0.365,0.191,0.727,0.395,1.093,0.592c0.088,0.063,0.21,0.053,0.288-0.023
	c0.168-0.123,0.354-0.236,0.534-0.349c1.054-0.631,2.074-0.519,3.194-1.003c0.383-0.158,2.755-2.851,4.012-2.197
	c1.374,0.715,1.471,2.209,1.03,3.408C-206.931-147.903-207.35-147.278-207.896-146.779z"/>
<path id="Forma_1_2_" fill="#FFFFFF" d="M-749.527-177.128h3.767v4.229h2.484v-14.252c-0.001-0.982-0.798-1.779-1.781-1.779h-17.587
	c-0.985-0.002-1.783,0.795-1.785,1.779l0,0v36.168c0.002,0.983,0.802,1.779,1.785,1.779h6.327v-11.578h4.902v-9.691
	c0.054-1.092,0.824-2.017,1.887-2.269L-749.527-177.128L-749.527-177.128L-749.527-177.128z M-749.527-185.368h3.767v5.345h-3.767
	V-185.368L-749.527-185.368z M-758.113-155.318h-3.765v-5.345h3.766L-758.113-155.318L-758.113-155.318z M-758.113-163.142h-3.765
	v-5.349h3.766v5.346L-758.113-163.142z M-758.113-171.784h-3.765v-5.344h3.766L-758.113-171.784L-758.113-171.784z
	 M-758.113-180.023h-3.765v-5.345h3.766L-758.113-180.023L-758.113-180.023z M-751.834-163.143h-3.763v-5.348h3.765v5.346
	L-751.834-163.143z M-751.834-171.784h-3.763v-5.344h3.765v5.344H-751.834z M-751.834-180.023h-3.763v-5.345h3.765v5.345H-751.834z
	 M-733.263-171.471h-14.896c-0.833,0-1.509,0.448-1.509,0.998v20.273c0,0.553,0.676,0.998,1.509,0.998h5.36v-6.49h4.303v6.488h5.233
	c0.833,0,1.509-0.45,1.509-1v-20.27C-731.753-171.024-732.43-171.471-733.263-171.471z M-744.321-152.63h-3.189v-2.995h3.188
	L-744.321-152.63L-744.321-152.63z M-744.321-157.016h-3.189v-2.995h3.188L-744.321-157.016L-744.321-157.016z M-744.321-161.859
	h-3.189v-2.995h3.188L-744.321-161.859L-744.321-161.859z M-744.321-166.479h-3.189v-2.995h3.188L-744.321-166.479L-744.321-166.479
	z M-739.002-157.016h-3.188v-2.995h3.188L-739.002-157.016L-739.002-157.016z M-739.002-161.859h-3.188v-2.995h3.188
	L-739.002-161.859L-739.002-161.859z M-739.002-166.479h-3.188v-2.995h3.188L-739.002-166.479L-739.002-166.479z M-733.861-152.563
	h-3.186v-2.995h3.188v2.995H-733.861z M-733.861-157.016h-3.186v-2.995h3.188v2.995H-733.861z M-733.861-161.859h-3.186v-2.995
	h3.188v2.995H-733.861z M-733.861-166.478h-3.186v-2.996h3.188v2.995L-733.861-166.478z"/>
<path fill="#FFFFFF" d="M-311.039-130.653h-35.61c-0.996,0.011-1.795,0.826-1.782,1.822v0.001v26.073
	c-0.014,0.996,0.785,1.814,1.781,1.825h0.001h1.778v-0.608c-0.007-1.447,0.557-2.836,1.566-3.871
	c0.989-1.025,2.354-1.604,3.778-1.603c0.122,0,0.245,0.007,0.368,0.013c-1.184-2.208-3.268-3.793-5.713-4.34v-8.904
	c3.34-0.756,5.923-3.403,6.597-6.76h18.862c0.674,3.356,3.257,6.004,6.597,6.76v8.905c-3.34,0.755-5.923,3.401-6.597,6.759h-15.67
	c0.588,0.905,0.898,1.962,0.895,3.041v0.608h23.148c0.996-0.011,1.795-0.827,1.785-1.823c0-0.001,0-0.002,0-0.002v-26.073
	c0.011-0.995-0.786-1.812-1.783-1.823C-311.038-130.653-311.038-130.653-311.039-130.653z M-328.843-110.545
	c3.619,0,6.454-2.304,6.454-5.245c0-2.94-2.835-5.252-6.454-5.252c-3.621,0-6.456,2.305-6.456,5.252
	S-332.464-110.545-328.843-110.545z M-334.188-97.283v0.188c4.211,0.925,7.2,4.669,7.168,8.981c0.025,0.982-0.75,1.801-1.734,1.826
	c-0.982,0.025-1.802-0.751-1.826-1.734c0-0.03,0-0.062,0-0.092c0.033-3.008-2.376-5.475-5.384-5.514
	c-0.997-0.014-1.795-0.83-1.785-1.824v-6.088c0.004-0.482-0.184-0.947-0.521-1.292c-0.327-0.342-0.783-0.534-1.256-0.532
	c-0.477,0.002-0.93,0.193-1.265,0.532c-0.332,0.347-0.521,0.811-0.52,1.292v9.706c-0.006,3.418,1.34,6.699,3.743,9.128h17.447
	c2.404-2.43,3.748-5.711,3.744-9.128v-5.449H-334.188L-334.188-97.283z"/>
<path id="Forma_1_3_" fill="#FFFFFF" d="M-622.449-110.811c0-0.478-0.387-0.864-0.864-0.862c-0.001,0-0.002,0-0.003,0h-3.028
	c-0.477-0.003-0.865,0.383-0.867,0.859c0,0.002,0,0.002,0,0.003v3c0,0.478,0.388,0.864,0.865,0.863c0,0,0.001,0,0.002,0h3.028
	c0.477,0.003,0.866-0.383,0.867-0.86c0,0,0-0.002,0-0.003V-110.811L-622.449-110.811z M-614.882-110.811
	c0-0.478-0.388-0.864-0.865-0.862c-0.001,0-0.001,0-0.002,0h-3.027c-0.477-0.003-0.866,0.383-0.867,0.859c0,0.002,0,0.002,0,0.003v3
	c0,0.478,0.388,0.864,0.865,0.863c0,0,0.001,0,0.002,0h3.027c0.478,0.002,0.866-0.384,0.867-0.86c0-0.002,0-0.002,0-0.003V-110.811z
	 M-607.316-110.811c0-0.478-0.387-0.864-0.865-0.862h-0.001h-3.028c-0.477-0.003-0.865,0.383-0.867,0.859c0,0.002,0,0.002,0,0.003v3
	c0.001,0.478,0.388,0.864,0.865,0.863c0.001,0,0.001,0,0.002,0h3.028c0.477,0.002,0.865-0.384,0.866-0.86c0-0.002,0-0.002,0-0.003
	V-110.811z M-622.449-103.303c0-0.478-0.387-0.864-0.864-0.863c-0.001,0-0.002,0-0.003,0h-3.028
	c-0.477-0.001-0.865,0.384-0.867,0.86c0,0.002,0,0.002,0,0.003v3.001c0,0.477,0.388,0.863,0.865,0.863c0,0,0.001,0,0.002,0h3.028
	c0.477,0.002,0.866-0.384,0.867-0.861v-0.002V-103.303L-622.449-103.303z M-614.882-103.303c0-0.478-0.388-0.864-0.865-0.863
	c-0.001,0-0.001,0-0.002,0h-3.027c-0.477-0.002-0.866,0.384-0.867,0.86c0,0.001,0,0.002,0,0.003v3.001
	c0,0.477,0.388,0.863,0.865,0.863c0,0,0.001,0,0.002,0h3.027c0.478,0.001,0.866-0.385,0.867-0.861c0-0.002,0-0.002,0-0.002V-103.303
	z M-607.316-103.303c0-0.478-0.387-0.864-0.865-0.863h-0.001h-3.028c-0.477-0.002-0.865,0.384-0.867,0.86c0,0.001,0,0.002,0,0.003
	v3.001c0.001,0.477,0.388,0.863,0.865,0.863c0.001,0,0.001,0,0.002,0h3.028c0.477,0.001,0.865-0.385,0.866-0.861
	c0-0.002,0-0.002,0-0.002V-103.303L-607.316-103.303z M-601.902-127.515v4.59c-0.01,2.077-1.702,3.754-3.779,3.743
	c-0.001,0-0.004,0-0.006,0h-2.387c-2.084,0.015-3.787-1.659-3.807-3.743v-4.605h-10.762v4.605c-0.021,2.084-1.724,3.758-3.807,3.743
	h-2.388c-2.077,0.013-3.771-1.66-3.785-3.737c0-0.002,0-0.004,0-0.006v-4.59c-1.842,0.055-3.311,1.555-3.327,3.396v26.889
	c0.006,1.889,1.538,3.416,3.426,3.419h30.523c1.888-0.004,3.418-1.53,3.425-3.419v-26.889
	C-598.592-125.96-600.062-127.46-601.902-127.515L-601.902-127.515z M-603.011-98.905c-0.002,0.815-0.666,1.475-1.481,1.473H-630.1
	c-0.815,0.002-1.479-0.657-1.481-1.473v-13.885c0.002-0.814,0.666-1.475,1.481-1.473h25.607c0.816-0.002,1.479,0.658,1.481,1.473
	V-98.905L-603.011-98.905L-603.011-98.905z M-628.848-121.638h2.363c0.713,0.002,1.294-0.573,1.298-1.287v-7.524
	c-0.004-0.713-0.585-1.288-1.298-1.286h-2.363c-0.714-0.002-1.294,0.573-1.298,1.286v7.524
	C-630.142-122.211-629.562-121.636-628.848-121.638L-628.848-121.638z M-608.105-121.638h2.363c0.713,0.002,1.294-0.573,1.297-1.287
	v-7.524c-0.003-0.713-0.584-1.288-1.297-1.286h-2.363c-0.714-0.002-1.295,0.573-1.298,1.286v7.524
	C-609.4-122.211-608.818-121.636-608.105-121.638L-608.105-121.638z"/>
<g id="XMLID_17_">
	<path id="XMLID_18_" fill="#F6B11F" d="M-588.35-103.502l-10.721,10.724c-0.082,0.08-0.244,0.16-0.324,0.16
		c-0.082,0-0.24-0.08-0.322-0.16l-5.078-5.159c-0.082-0.081-0.163-0.242-0.163-0.325c0-0.079,0.081-0.239,0.163-0.32l1.692-1.692
		c0.159-0.162,0.483-0.162,0.642,0l3.065,3.063l8.707-8.708c0.162-0.161,0.483-0.161,0.645,0l1.693,1.693
		c0.081,0.081,0.162,0.242,0.162,0.322C-588.269-103.742-588.269-103.581-588.35-103.502z M-608.825-105.517v14.833h14.833l0,0
		v-4.515l2.338-2.417v8.868c0,0.239-0.243,0.482-0.483,0.482h-18.543c-0.243,0-0.483-0.243-0.483-0.482v-18.542
		c0-0.243,0.24-0.484,0.483-0.484h18.543c0.24,0,0.483,0.241,0.483,0.484l-2.017,1.854h-15.154V-105.517z"/>
</g>
<path fill="none" stroke="#F6B11F" stroke-width="4" stroke-dasharray="10,10" d="M-580.826,96.562c0,0,63.918-1.021,67.918,26.979
	s-73.606,14.332-12.803-69.334"/>
<path fill="none" stroke="#F6B11F" stroke-width="4" stroke-dasharray="10,10" d="M-701.287,44.891
	c-5.402-6.642,14.481,27.527,51.504,16.752"/>
<g id="XMLID_69_">
	<circle id="XMLID_70_" fill="#04529D" cx="-750.736" cy="40.271" r="47.354"/>
</g>
<g id="XMLID_67_">
	<circle id="XMLID_68_" fill="#04529D" cx="-628.181" cy="96.562" r="47.354"/>
</g>
<g id="XMLID_65_">
	<circle id="XMLID_66_" fill="#04529D" cx="-478.619" cy="49.207" r="47.354"/>
</g>
<g id="XMLID_63_">
	<circle id="XMLID_64_" fill="#04529D" cx="-339.759" cy="101.562" r="47.354"/>
</g>
<g id="XMLID_52_">
	<circle id="XMLID_62_" fill="#04529D" cx="-209.528" cy="62.207" r="47.354"/>
</g>
<path fill="none" stroke="#F6B11F" stroke-width="4" stroke-dasharray="10,10" d="M-431.264,40.271c0,0,16.942,23.976,44.149,13.623
	c0,0,47.355-47.353,52.365,0.577"/>
<path fill="none" stroke="#F6B11F" stroke-width="4" stroke-dasharray="10,10" d="M-318.565,143.916c0,0,36.629,42.28,47.511,0
	c0,0-3.585-87.429,14.172-87.429"/>
<g id="XMLID_50_">
	<path id="XMLID_51_" fill="#F8BA45" d="M-187.981,78.635c-0.811,0.934-1.992,1.369-3.486,1.369c-2.986,0-6.346-1.742-7.031-2.116
		c-0.123-0.062-0.186-0.186-0.186-0.373v-9.146c0-0.188,0.123-0.374,0.311-0.374c0.684-0.124,4.107-0.871,4.979-3.671
		c0.373-1.245,1.244-2.116,2.053-2.116c0.373,0,0.686,0.187,0.934,0.498c0.623,0.933,0.373,2.987-0.684,5.601
		c0.248-0.063,0.559-0.125,0.809-0.125c1.119,0,3.049,0.561,3.484,4.418C-186.489,75.399-186.924,77.452-187.981,78.635z
		 M-200.303,78.386h-3.111c-0.186,0-0.373-0.187-0.373-0.373V67.87c0-0.25,0.188-0.374,0.373-0.374h3.111
		c0.188,0,0.373,0.187,0.373,0.374v10.143C-199.93,78.199-200.116,78.386-200.303,78.386z M-201.858,76.083
		c-0.436,0-0.748,0.374-0.748,0.747c0,0.436,0.313,0.747,0.748,0.747s0.746-0.373,0.746-0.747
		C-201.112,76.395-201.422,76.083-201.858,76.083z"/>
</g>
<g id="XMLID_48_">
	<path id="XMLID_49_" fill="#F6B11F" d="M-733.058,21.925l-9.482,9.484c-0.072,0.071-0.215,0.143-0.287,0.143
		c-0.072,0-0.213-0.071-0.285-0.143l-4.492-4.563c-0.072-0.071-0.144-0.214-0.144-0.287c0-0.071,0.072-0.211,0.144-0.283
		l1.498-1.497c0.141-0.144,0.427-0.144,0.568,0l2.711,2.71l7.701-7.702c0.143-0.143,0.427-0.143,0.57,0l1.497,1.497
		c0.072,0.071,0.144,0.214,0.144,0.285C-732.986,21.712-732.986,21.854-733.058,21.925z M-751.168,20.143v13.119h13.119l0,0V29.27
		l2.068-2.139v7.844c0,0.212-0.215,0.428-0.427,0.428h-16.4c-0.215,0-0.428-0.216-0.428-0.428v-16.4
		c0-0.215,0.213-0.428,0.428-0.428h16.4c0.212,0,0.427,0.213,0.427,0.428l-1.784,1.641h-13.404V20.143z"/>
</g>
<g id="XMLID_44_">
	<path id="XMLID_47_" fill="#FFFFFF" d="M-481.474,32.28c-2.053,0-3.672,1.618-3.672,3.671c0,2.054,1.619,3.672,3.672,3.672
		c2.055,0,3.672-1.618,3.672-3.672C-477.802,33.898-479.419,32.28-481.474,32.28z"/>
	<path id="XMLID_45_" fill="#FFFFFF" d="M-461.623,37.881c-0.25-0.188-0.498-0.188-0.811-0.125l-10.826,4.045
		c0.311-0.622,0.621-1.182,0.871-1.742c0.559-1.307,0.871-2.676,0.871-4.107c0-5.537-4.48-10.018-10.019-10.018
		c-5.537,0-10.018,4.48-10.018,10.018c0,0.498,0.063,1.059,0.125,1.557l-9.77,3.422c-0.313,0.125-0.561,0.436-0.561,0.809v21.406
		c0,0.249,0.125,0.561,0.373,0.685c0.248,0.187,0.498,0.187,0.746,0.124l11.574-4.045l13.814,5.602
		c0.125,0.062,0.188,0.062,0.311,0.062c0.125,0,0.188,0,0.312-0.062l12.693-4.729c0.313-0.124,0.561-0.436,0.561-0.81V38.564
		C-461.25,38.316-461.437,38.005-461.623,37.881z M-477.802,58.913c0,0-0.561,1.12-3.672,1.12c-3.174,0-3.672-1.12-3.672-1.12
		c0-0.124,0-0.187,0-0.249c0,0,0,0,0-0.187c0.063-2.24,0.375-2.862,2.615-3.298c0,0,0.311,0.436,1.057,0.436
		s1.059-0.436,1.059-0.436c2.303,0.436,2.551,1.058,2.613,3.36c0,0.124,0,0.187,0,0.187
		C-477.802,58.789-477.802,58.852-477.802,58.913z M-483.464,52.69c0-1.307,0.311-2.364,1.928-2.364c1.682,0,1.93,1.058,1.93,2.364
		c0,1.308-0.871,2.364-1.93,2.364C-482.593,55.055-483.464,53.998-483.464,52.69z M-475.001,38.814
		c-1.742,3.857-5.166,7.965-6.162,9.084c-0.061,0.063-0.186,0.125-0.311,0.125s-0.248-0.063-0.311-0.125
		c-0.996-1.182-4.418-5.227-6.16-9.084c-0.436-0.871-0.623-1.867-0.623-2.863c0-3.92,3.174-7.094,7.094-7.094
		s7.093,3.174,7.093,7.094C-474.38,36.947-474.628,37.943-475.001,38.814z"/>
</g>
<g id="XMLID_42_">
	<path id="XMLID_43_" fill="#F6B11F" d="M-451.605,38.129l-8.275,8.277c-0.063,0.062-0.188,0.124-0.25,0.124
		s-0.186-0.063-0.248-0.124l-3.92-3.982c-0.063-0.063-0.125-0.188-0.125-0.25s0.063-0.186,0.125-0.248l1.307-1.307
		c0.123-0.125,0.373-0.125,0.496,0l2.365,2.364l6.721-6.721c0.125-0.124,0.373-0.124,0.498,0l1.307,1.307
		c0.063,0.063,0.125,0.187,0.125,0.249C-451.542,37.943-451.542,38.067-451.605,38.129z M-467.41,36.574v11.449h11.449l0,0v-3.484
		l1.805-1.867v6.846c0,0.186-0.188,0.373-0.373,0.373h-14.313c-0.188,0-0.373-0.188-0.373-0.373V35.205
		c0-0.188,0.186-0.373,0.373-0.373h14.313c0.186,0,0.373,0.186,0.373,0.373l-1.557,1.432h-11.697V36.574z"/>
</g>
<path id="Forma_1_5_" fill="#FFFFFF" d="M-760.445,31.113h3.767v4.229h2.484V21.091c-0.001-0.982-0.798-1.779-1.781-1.779h-17.587
	c-0.985-0.002-1.783,0.795-1.785,1.779l0,0v36.168c0.002,0.983,0.802,1.779,1.785,1.779h6.327V47.46h4.902v-9.691
	c0.054-1.092,0.824-2.017,1.887-2.269L-760.445,31.113L-760.445,31.113L-760.445,31.113z M-760.445,22.873h3.767v5.345h-3.767
	V22.873L-760.445,22.873z M-769.031,52.923h-3.765v-5.345h3.766L-769.031,52.923L-769.031,52.923z M-769.031,45.1h-3.765v-5.349
	h3.766v5.346L-769.031,45.1z M-769.031,36.457h-3.765v-5.344h3.766L-769.031,36.457L-769.031,36.457z M-769.031,28.218h-3.765
	v-5.345h3.766L-769.031,28.218L-769.031,28.218z M-762.751,45.099h-3.763v-5.348h3.765v5.346L-762.751,45.099z M-762.751,36.457
	h-3.763v-5.344h3.765v5.344H-762.751z M-762.751,28.218h-3.763v-5.345h3.765v5.345H-762.751z M-744.181,36.771h-14.896
	c-0.833,0-1.509,0.448-1.509,0.998v20.273c0,0.553,0.676,0.998,1.509,0.998h5.36v-6.49h4.303v6.488h5.233
	c0.833,0,1.509-0.45,1.509-1v-20.27C-742.67,37.217-743.347,36.771-744.181,36.771z M-755.238,55.611h-3.189v-2.995h3.188
	L-755.238,55.611L-755.238,55.611z M-755.238,51.226h-3.189V48.23h3.188L-755.238,51.226L-755.238,51.226z M-755.238,46.382h-3.189
	v-2.995h3.188L-755.238,46.382L-755.238,46.382z M-755.238,41.763h-3.189v-2.995h3.188L-755.238,41.763L-755.238,41.763z
	 M-749.919,51.226h-3.188V48.23h3.188L-749.919,51.226L-749.919,51.226z M-749.919,46.382h-3.188v-2.995h3.188L-749.919,46.382
	L-749.919,46.382z M-749.919,41.763h-3.188v-2.995h3.188L-749.919,41.763L-749.919,41.763z M-744.779,55.678h-3.186v-2.995h3.188
	v2.995H-744.779z M-744.779,51.226h-3.186V48.23h3.188v2.995H-744.779z M-744.779,46.382h-3.186v-2.995h3.188v2.995H-744.779z
	 M-744.779,41.764h-3.186v-2.996h3.188v2.995L-744.779,41.764z"/>
<path fill="#FFFFFF" d="M-321.957,77.588h-35.61c-0.996,0.011-1.795,0.826-1.782,1.822v0.001v26.073
	c-0.014,0.996,0.785,1.814,1.781,1.825h0.001h1.778v-0.608c-0.007-1.447,0.557-2.836,1.566-3.871
	c0.989-1.025,2.354-1.604,3.778-1.603c0.122,0,0.245,0.007,0.368,0.013c-1.184-2.208-3.268-3.793-5.713-4.34v-8.904
	c3.34-0.756,5.923-3.403,6.597-6.76h18.862c0.674,3.356,3.257,6.004,6.597,6.76v8.905c-3.34,0.755-5.923,3.401-6.597,6.759H-346
	c0.588,0.905,0.898,1.962,0.895,3.041v0.608h23.148c0.996-0.011,1.795-0.827,1.785-1.823c0-0.001,0-0.002,0-0.002V79.411
	c0.011-0.995-0.786-1.812-1.783-1.823C-321.956,77.588-321.956,77.588-321.957,77.588z M-339.76,97.696
	c3.619,0,6.454-2.304,6.454-5.245c0-2.94-2.835-5.252-6.454-5.252c-3.621,0-6.456,2.305-6.456,5.252S-343.381,97.696-339.76,97.696z
	 M-345.105,110.958v0.188c4.211,0.925,7.2,4.669,7.168,8.981c0.025,0.982-0.75,1.801-1.734,1.826
	c-0.982,0.025-1.802-0.751-1.826-1.734c0-0.03,0-0.062,0-0.092c0.033-3.008-2.376-5.475-5.384-5.514
	c-0.997-0.014-1.795-0.83-1.785-1.824v-6.088c0.004-0.482-0.184-0.947-0.521-1.292c-0.327-0.342-0.783-0.534-1.256-0.532
	c-0.477,0.002-0.93,0.193-1.265,0.532c-0.332,0.347-0.521,0.811-0.52,1.292v9.706c-0.006,3.418,1.34,6.699,3.743,9.128h17.447
	c2.404-2.43,3.748-5.711,3.744-9.128v-5.449H-345.105L-345.105,110.958z"/>
<path id="Forma_1_4_" fill="#FFFFFF" d="M-633.366,97.431c0-0.478-0.387-0.864-0.864-0.862c-0.001,0-0.002,0-0.003,0h-3.028
	c-0.477-0.003-0.865,0.383-0.867,0.859c0,0.002,0,0.002,0,0.003v3c0,0.478,0.388,0.864,0.865,0.863c0,0,0.001,0,0.002,0h3.028
	c0.477,0.003,0.866-0.383,0.867-0.86c0,0,0-0.002,0-0.003V97.431L-633.366,97.431z M-625.8,97.431c0-0.478-0.388-0.864-0.865-0.862
	c-0.001,0-0.001,0-0.002,0h-3.027c-0.477-0.003-0.866,0.383-0.867,0.859c0,0.002,0,0.002,0,0.003v3c0,0.478,0.388,0.864,0.865,0.863
	c0,0,0.001,0,0.002,0h3.027c0.478,0.002,0.866-0.384,0.867-0.86c0-0.002,0-0.002,0-0.003V97.431z M-618.234,97.431
	c0-0.478-0.387-0.864-0.865-0.862h-0.001h-3.028c-0.477-0.003-0.865,0.383-0.867,0.859c0,0.002,0,0.002,0,0.003v3
	c0.001,0.478,0.388,0.864,0.865,0.863c0.001,0,0.001,0,0.002,0h3.028c0.477,0.002,0.865-0.384,0.866-0.86c0-0.002,0-0.002,0-0.003
	V97.431z M-633.366,104.938c0-0.478-0.387-0.864-0.864-0.863c-0.001,0-0.002,0-0.003,0h-3.028c-0.477-0.001-0.865,0.384-0.867,0.86
	c0,0.002,0,0.002,0,0.003v3.001c0,0.477,0.388,0.863,0.865,0.863c0,0,0.001,0,0.002,0h3.028c0.477,0.002,0.866-0.384,0.867-0.861
	v-0.002V104.938L-633.366,104.938z M-625.8,104.938c0-0.478-0.388-0.864-0.865-0.863c-0.001,0-0.001,0-0.002,0h-3.027
	c-0.477-0.002-0.866,0.384-0.867,0.86c0,0.001,0,0.002,0,0.003v3.001c0,0.477,0.388,0.863,0.865,0.863c0,0,0.001,0,0.002,0h3.027
	c0.478,0.001,0.866-0.385,0.867-0.861c0-0.002,0-0.002,0-0.002V104.938z M-618.234,104.938c0-0.478-0.387-0.864-0.865-0.863h-0.001
	h-3.028c-0.477-0.002-0.865,0.384-0.867,0.86c0,0.001,0,0.002,0,0.003v3.001c0.001,0.477,0.388,0.863,0.865,0.863
	c0.001,0,0.001,0,0.002,0h3.028c0.477,0.001,0.865-0.385,0.866-0.861c0-0.002,0-0.002,0-0.002V104.938L-618.234,104.938z
	 M-612.82,80.727v4.59c-0.01,2.077-1.702,3.754-3.779,3.743c-0.001,0-0.004,0-0.006,0h-2.387c-2.084,0.015-3.787-1.659-3.807-3.743
	v-4.605h-10.762v4.605c-0.021,2.084-1.724,3.758-3.807,3.743h-2.388c-2.077,0.013-3.771-1.66-3.785-3.737c0-0.002,0-0.004,0-0.006
	v-4.59c-1.842,0.055-3.311,1.555-3.327,3.396v26.889c0.006,1.889,1.538,3.416,3.426,3.419h30.523
	c1.888-0.004,3.418-1.53,3.425-3.419V84.123C-609.509,82.281-610.979,80.781-612.82,80.727L-612.82,80.727z M-613.929,109.336
	c-0.002,0.815-0.666,1.475-1.481,1.473h-25.607c-0.815,0.002-1.479-0.657-1.481-1.473V95.451c0.002-0.814,0.666-1.475,1.481-1.473
	h25.607c0.816-0.002,1.479,0.658,1.481,1.473V109.336L-613.929,109.336L-613.929,109.336z M-639.765,86.604h2.363
	c0.713,0.002,1.294-0.573,1.298-1.287v-7.524c-0.004-0.713-0.585-1.288-1.298-1.286h-2.363c-0.714-0.002-1.294,0.573-1.298,1.286
	v7.524C-641.06,86.03-640.479,86.605-639.765,86.604L-639.765,86.604z M-619.022,86.604h2.363c0.713,0.002,1.294-0.573,1.297-1.287
	v-7.524c-0.003-0.713-0.584-1.288-1.297-1.286h-2.363c-0.714-0.002-1.295,0.573-1.298,1.286v7.524
	C-620.317,86.03-619.736,86.605-619.022,86.604L-619.022,86.604z"/>
<g id="XMLID_40_">
	<path id="XMLID_41_" fill="#F6B11F" d="M-599.267,104.739l-10.721,10.724c-0.082,0.08-0.244,0.16-0.324,0.16
		c-0.082,0-0.24-0.08-0.322-0.16l-5.078-5.159c-0.082-0.081-0.163-0.242-0.163-0.325c0-0.079,0.081-0.239,0.163-0.32l1.692-1.692
		c0.159-0.162,0.483-0.162,0.642,0l3.065,3.063l8.707-8.708c0.162-0.161,0.483-0.161,0.645,0l1.693,1.693
		c0.081,0.081,0.162,0.242,0.162,0.322C-599.186,104.499-599.186,104.66-599.267,104.739z M-619.743,102.725v14.833h14.833l0,0
		v-4.515l2.338-2.417v8.868c0,0.239-0.243,0.482-0.483,0.482h-18.543c-0.243,0-0.483-0.243-0.483-0.482v-18.542
		c0-0.243,0.24-0.484,0.483-0.484h18.543c0.24,0,0.483,0.241,0.483,0.484l-2.017,1.854h-15.154V102.725z"/>
</g>
<path fill="none" stroke="#F6B11F" stroke-width="4" stroke-dasharray="10,10" d="M-568.761,317.771c0,0,63.918-1.021,67.918,26.979
	s-73.606,14.332-12.803-69.334"/>
<path fill="none" stroke="#F6B11F" stroke-width="4" stroke-dasharray="10,10" d="M-689.222,266.1
	c-5.402-6.642,14.481,27.527,51.504,16.752"/>
<g id="XMLID_90_">
	<circle id="XMLID_91_" fill="#04529D" cx="-738.671" cy="261.479" r="47.354"/>
</g>
<g id="XMLID_88_">
	<circle id="XMLID_89_" fill="#04529D" cx="-616.116" cy="317.771" r="47.354"/>
</g>
<g id="XMLID_86_">
	<circle id="XMLID_87_" fill="#04529D" cx="-466.554" cy="270.416" r="47.354"/>
</g>
<g id="XMLID_84_">
	<circle id="XMLID_85_" fill="#04529D" cx="-327.694" cy="322.771" r="47.354"/>
</g>
<g id="XMLID_82_">
	<circle id="XMLID_83_" fill="#04529D" cx="-197.463" cy="283.416" r="47.354"/>
</g>
<path fill="none" stroke="#F6B11F" stroke-width="4" stroke-dasharray="10,10" d="M-419.199,261.479
	c0,0,16.942,23.976,44.149,13.623c0,0,47.355-47.353,52.365,0.577"/>
<path fill="none" stroke="#F6B11F" stroke-width="4" stroke-dasharray="10,10" d="M-306.5,365.125c0,0,36.629,42.281,47.511,0
	c0,0-3.585-87.429,14.172-87.429"/>
<g id="XMLID_78_">
	<path id="XMLID_79_" fill="#F6B11F" d="M-720.993,243.134l-9.482,9.484c-0.072,0.071-0.215,0.143-0.287,0.143
		c-0.072,0-0.213-0.071-0.285-0.143l-4.492-4.563c-0.072-0.071-0.144-0.214-0.144-0.287c0-0.071,0.072-0.211,0.144-0.283
		l1.498-1.497c0.141-0.144,0.427-0.144,0.568,0l2.711,2.71l7.701-7.702c0.143-0.143,0.427-0.143,0.57,0l1.497,1.497
		c0.072,0.071,0.144,0.214,0.144,0.285C-720.921,242.921-720.921,243.063-720.993,243.134z M-739.104,241.352v13.119h13.119l0,0
		v-3.992l2.068-2.139v7.844c0,0.212-0.215,0.428-0.427,0.428h-16.4c-0.215,0-0.428-0.216-0.428-0.428v-16.4
		c0-0.215,0.213-0.428,0.428-0.428h16.4c0.212,0,0.427,0.213,0.427,0.428l-1.784,1.641h-13.404V241.352z"/>
</g>
<g id="XMLID_75_">
	<path id="XMLID_77_" fill="#FFFFFF" d="M-469.409,253.489c-2.053,0-3.671,1.618-3.671,3.671c0,2.054,1.619,3.672,3.671,3.672
		c2.055,0,3.672-1.618,3.672-3.672C-465.737,255.107-467.354,253.489-469.409,253.489z"/>
	<path id="XMLID_76_" fill="#FFFFFF" d="M-449.558,259.09c-0.25-0.188-0.498-0.188-0.811-0.125l-10.826,4.045
		c0.311-0.622,0.621-1.182,0.871-1.742c0.559-1.307,0.871-2.676,0.871-4.107c0-5.537-4.48-10.018-10.02-10.018
		c-5.537,0-10.017,4.48-10.017,10.018c0,0.498,0.063,1.059,0.125,1.557l-9.77,3.422c-0.313,0.125-0.561,0.436-0.561,0.809v21.406
		c0,0.249,0.125,0.561,0.373,0.685c0.248,0.187,0.498,0.187,0.746,0.124l11.574-4.045l13.814,5.602
		c0.125,0.062,0.188,0.062,0.311,0.062c0.125,0,0.188,0,0.313-0.062l12.693-4.729c0.313-0.124,0.561-0.436,0.561-0.81v-21.406
		C-449.185,259.525-449.372,259.214-449.558,259.09z M-465.737,280.122c0,0-0.561,1.12-3.672,1.12c-3.173,0-3.671-1.12-3.671-1.12
		c0-0.124,0-0.187,0-0.249c0,0,0,0,0-0.187c0.063-2.24,0.375-2.862,2.615-3.298c0,0,0.311,0.436,1.057,0.436
		s1.059-0.436,1.059-0.436c2.303,0.436,2.551,1.058,2.613,3.36c0,0.124,0,0.187,0,0.187
		C-465.737,279.998-465.737,280.061-465.737,280.122z M-471.399,273.899c0-1.307,0.311-2.364,1.928-2.364
		c1.682,0,1.93,1.058,1.93,2.364c0,1.308-0.871,2.364-1.93,2.364C-470.528,276.264-471.399,275.207-471.399,273.899z
		 M-462.937,260.023c-1.742,3.857-5.166,7.965-6.162,9.084c-0.061,0.063-0.186,0.125-0.311,0.125s-0.248-0.063-0.311-0.125
		c-0.996-1.182-4.417-5.227-6.16-9.084c-0.436-0.871-0.623-1.867-0.623-2.863c0-3.92,3.174-7.094,7.093-7.094
		c3.92,0,7.094,3.174,7.094,7.094C-462.315,258.156-462.563,259.152-462.937,260.023z"/>
</g>
<g id="XMLID_73_">
	<path id="XMLID_74_" fill="#F6B11F" d="M-439.54,259.338l-8.275,8.277c-0.063,0.062-0.188,0.124-0.25,0.124
		s-0.186-0.063-0.248-0.124l-3.92-3.982c-0.063-0.063-0.125-0.188-0.125-0.25s0.063-0.186,0.125-0.248l1.307-1.307
		c0.123-0.125,0.373-0.125,0.496,0l2.365,2.364l6.721-6.721c0.125-0.124,0.373-0.124,0.498,0l1.307,1.307
		c0.063,0.063,0.125,0.187,0.125,0.249C-439.478,259.152-439.478,259.276-439.54,259.338z M-455.345,257.783v11.449h11.449l0,0
		v-3.484l1.805-1.867v6.846c0,0.186-0.188,0.373-0.373,0.373h-14.313c-0.188,0-0.373-0.188-0.373-0.373v-14.313
		c0-0.188,0.186-0.373,0.373-0.373h14.313c0.186,0,0.373,0.186,0.373,0.373l-1.557,1.432h-11.697V257.783z"/>
</g>
<path id="Forma_1_8_" fill="#FFFFFF" d="M-748.38,252.322h3.767v4.229h2.484V242.3c-0.001-0.982-0.798-1.779-1.781-1.779h-17.587
	c-0.985-0.002-1.783,0.795-1.785,1.779l0,0v36.168c0.002,0.983,0.802,1.779,1.785,1.779h6.327v-11.578h4.902v-9.691
	c0.054-1.092,0.824-2.017,1.887-2.269L-748.38,252.322L-748.38,252.322L-748.38,252.322z M-748.38,244.082h3.767v5.345h-3.767
	V244.082L-748.38,244.082z M-756.966,274.132h-3.765v-5.345h3.766L-756.966,274.132L-756.966,274.132z M-756.966,266.309h-3.765
	v-5.349h3.766v5.346L-756.966,266.309z M-756.966,257.666h-3.765v-5.344h3.766L-756.966,257.666L-756.966,257.666z
	 M-756.966,249.427h-3.765v-5.345h3.766L-756.966,249.427L-756.966,249.427z M-750.687,266.308h-3.763v-5.348h3.765v5.346
	L-750.687,266.308z M-750.687,257.666h-3.763v-5.344h3.765v5.344H-750.687z M-750.687,249.427h-3.763v-5.345h3.765v5.345H-750.687z
	 M-732.116,257.979h-14.896c-0.833,0-1.509,0.448-1.509,0.998v20.273c0,0.553,0.676,0.998,1.509,0.998h5.36v-6.49h4.303v6.488h5.233
	c0.833,0,1.509-0.45,1.509-1v-20.27C-730.605,258.426-731.282,257.979-732.116,257.979z M-743.173,276.82h-3.189v-2.995h3.188
	L-743.173,276.82L-743.173,276.82z M-743.173,272.435h-3.189v-2.995h3.188L-743.173,272.435L-743.173,272.435z M-743.173,267.591
	h-3.189v-2.995h3.188L-743.173,267.591L-743.173,267.591z M-743.173,262.972h-3.189v-2.995h3.188L-743.173,262.972L-743.173,262.972
	z M-737.854,272.435h-3.188v-2.995h3.188L-737.854,272.435L-737.854,272.435z M-737.854,267.591h-3.188v-2.995h3.188
	L-737.854,267.591L-737.854,267.591z M-737.854,262.972h-3.188v-2.995h3.188L-737.854,262.972L-737.854,262.972z M-732.714,276.887
	h-3.186v-2.995h3.188v2.995H-732.714z M-732.714,272.435h-3.186v-2.995h3.188v2.995H-732.714z M-732.714,267.591h-3.186v-2.995
	h3.188v2.995H-732.714z M-732.714,262.973h-3.186v-2.996h3.188v2.995L-732.714,262.973z"/>
<path fill="#FFFFFF" d="M-309.892,298.797h-35.61c-0.996,0.011-1.795,0.826-1.782,1.822v0.001v26.073
	c-0.014,0.996,0.785,1.814,1.781,1.825h0.001h1.778v-0.608c-0.007-1.447,0.557-2.836,1.566-3.871
	c0.989-1.025,2.354-1.604,3.778-1.603c0.122,0,0.245,0.007,0.368,0.013c-1.184-2.208-3.268-3.793-5.713-4.34v-8.904
	c3.34-0.756,5.923-3.403,6.597-6.76h18.862c0.674,3.356,3.257,6.004,6.597,6.76v8.905c-3.34,0.755-5.923,3.401-6.597,6.759h-15.67
	c0.588,0.905,0.898,1.962,0.895,3.041v0.608h23.148c0.996-0.011,1.795-0.827,1.785-1.823c0-0.001,0-0.002,0-0.002V300.62
	c0.011-0.995-0.786-1.812-1.783-1.823C-309.891,298.797-309.891,298.797-309.892,298.797z M-327.695,318.905
	c3.619,0,6.454-2.304,6.454-5.245c0-2.94-2.835-5.252-6.454-5.252c-3.621,0-6.456,2.305-6.456,5.252
	S-331.316,318.905-327.695,318.905z M-333.04,332.167v0.188c4.211,0.925,7.2,4.669,7.168,8.981c0.025,0.982-0.75,1.801-1.734,1.826
	c-0.982,0.025-1.802-0.751-1.826-1.734c0-0.03,0-0.062,0-0.092c0.033-3.008-2.376-5.475-5.384-5.514
	c-0.997-0.014-1.795-0.83-1.785-1.824v-6.088c0.004-0.482-0.184-0.947-0.521-1.292c-0.327-0.342-0.783-0.534-1.256-0.532
	c-0.477,0.002-0.93,0.193-1.265,0.532c-0.332,0.347-0.521,0.811-0.52,1.292v9.706c-0.006,3.418,1.34,6.699,3.743,9.128h17.447
	c2.404-2.43,3.748-5.711,3.744-9.128v-5.449H-333.04L-333.04,332.167z"/>
<path id="Forma_1_7_" fill="#FFFFFF" d="M-621.301,318.64c0-0.478-0.387-0.864-0.864-0.862c-0.001,0-0.002,0-0.003,0h-3.028
	c-0.477-0.003-0.865,0.383-0.867,0.859c0,0.002,0,0.002,0,0.003v3c0,0.478,0.388,0.864,0.865,0.863c0,0,0.001,0,0.002,0h3.028
	c0.477,0.003,0.866-0.383,0.867-0.86c0,0,0-0.002,0-0.003V318.64L-621.301,318.64z M-613.735,318.64
	c0-0.478-0.388-0.864-0.865-0.862c-0.001,0-0.001,0-0.002,0h-3.027c-0.477-0.003-0.866,0.383-0.867,0.859c0,0.002,0,0.002,0,0.003v3
	c0,0.478,0.388,0.864,0.865,0.863c0,0,0.001,0,0.002,0h3.027c0.478,0.002,0.866-0.384,0.867-0.86c0-0.002,0-0.002,0-0.003V318.64z
	 M-606.169,318.64c0-0.478-0.387-0.864-0.865-0.862h-0.001h-3.028c-0.477-0.003-0.865,0.383-0.867,0.859c0,0.002,0,0.002,0,0.003v3
	c0.001,0.478,0.388,0.864,0.865,0.863c0.001,0,0.001,0,0.002,0h3.028c0.477,0.002,0.865-0.384,0.866-0.86c0-0.002,0-0.002,0-0.003
	V318.64z M-621.301,326.147c0-0.478-0.387-0.864-0.864-0.863c-0.001,0-0.002,0-0.003,0h-3.028c-0.477-0.001-0.865,0.384-0.867,0.86
	c0,0.002,0,0.002,0,0.003v3.001c0,0.477,0.388,0.863,0.865,0.863c0,0,0.001,0,0.002,0h3.028c0.477,0.002,0.866-0.384,0.867-0.861
	v-0.002V326.147L-621.301,326.147z M-613.735,326.147c0-0.478-0.388-0.864-0.865-0.863c-0.001,0-0.001,0-0.002,0h-3.027
	c-0.477-0.002-0.866,0.384-0.867,0.86c0,0.001,0,0.002,0,0.003v3.001c0,0.477,0.388,0.863,0.865,0.863c0,0,0.001,0,0.002,0h3.027
	c0.478,0.001,0.866-0.385,0.867-0.861c0-0.002,0-0.002,0-0.002V326.147z M-606.169,326.147c0-0.478-0.387-0.864-0.865-0.863h-0.001
	h-3.028c-0.477-0.002-0.865,0.384-0.867,0.86c0,0.001,0,0.002,0,0.003v3.001c0.001,0.477,0.388,0.863,0.865,0.863
	c0.001,0,0.001,0,0.002,0h3.028c0.477,0.001,0.865-0.385,0.866-0.861c0-0.002,0-0.002,0-0.002V326.147L-606.169,326.147z
	 M-600.755,301.936v4.59c-0.01,2.077-1.702,3.754-3.779,3.743c-0.001,0-0.004,0-0.006,0h-2.387
	c-2.084,0.015-3.787-1.659-3.807-3.743v-4.605h-10.762v4.605c-0.021,2.084-1.724,3.758-3.807,3.743h-2.388
	c-2.077,0.013-3.771-1.66-3.785-3.737c0-0.002,0-0.004,0-0.006v-4.59c-1.842,0.055-3.311,1.555-3.327,3.396v26.889
	c0.006,1.889,1.538,3.416,3.426,3.419h30.523c1.888-0.004,3.418-1.53,3.425-3.419v-26.889
	C-597.444,303.49-598.914,301.99-600.755,301.936L-600.755,301.936z M-601.864,330.545c-0.002,0.815-0.666,1.475-1.481,1.473
	h-25.607c-0.815,0.002-1.479-0.657-1.481-1.473V316.66c0.002-0.814,0.666-1.475,1.481-1.473h25.607
	c0.816-0.002,1.479,0.658,1.481,1.473V330.545L-601.864,330.545L-601.864,330.545z M-627.7,307.813h2.363
	c0.713,0.002,1.294-0.573,1.298-1.287v-7.524c-0.004-0.713-0.585-1.288-1.298-1.286h-2.363c-0.714-0.002-1.294,0.573-1.298,1.286
	v7.524C-628.995,307.239-628.414,307.814-627.7,307.813L-627.7,307.813z M-606.958,307.813h2.363
	c0.713,0.002,1.294-0.573,1.297-1.287v-7.524c-0.003-0.713-0.584-1.288-1.297-1.286h-2.363c-0.714-0.002-1.295,0.573-1.298,1.286
	v7.524C-608.252,307.239-607.671,307.814-606.958,307.813L-606.958,307.813z"/>
<g id="XMLID_71_">
	<path id="XMLID_72_" fill="#F6B11F" d="M-587.202,325.948l-10.721,10.724c-0.082,0.08-0.244,0.16-0.324,0.16
		c-0.082,0-0.24-0.08-0.322-0.16l-5.078-5.159c-0.082-0.081-0.163-0.242-0.163-0.325c0-0.079,0.081-0.239,0.163-0.32l1.692-1.692
		c0.159-0.162,0.483-0.162,0.642,0l3.065,3.063l8.707-8.708c0.162-0.161,0.483-0.161,0.645,0l1.693,1.693
		c0.081,0.081,0.162,0.242,0.162,0.322C-587.121,325.708-587.121,325.869-587.202,325.948z M-607.678,323.934v14.833h14.833l0,0
		v-4.515l2.338-2.417v8.868c0,0.239-0.243,0.482-0.483,0.482h-18.543c-0.243,0-0.483-0.243-0.483-0.482v-18.542
		c0-0.243,0.24-0.484,0.483-0.484h18.543c0.24,0,0.483,0.241,0.483,0.484l-2.017,1.854h-15.154V323.934z"/>
</g>
<path fill="#FFFFFF" d="M-213.605,48.378c2.319-0.012,4.204-1.878,4.239-4.198h-8.474
	C-217.805,46.497-215.924,48.363-213.605,48.378z M-219.557,39.909c0.492,0.379,1.097,0.584,1.718,0.585v1.95h8.474v-1.95
	c0.62,0,1.223-0.206,1.712-0.585c1.253-0.967,1.484-2.768,0.518-4.02c-0.534-0.692-1.354-1.104-2.229-1.115
	c-0.538,0-1.063,0.155-1.515,0.447c-0.277-1.533-1.744-2.551-3.277-2.273c-1.136,0.205-2.033,1.082-2.263,2.214
	c-0.43-0.253-0.921-0.387-1.419-0.388c-1.569,0.008-2.835,1.285-2.827,2.854c0,0.004,0,0.007,0,0.01
	C-220.668,38.525-220.258,39.364-219.557,39.909z M-188.492,54.688c-0.037-0.041-0.088-0.066-0.144-0.066
	c-0.056,0.002-0.108,0.025-0.148,0.066c-0.858,0.867-2.258,0.875-3.126,0.018c-0.005-0.006-0.011-0.012-0.017-0.018
	c-0.038-0.043-0.093-0.067-0.149-0.066c-0.056,0-0.107,0.025-0.144,0.066c-0.415,0.42-0.982,0.656-1.574,0.656l0,0
	c-0.589,0-1.155-0.236-1.567-0.656c-0.039-0.042-0.094-0.066-0.15-0.066c-0.057,0.002-0.109,0.025-0.148,0.066
	c-0.413,0.42-0.979,0.656-1.569,0.656s-1.157-0.236-1.575-0.656c-0.035-0.041-0.087-0.066-0.142-0.066
	c-0.057,0.002-0.11,0.025-0.149,0.066c-0.5,0.501-1.208,0.734-1.909,0.632l0.46,1.139c0.106,0.259,0.301,0.472,0.548,0.603
	l-3.279,1.474l0.013-3.889v-0.024c-0.001-2.676-2.161-4.852-4.838-4.872h-3.059l-4.301,2.923l-0.31,0.208v15.06
	c0.001,0.451-0.363,0.816-0.814,0.818c-0.452,0.001-0.818-0.363-0.819-0.814c0-0.002,0-0.003,0-0.004v-15.5
	c0.001-0.275,0.137-0.531,0.363-0.687c0.155-0.107,2.772-1.891,2.945-2.004h-5.009c-2.676,0.021-4.836,2.196-4.838,4.872
	l-0.018,3.34l-3.995-2.582c-0.316-0.206-0.685-0.317-1.062-0.322c-0.215-0.588-0.398-1.188-0.549-1.795
	c0.37-1.205,1.354-4.699,0.9-6.178c-0.568-1.889-2.56-2.959-4.447-2.391c-0.01,0.004-0.021,0.007-0.032,0.01h-0.005
	c-1.891,0.616-2.937,2.635-2.35,4.533l0,0c0.459,1.484,3.239,3.799,4.217,4.574c0.245,0.669,0.453,1.352,0.62,2.045
	c-0.704,0.914-0.534,2.225,0.379,2.928c0.084,0.064,0.172,0.123,0.265,0.174l0.501,2.457c0.156,0.787,0.921,1.299,1.708,1.143
	c0.052-0.01,0.103-0.023,0.152-0.039c0.601-0.193,1.011-0.748,1.021-1.377l3.603,2.331c0.628,0.404,1.426,0.432,2.082,0.071
	c0.652-0.367,1.06-1.057,1.066-1.807l0.03-7.091c0.002-0.422,0.347-0.762,0.769-0.759c0.014,0,0.028,0,0.042,0.002l0.007,35.568
	c-0.004,1.354,1.093,2.456,2.448,2.459s2.456-1.094,2.459-2.449c0-0.002,0-0.006,0-0.01v-19.33c0-0.291,0.236-0.527,0.527-0.527
	c0.292,0,0.529,0.236,0.529,0.527l0,0v19.33c-0.004,1.354,1.093,2.456,2.448,2.459s2.457-1.094,2.459-2.449c0-0.002,0-0.006,0-0.01
	l-0.041-35.568c0.42-0.049,0.8,0.254,0.848,0.674c0.003,0.025,0.004,0.052,0.005,0.077l-0.03,7.073
	c-0.003,0.701,0.347,1.357,0.931,1.747c0.578,0.382,1.313,0.44,1.945,0.155l7.942-3.566c1.038-0.471,1.504-1.689,1.043-2.732
	c-0.018-0.035-0.035-0.07-0.058-0.112h7.436c0.488,0.003,0.928-0.296,1.104-0.751l0.46-1.134c-0.11,0.017-0.222,0.024-0.334,0.024
	C-187.508,55.345-188.076,55.108-188.492,54.688z M-230.388,47.627c0.073,0.781,0.008,1.568-0.197,2.325l-1.091-3.535
	C-231.063,46.565-230.574,47.024-230.388,47.627L-230.388,47.627z M-233.775,48.694c-0.184-0.605-0.04-1.263,0.381-1.734
	l1.086,3.535C-232.901,49.989-233.399,49.378-233.775,48.694L-233.775,48.694z M-213.659,55.756
	c-0.458,0.003-0.832-0.365-0.835-0.823c-0.003-0.457,0.365-0.832,0.823-0.835s0.831,0.365,0.834,0.823c0,0.002,0,0.004,0,0.006
	C-212.836,55.382-213.204,55.753-213.659,55.756L-213.659,55.756z M-212.836,60.586c-0.005,0.453-0.376,0.816-0.829,0.811
	c-0.453-0.004-0.816-0.376-0.811-0.827c0.005-0.449,0.368-0.811,0.817-0.813C-213.203,59.759-212.834,60.13-212.836,60.586
	L-212.836,60.586L-212.836,60.586z M-213.659,67.075c-0.458,0.004-0.832-0.365-0.835-0.823s0.365-0.831,0.823-0.835
	c0.458-0.003,0.831,0.365,0.834,0.823c0,0.002,0,0.003,0,0.006c0.003,0.455-0.365,0.827-0.82,0.829
	C-213.658,67.075-213.658,67.075-213.659,67.075L-213.659,67.075z M-210.218,59.757c0.458-0.003,0.832,0.365,0.835,0.824
	c0.004,0.457-0.365,0.831-0.823,0.834c-0.457,0.004-0.831-0.365-0.834-0.822c0-0.002,0-0.004,0-0.007
	c-0.003-0.455,0.364-0.826,0.82-0.829C-210.22,59.757-210.219,59.757-210.218,59.757L-210.218,59.757z M-211.041,54.927
	c0.004-0.453,0.376-0.816,0.829-0.811c0.453,0.004,0.816,0.375,0.81,0.828c-0.004,0.448-0.368,0.81-0.816,0.812
	C-210.674,55.754-211.042,55.382-211.041,54.927L-211.041,54.927z M-210.218,65.417c0.458-0.003,0.832,0.365,0.835,0.823
	c0.004,0.458-0.365,0.832-0.823,0.835c-0.457,0.004-0.831-0.365-0.834-0.823c0-0.002,0-0.005,0-0.006
	c-0.003-0.455,0.364-0.827,0.82-0.829C-210.22,65.417-210.219,65.417-210.218,65.417L-210.218,65.417z M-186,50.835
	c-0.81-1.268-1.992-2.254-3.387-2.82c-1.395-0.549-2.869-0.867-4.365-0.942h-0.084c-1.495,0.074-2.968,0.394-4.359,0.942
	c-1.396,0.566-2.581,1.552-3.395,2.82c-0.5,0.854-0.655,1.855,0.037,2.559l0.023,0.024c0.475,0.476,1.244,0.478,1.722,0.003
	c0.001-0.001,0.001-0.002,0.002-0.003c0.471-0.475,1.237-0.478,1.71-0.007c0.003,0.002,0.006,0.004,0.008,0.007l0,0
	c0.457,0.474,1.213,0.488,1.688,0.031c0.01-0.011,0.021-0.021,0.03-0.031c0.471-0.475,1.236-0.478,1.71-0.007
	c0.003,0.002,0.006,0.004,0.007,0.007c0.228,0.23,0.537,0.361,0.859,0.364l0,0c0.323-0.002,0.633-0.133,0.858-0.364
	c0.471-0.475,1.237-0.478,1.711-0.007c0.002,0.002,0.005,0.004,0.007,0.007c0.229,0.231,0.54,0.362,0.865,0.364
	c0.323-0.002,0.632-0.133,0.858-0.364l0,0c0.471-0.475,1.236-0.478,1.711-0.007c0.001,0.002,0.005,0.004,0.007,0.007
	c0.471,0.474,1.235,0.478,1.71,0.007c0.003-0.002,0.006-0.004,0.008-0.007l0.028-0.024C-185.336,52.69-185.499,51.688-186,50.835
	L-186,50.835z M-196.423,49.899c-0.254,0.258-0.67,0.262-0.928,0.008c-0.004-0.002-0.006-0.006-0.009-0.008
	c-0.263-0.264-0.263-0.691,0-0.955c0.257-0.262,1.349-0.936,1.604-0.674C-195.5,48.534-196.161,49.636-196.423,49.899
	L-196.423,49.899z M-193.793,50.96c-0.368-0.002-0.664-0.303-0.662-0.671c0-0.001,0-0.001,0-0.002c0-0.37,0.298-1.628,0.662-1.628
	s0.668,1.258,0.668,1.628c0.003,0.368-0.293,0.671-0.661,0.673C-193.79,50.96-193.792,50.96-193.793,50.96L-193.793,50.96z
	 M-190.221,49.899c-0.258,0.26-0.677,0.262-0.937,0.006c-0.002-0.003-0.003-0.004-0.006-0.006c-0.256-0.264-0.924-1.365-0.662-1.629
	c0.262-0.262,1.343,0.412,1.604,0.674C-189.965,49.212-189.965,49.633-190.221,49.899L-190.221,49.899z"/>
<path id="Forma_1" fill="#FFFFFF" d="M-195.464,285.546c3.397,0,11.376-4.082,11.376-13.858c0-1.362-0.035-2.683-0.149-3.926
	c-0.184-2.451-0.685-4.617-1.939-6.283c-1.601-2.266-4.408-3.647-9.287-3.647c-4.88,0-7.682,1.381-9.288,3.647
	c-1.249,1.66-1.755,3.833-1.939,6.283c-0.113,1.244-0.143,2.564-0.143,3.926C-206.834,281.465-198.855,285.546-195.464,285.546z
	 M-191.751,262.907c-0.333,0.839-0.494,1.255-0.827,2.095c-1.874-0.607-3.892-0.607-5.766,0c-0.334-0.839-0.499-1.256-0.833-2.095
	C-196.768,262.098-194.16,262.098-191.751,262.907L-191.751,262.907z M-205.144,269.571c0.13,0.286,0.69,1.386,1.552,1.488
	c0.988,0.118,2.63-3.505,8.128-3.511c5.498,0.006,7.14,3.628,8.133,3.511c0.863-0.102,1.416-1.202,1.548-1.488
	c0.029,0.702,0.035,1.409,0.035,2.117c0.109,3.539-1.303,6.955-3.879,9.384c-2.237,2.07-4.712,2.819-5.837,2.819
	c-1.126,0-3.6-0.749-5.831-2.819c-2.581-2.426-3.995-5.843-3.885-9.384C-205.18,270.98-205.168,270.273-205.144,269.571
	L-205.144,269.571z M-174.349,299.76c-0.583-3.611-1.778-8.252-4.177-9.906c-1.636-1.125-7.348-4.177-9.78-5.474l-0.048-0.024
	c-0.279-0.148-0.618-0.12-0.869,0.071c-1.218,0.975-2.639,1.663-4.159,2.011c-0.262,0.057-0.478,0.243-0.57,0.494l-1.512,3.974
	l-1.511-3.974c-0.095-0.251-0.311-0.438-0.572-0.494c-1.52-0.349-2.94-1.037-4.158-2.011c-0.25-0.194-0.591-0.222-0.868-0.071
	c-2.41,1.285-8.193,4.396-9.824,5.491c-2.755,1.856-3.962,8.58-4.177,9.912c-0.023,0.132-0.011,0.268,0.036,0.393
	c0.065,0.185,1.256,3.26,7.782,5.218v-3.356c0-1.445,1.172-2.618,2.618-2.618l0,0h10.674c1.444,0.004,2.613,1.174,2.617,2.618v0.268
	h4.457l2.868-0.756c0.116-0.028,0.236-0.042,0.356-0.041c0.084,0,0.167,0.006,0.25,0.018l4.54,0.821
	c0.671,0.12,1.159,0.705,1.16,1.386v0.554c3.95-1.832,4.771-3.957,4.83-4.111C-174.343,300.026-174.331,299.892-174.349,299.76
	L-174.349,299.76z M-188.205,303.687h-6.052v-1.672c0-0.667-0.54-1.208-1.207-1.208h-10.674c-0.667,0-1.208,0.541-1.208,1.208v5.777
	c0,0.667,0.541,1.208,1.208,1.208h10.674c0.667-0.001,1.207-0.542,1.207-1.208v-1.678h6.052l3.04,0.803l4.54-0.822v-2.386
	l-4.54-0.821L-188.205,303.687z M-197.381,307.138h-6.848c-0.379,0-0.687-0.308-0.687-0.688c0-0.379,0.308-0.687,0.687-0.687h6.848
	c0.381,0,0.688,0.308,0.688,0.687C-196.692,306.83-197,307.138-197.381,307.138L-197.381,307.138z M-197.381,304.044h-6.848
	c-0.379-0.003-0.685-0.312-0.684-0.69c-0.002-0.376,0.301-0.683,0.677-0.685c0.003,0,0.005,0,0.007,0h6.848
	c0.364-0.109,0.756,0.128,0.864,0.492s-0.099,0.746-0.463,0.854C-197.107,304.053-197.243,304.053-197.381,304.044L-197.381,304.044
	z"/>
<g id="XMLID_80_">
	<path id="XMLID_81_" fill="#F8BA45" d="M-172.604,293.31c-0.811,0.934-1.992,1.369-3.486,1.369c-2.986,0-6.346-1.742-7.031-2.116
		c-0.123-0.062-0.186-0.186-0.186-0.373v-9.146c0-0.188,0.123-0.374,0.311-0.374c0.684-0.124,4.107-0.871,4.979-3.671
		c0.373-1.245,1.244-2.116,2.053-2.116c0.373,0,0.686,0.187,0.934,0.498c0.623,0.933,0.373,2.987-0.684,5.601
		c0.248-0.063,0.559-0.125,0.809-0.125c1.119,0,3.049,0.561,3.484,4.418C-171.112,290.074-171.548,292.127-172.604,293.31z
		 M-184.927,293.061h-3.111c-0.186,0-0.373-0.187-0.373-0.373v-10.143c0-0.25,0.188-0.374,0.373-0.374h3.111
		c0.188,0,0.373,0.187,0.373,0.374v10.143C-184.554,292.874-184.739,293.061-184.927,293.061z M-186.481,290.758
		c-0.436,0-0.748,0.374-0.748,0.747c0,0.436,0.313,0.747,0.748,0.747s0.746-0.373,0.746-0.747
		C-185.735,291.069-186.046,290.758-186.481,290.758z"/>
</g>
</svg>
