
<svg width="941px" height="368px" viewBox="0 0 941 368" version="1.1" xmlns="http://www.w3.org/2000/svg" xmlns:xlink="http://www.w3.org/1999/xlink">
    <!-- Generator: Sketch 39 (31667) - http://www.bohemiancoding.com/sketch -->
    <title>Group</title>
    <desc>Created with Sketch.</desc>
    <defs></defs>
    <g id="Page-1" stroke="none" stroke-width="1" fill="none" fill-rule="evenodd">
        <g id="servicios" transform="translate(-6.000000, -1.000000)">
            <g id="Group" transform="translate(6.000000, 0.000000)">
                <g id="Capa_1_1_">
                    <g id="XMLID_60_" transform="translate(399.824561, 106.307692)" stroke="#F6B11F" stroke-width="4" stroke-dasharray="10,10">
                        <path d="M0.805847953,99.2908435 C0.805847953,99.2908435 140.634415,52.2501857 129.834503,130.135958 C125.300058,163.007257 49.6014912,128.98035 89.8148538,58.3240955 C107.363743,27.4774324 130.510175,0.00619628647 130.510175,0.00619628647" id="XMLID_61_"></path>
                    </g>
                    <g id="XMLID_54_" transform="translate(129.904380, 85.898589)" stroke="#F6B11F" stroke-width="4" stroke-dasharray="10,10">
                        <path d="M0.23076623,0.26652506 C0.23076623,0.26652506 58.9584855,17.3295489 64.8411756,92.3247532 C69.9521113,157.390408 143.240883,141.290907 143.240883,141.290907" id="XMLID_59_"></path>
                    </g>
                    <g id="XMLID_23_" transform="translate(655.526316, 62.662515)" stroke="#F6B11F" stroke-width="4" stroke-dasharray="10,10">
                        <path d="M0.846140351,31.7932306 C0.846140351,31.7932306 44.5292982,75.4600105 79.4395614,40.6632147 C114.346725,5.76882745 149.642865,-8.3044882 165.070205,5.38465769 C180.500643,19.0722545 187.153538,42.4957664 187.153538,42.4957664" id="XMLID_24_"></path>
                    </g>
                    <g id="XMLID_28_" transform="translate(793.450292, 93.915119)" fill="#04529D">
                        <ellipse id="XMLID_29_" cx="74.1085673" cy="74.0889973" rx="73.3848538" ry="73.3547374"></ellipse>
                    </g>
                    <g id="XMLID_34_" transform="translate(264.728941, 138.838196)" fill="#04529D">
                        <ellipse id="XMLID_35_" cx="73.6063218" cy="73.6041379" rx="73.3848538" ry="73.3547374"></ellipse>
                    </g>
                    <g id="XMLID_55_" transform="translate(0.000000, 0.970822)" fill="#04529D">
                        <ellipse id="XMLID_56_" cx="73.6250585" cy="74.0130928" rx="73.3848538" ry="73.3547374"></ellipse>
                    </g>
                    <g id="XMLID_57_" transform="translate(523.530111, 48.992042)" fill="#04529D">
                        <ellipse id="XMLID_58_" cx="73.4389534" cy="73.9976021" rx="73.3848538" ry="73.3547374"></ellipse>
                    </g>
                    <g id="XMLID_14_" transform="translate(889.532164, 114.053050)" fill="#F8BA45">
                        <path d="M25.3780117,25.7083926 C24.1211988,27.1552255 22.2909942,27.8290716 19.975731,27.8290716 C15.3483041,27.8290716 10.1412865,25.1305889 9.07973684,24.5512361 C8.88912281,24.4551936 8.79149123,24.2631088 8.79149123,23.9734324 L8.79149123,9.80562334 C8.79149123,9.51439788 8.98210526,9.22627056 9.27345029,9.22627056 C10.3334503,9.03418568 15.6380994,7.87702918 16.9894444,3.53962865 C17.5674854,1.61103448 18.9172807,0.261793103 20.1709942,0.261793103 C20.7490351,0.261793103 21.2340936,0.551469496 21.6184211,1.03323077 C22.5838889,2.47851459 22.196462,5.66030769 20.5584211,9.7095809 C20.9427485,9.61198939 21.4247076,9.51594695 21.8121345,9.51594695 C23.5462573,9.51594695 26.537193,10.3849761 27.2113158,16.3597454 C27.6901754,20.6955968 27.0160526,23.8758408 25.3780117,25.7083926 L25.3780117,25.7083926 Z M6.28251462,25.3226737 L1.46137427,25.3226737 C1.17312865,25.3226737 0.883333333,25.0329973 0.883333333,24.74487 L0.883333333,9.0326366 C0.883333333,8.6453687 1.17467836,8.45328382 1.46137427,8.45328382 L6.28251462,8.45328382 C6.57385965,8.45328382 6.86055556,8.74296021 6.86055556,9.0326366 L6.86055556,24.74487 C6.86055556,25.0329973 6.57230994,25.3226737 6.28251462,25.3226737 L6.28251462,25.3226737 Z M3.8727193,21.7551618 C3.19704678,21.7551618 2.71353801,22.3345146 2.71353801,22.9123183 C2.71353801,23.5877135 3.19859649,24.0694748 3.8727193,24.0694748 C4.54684211,24.0694748 5.02880117,23.4916711 5.02880117,22.9123183 C5.02880117,22.2369231 4.54839181,21.7551618 3.8727193,21.7551618 L3.8727193,21.7551618 Z" id="XMLID_15_"></path>
                    </g>
                    <g id="XMLID_32_" transform="translate(559.444444, 84.620690)" fill="#FFFFFF">
                        <path d="M31.8340936,10.4144085 C28.6525439,10.4144085 26.1435673,12.9208064 26.1435673,16.1010504 C26.1435673,19.2828435 28.6525439,21.7892414 31.8340936,21.7892414 C35.0187427,21.7892414 37.5246199,19.2828435 37.5246199,16.1010504 C37.5246199,12.9208064 35.0187427,10.4144085 31.8340936,10.4144085 L31.8340936,10.4144085 Z" id="XMLID_30_"></path>
                        <path d="M62.5988889,19.0892095 C62.211462,18.7979841 61.8271345,18.7979841 61.342076,18.8955756 L44.5649415,25.1615703 C45.0469006,24.1980477 45.5273099,23.3305676 45.9147368,22.4630875 C46.7810234,20.4384509 47.2645322,18.3177719 47.2645322,16.1010504 C47.2645322,7.52384085 40.3218421,0.582450928 31.736462,0.582450928 C23.155731,0.582450928 16.2114912,7.52229178 16.2114912,16.1010504 C16.2114912,16.8724881 16.3091228,17.7415172 16.4052047,18.5129549 L1.2645614,23.813878 C0.779502924,24.0075119 0.395175439,24.4892732 0.395175439,25.0670769 L0.395175439,58.226504 C0.395175439,58.6122228 0.588888889,59.0955332 0.973216374,59.287618 C1.35754386,59.5772944 1.74497076,59.5772944 2.12929825,59.4797029 L20.065614,53.2137082 L41.4732749,61.8916074 C41.6669883,61.9876499 41.7646199,61.9876499 41.9552339,61.9876499 C42.1489474,61.9876499 42.2465789,61.9876499 42.4402924,61.8916074 L62.110731,54.5660477 C62.5957895,54.3739629 62.980117,53.8906525 62.980117,53.3112997 L62.980117,20.1518727 C63.1769298,19.7646048 62.8855848,19.2812944 62.5988889,19.0892095 L62.5988889,19.0892095 Z M37.5246199,51.6692838 C37.5246199,51.6692838 36.6552339,53.404244 31.8340936,53.404244 C26.9153216,53.404244 26.1435673,51.6692838 26.1435673,51.6692838 L26.1435673,51.283565 C26.1435673,51.283565 26.1435673,51.283565 26.1435673,50.9938886 C26.2411988,47.5239682 26.7247076,46.5604456 30.1960526,45.8850504 C30.1960526,45.8850504 30.6780117,46.5604456 31.8340936,46.5604456 C32.9901754,46.5604456 33.4752339,45.8850504 33.4752339,45.8850504 C37.0442105,46.5604456 37.428538,47.5239682 37.5246199,51.089931 L37.5246199,51.3796074 L37.5246199,51.6692838 L37.5246199,51.6692838 Z M28.7501754,42.0309602 C28.7501754,40.0063236 29.2321345,38.3689549 31.7380117,38.3689549 C34.3446199,38.3689549 34.7289474,40.0078727 34.7289474,42.0309602 C34.7289474,44.0571459 33.379152,45.6929655 31.7380117,45.6929655 C30.0999708,45.6929655 28.7501754,44.0555968 28.7501754,42.0309602 L28.7501754,42.0309602 Z M41.8653509,20.5360424 C39.1657602,26.5108117 33.8595614,32.8743979 32.3160526,34.607809 C32.2215205,34.7054005 32.027807,34.801443 31.8340936,34.801443 C31.6403801,34.801443 31.4497661,34.7038515 31.3521345,34.607809 C29.8086257,32.7768064 24.5055263,26.5108117 21.8059357,20.5360424 C21.1302632,19.1868011 20.8404678,17.6439257 20.8404678,16.1010504 C20.8404678,10.0286897 25.7592398,5.11193634 31.8340936,5.11193634 C37.9089474,5.11193634 42.8277193,10.0286897 42.8277193,16.1010504 C42.8277193,17.6439257 42.4433918,19.1868011 41.8653509,20.5360424 L41.8653509,20.5360424 Z" id="XMLID_33_"></path>
                    </g>
                    <g id="XMLID_19_" transform="translate(610.035088, 98.562334)" fill="#F6B11F">
                        <path d="M27.5316667,5.53173475 L14.7078363,18.3534005 C14.6102047,18.449443 14.4164912,18.5454854 14.3204094,18.5454854 C14.2243275,18.5454854 14.0321637,18.4478939 13.9360819,18.3534005 L7.86122807,12.1849973 C7.76359649,12.0874058 7.66751462,11.8937719 7.66751462,11.7977294 C7.66751462,11.701687 7.7651462,11.5096021 7.86122807,11.4135597 L9.88669591,9.38892308 C10.0773099,9.19528912 10.4647368,9.19528912 10.6553509,9.38892308 L14.3204094,13.0509284 L24.7359942,2.63961804 C24.9297076,2.44753316 25.3140351,2.44753316 25.5077485,2.63961804 L27.5332164,4.66425464 C27.630848,4.76184615 27.7269298,4.95393103 27.7269298,5.04997347 C27.6292982,5.2451565 27.6292982,5.43724138 27.5316667,5.53173475 L27.5316667,5.53173475 Z M3.03853801,3.12447745 L3.03853801,20.8597984 L20.7811404,20.8597984 L20.7811404,20.8597984 L20.7811404,15.4628329 L23.5783626,12.5707162 L23.5783626,23.1756605 C23.5783626,23.4637878 23.2870175,23.7534642 23.0003216,23.7534642 L0.819356725,23.7534642 C0.528011696,23.7534642 0.241315789,23.4622387 0.241315789,23.1756605 L0.241315789,1.00379841 C0.241315789,0.712572944 0.529561404,0.425994695 0.819356725,0.425994695 L23.0003216,0.425994695 C23.2885673,0.425994695 23.5783626,0.714122016 23.5783626,1.00379841 L21.1654678,3.22206897 L3.03853801,3.22206897 L3.03853801,3.12447745 L3.03853801,3.12447745 Z" id="XMLID_20_"></path>
                    </g>
                    <path d="M365.625614,240.011162 L312.394708,240.011162 C311.526871,240.011162 310.947281,239.335767 310.947281,238.469836 L310.947281,185.163183 C310.947281,184.295703 311.622953,183.621857 312.394708,183.621857 L365.625614,183.621857 C366.49345,183.621857 367.073041,184.297252 367.073041,185.163183 L367.073041,238.469836 C367.071491,239.335767 366.397368,240.011162 365.625614,240.011162 L365.625614,240.011162 Z M327.631433,229.214133 C327.631433,229.697443 328.01731,230.083162 328.499269,230.083162 L342.384649,230.083162 C342.866608,230.083162 343.252485,229.697443 343.252485,229.214133 L343.252485,225.937846 C343.252485,225.454536 342.866608,225.068817 342.384649,225.068817 L328.499269,225.068817 C328.01576,225.068817 327.631433,225.454536 327.631433,225.937846 L327.631433,229.214133 L327.631433,229.214133 Z M327.631433,217.45513 C327.631433,217.936891 328.01731,218.32261 328.499269,218.32261 L342.384649,218.32261 C342.866608,218.32261 343.252485,217.936891 343.252485,217.45513 L343.252485,214.177294 C343.252485,213.695533 342.866608,213.309814 342.384649,213.309814 L328.499269,213.309814 C328.01576,213.309814 327.631433,213.695533 327.631433,214.177294 L327.631433,217.45513 L327.631433,217.45513 Z M316.444094,229.214133 C316.444094,229.697443 316.829971,230.083162 317.31193,230.083162 L322.422865,230.083162 C322.904825,230.083162 323.290702,229.697443 323.290702,229.214133 L323.290702,225.937846 C323.290702,225.454536 322.904825,225.068817 322.422865,225.068817 L317.31193,225.068817 C316.828421,225.068817 316.444094,225.454536 316.444094,225.937846 L316.444094,229.214133 L316.444094,229.214133 Z M316.444094,217.45513 C316.444094,217.936891 316.829971,218.32261 317.31193,218.32261 L322.422865,218.32261 C322.904825,218.32261 323.290702,217.936891 323.290702,217.45513 L323.290702,214.177294 C323.290702,213.695533 322.904825,213.309814 322.422865,213.309814 L317.31193,213.309814 C316.828421,213.309814 316.444094,213.695533 316.444094,214.177294 L316.444094,217.45513 L316.444094,217.45513 Z M361.478596,190.947416 C361.478596,190.272021 360.900556,189.596626 360.128801,189.596626 L317.697807,189.596626 C317.022135,189.596626 316.348012,190.175979 316.348012,190.947416 L316.348012,204.345337 C316.348012,205.020732 316.927602,205.694578 317.697807,205.694578 L360.128801,205.694578 C360.804474,205.694578 361.478596,205.115225 361.478596,204.345337 L361.478596,190.947416 L361.478596,190.947416 Z M361.67076,214.079703 C361.67076,213.597942 361.284883,213.212223 360.802924,213.212223 L348.653216,213.212223 C348.169708,213.212223 347.78538,213.597942 347.78538,214.079703 L347.78538,229.11809 C347.78538,229.599851 348.171257,229.98557 348.653216,229.98557 L360.802924,229.98557 C361.284883,229.98557 361.67076,229.599851 361.67076,229.11809 L361.67076,214.079703 L361.67076,214.079703 Z M356.84962,200.103979 L336.501959,200.103979 C336.02,200.103979 335.634123,199.71826 335.634123,199.23495 L335.634123,195.958663 C335.634123,195.475353 336.02,195.091183 336.501959,195.091183 L356.84962,195.091183 C357.331579,195.091183 357.717456,195.475353 357.717456,195.958663 L357.717456,199.23495 C357.717456,199.71826 357.331579,200.103979 356.84962,200.103979 L356.84962,200.103979 Z M330.427105,200.103979 L321.169152,200.103979 C320.687193,200.103979 320.301316,199.71826 320.301316,199.23495 L320.301316,195.958663 C320.301316,195.475353 320.687193,195.091183 321.169152,195.091183 L330.427105,195.091183 C330.910614,195.091183 331.294942,195.475353 331.294942,195.958663 L331.294942,199.23495 C331.294942,199.71826 330.909064,200.103979 330.427105,200.103979 L330.427105,200.103979 Z" id="XMLID_36_" fill="#FFFFFF"></path>
                    <g id="XMLID_31_" transform="translate(40.292398, 55.188329)" fill="#FFFFFF">
                        <path d="M54.452076,50.4486154 L16.3602632,50.4486154 C15.6845906,50.4486154 15.2026316,49.9668541 15.2026316,49.293008 L15.2026316,43.1246048 C15.2026316,42.4492095 15.6845906,41.9674483 16.3602632,41.9674483 L54.452076,41.9674483 C55.1277485,41.9674483 55.6097076,42.4507586 55.6097076,43.1246048 L55.6097076,49.293008 C55.6081579,49.8708117 55.1261988,50.4486154 54.452076,50.4486154 L54.452076,50.4486154 Z M54.452076,30.4965729 L16.3602632,30.4965729 C15.6845906,30.4965729 15.2026316,30.0148117 15.2026316,29.3409655 L15.2026316,23.1725623 C15.2026316,22.4971671 15.6845906,22.0138568 16.3602632,22.0138568 L54.452076,22.0138568 C55.1277485,22.0138568 55.6097076,22.4987162 55.6097076,23.1725623 L55.6097076,29.3409655 C55.6081579,29.9172202 55.1261988,30.4965729 54.452076,30.4965729 L54.452076,30.4965729 Z M54.452076,11.1207851 L16.3602632,11.1207851 C15.6845906,11.1207851 15.2026316,10.6390239 15.2026316,9.96517772 L15.2026316,3.79677454 C15.2026316,3.12137931 15.6845906,2.63961804 16.3602632,2.63961804 L54.452076,2.63961804 C55.1277485,2.63961804 55.6097076,3.12292838 55.6097076,3.79677454 L55.6097076,9.96517772 C55.6081579,10.5429814 55.1261988,11.1207851 54.452076,11.1207851 L54.452076,11.1207851 Z M4.01684211,50.7398408 C3.43725146,50.7398408 2.85921053,50.6422493 2.37725146,50.5462069 C2.08745614,50.4486154 1.99137427,50.4486154 1.79921053,50.3525729 C1.41333333,50.2549814 1.21961988,49.8708117 1.21961988,49.4850928 L1.21961988,49.0017825 C1.21961988,48.7121061 1.41333333,48.5200212 1.60549708,48.3263873 C1.79921053,48.1343024 2.08745614,48.1343024 2.37725146,48.2287958 C3.43880117,48.6160637 4.4027193,48.6160637 4.98076023,48.2287958 C5.4627193,47.9406684 5.65643275,47.5534005 5.65643275,46.9755968 C5.65643275,46.4938355 5.4627193,46.1081167 5.07839181,45.9160318 C4.88467836,45.8184403 4.49880117,45.6248064 3.53488304,45.6248064 C3.05137427,45.6248064 2.66704678,45.2406366 2.66704678,44.7557772 L2.66704678,44.3716074 C2.66704678,43.8882971 3.05292398,43.5025782 3.53488304,43.5025782 C4.11292398,43.5025782 5.17447368,43.4049867 5.56035088,42.827183 C5.75406433,42.5375066 5.75406433,42.0557454 5.65643275,41.767618 C5.4627193,41.3803501 5.07839181,41.0922228 4.59643275,40.9961804 L4.21055556,40.9961804 C3.82467836,40.9961804 3.43880117,41.0937719 2.95684211,41.2858568 C2.66704678,41.3818992 2.37725146,41.3818992 2.18508772,41.1882653 C1.99292398,40.9961804 1.79921053,40.8025464 1.79921053,40.51287 L1.79921053,40.0295597 C1.79921053,39.6453899 1.99292398,39.258122 2.37725146,39.1620796 C3.14900585,38.9699947 3.92076023,38.7763607 4.69251462,38.7763607 C5.75406433,38.7763607 6.62190058,38.9699947 7.19994152,39.451756 C8.06777778,40.0295597 8.45365497,40.8985889 8.45365497,41.9581538 C8.45365497,42.2478302 8.45365497,43.4034377 7.39210526,44.1748753 C7.19839181,44.2724668 7.10230994,44.3685093 7.00622807,44.4661008 C7.58426901,44.7542281 8.25994152,45.141496 8.54973684,46.2971034 C8.74190058,47.2621751 8.64581871,48.6114164 7.68190058,49.5733899 C6.52426901,50.6422493 4.88467836,50.7398408 4.01684211,50.7398408 L4.01684211,50.7398408 Z M7.58581871,31.6521804 L2.2827193,31.6521804 C1.80076023,31.6521804 1.41488304,31.2680106 1.41488304,30.7847003 L1.41488304,29.9172202 C1.41488304,29.6259947 1.51096491,29.4339098 1.70467836,29.2418249 C1.89839181,29.048191 2.09055556,28.8561061 2.47643275,28.4703873 L3.92230994,26.7354271 C5.85169591,24.5187056 5.75561404,23.4575915 5.56190058,22.7821963 C5.36818713,22.3980265 5.17602339,22.2043926 4.69406433,22.1068011 C4.11447368,22.0092095 3.7301462,22.1068011 2.95839181,22.3980265 C2.66859649,22.495618 2.37880117,22.495618 2.18663743,22.3980265 C1.89684211,22.300435 1.80076023,22.0107586 1.70467836,21.7226313 L1.60859649,21.1432785 C1.60859649,20.7575597 1.80230994,20.3733899 2.18663743,20.2757984 C3.05447368,19.9845729 4.01994152,19.7924881 4.7901462,19.7924881 C5.56190058,19.7924881 6.14149123,19.8900796 6.62345029,20.1782069 C7.49128655,20.6599682 8.06932749,21.3338143 8.16695906,22.2988859 C8.64891813,24.419565 7.29912281,26.2505676 5.65953216,28.2736552 C5.27365497,28.7569655 4.88777778,29.1426844 4.69561404,29.4308117 L7.49283626,29.4308117 C7.97479532,29.4308117 8.36067251,29.8165305 8.36067251,30.2982918 L8.36067251,30.7816021 C8.45365497,31.2680106 8.06777778,31.6521804 7.58581871,31.6521804 L7.58581871,31.6521804 Z M4.88467836,12.7597029 L4.01684211,12.7597029 C3.53488304,12.7597029 3.14900585,12.372435 3.14900585,11.8906737 L3.14900585,4.37148011 L2.5694152,4.85324138 C2.37570175,5.04687533 2.18353801,5.04687533 1.89374269,5.04687533 C1.60394737,5.04687533 1.41178363,4.85324138 1.31570175,4.6611565 L1.02590643,4.27543767 C0.736111111,3.8912679 0.832192982,3.40640849 1.21961988,3.11983024 L3.43725146,1.19123607 C3.63096491,1.09519363 3.82312865,0.999151194 4.01684211,0.999151194 L4.98076023,0.999151194 C5.4627193,0.999151194 5.84859649,1.38332095 5.84859649,1.8666313 L5.84859649,11.8922228 C5.75251462,12.372435 5.36663743,12.7597029 4.88467836,12.7597029 L4.88467836,12.7597029 Z" id="XMLID_46_"></path>
                    </g>
                    <path d="M109.49769,32.2822069 C109.014181,31.7988966 108.050263,31.7988966 107.568304,32.2822069 L104.867164,34.9806897 C104.577368,35.270366 104.481287,35.5600424 104.481287,35.9442122 C104.481287,36.3314801 104.577368,36.6196074 104.867164,36.9092838 C105.542836,38.0664403 104.191491,41.2466844 101.203655,44.2348435 C100.335819,45.1038727 99.4679825,45.7777188 98.6001462,46.3555225 L98.214269,46.646748 L97.2503509,45.6816764 C96.6707602,45.1038727 95.802924,44.7181538 95.0327193,44.7181538 C94.164883,44.7181538 93.3931287,45.0078302 92.813538,45.6816764 C92.2354971,46.2594801 91.8496199,47.1285093 91.8496199,47.8999469 C91.8496199,48.7674271 92.1394152,49.5388647 92.813538,50.1182175 L95.8990058,53.20087 L85.4849708,63.9978992 C85.1951754,64.2875756 85.0990936,64.577252 85.0990936,64.9614218 C85.0990936,65.3471406 85.1967251,65.636817 85.4849708,65.9264934 C85.7747661,66.2146207 86.0645614,66.3106631 86.4488889,66.3106631 C86.8347661,66.3106631 87.1245614,66.2130716 87.4143567,65.9264934 L97.8283918,55.2255066 L101.299737,58.6954271 C101.879327,59.2747798 102.747164,59.6604987 103.517368,59.6604987 C104.385205,59.6604987 105.156959,59.3692732 105.735,58.6954271 C106.988713,57.4422281 106.988713,55.4191406 105.735,54.1659416 L104.771082,53.20087 L105.060877,52.8167003 C105.640468,51.9476711 106.410673,51.080191 107.182427,50.2127109 C110.171813,47.2245517 112.775322,46.4531141 113.73924,46.4531141 C114.029035,46.4531141 114.221199,46.5507056 114.414912,46.646748 C115.090585,47.2245517 115.958421,47.2245517 116.44038,46.646748 L119.14152,43.9467162 C119.62348,43.271321 119.62348,42.4038408 119.14152,41.9220796 L109.49769,32.2822069 Z" id="XMLID_53_" fill="#F6B11F"></path>
                    <polygon id="Shape" fill="#FCFCFC" points="846.008626 149.670854 840.765965 154.705337 854.725731 168.004117 854.725731 209.268286 863.442836 209.268286 863.442836 187.042207 867.55886 187.042207 867.55886 209.268286 876.227924 209.268286 876.227924 168.004117 890.413947 154.898971 884.945029 149.670854 870.774503 162.613347 860.924561 162.644329"></polygon>
                    <ellipse id="Oval" fill="#FCFCFC" cx="865.479152" cy="151.026292" rx="9.49195906" ry="9.48806366"></ellipse>
                </g>
                <text id="Selecciona-un-servic" font-family="SourceSansPro-Light, Source Sans Pro" font-size="18" font-weight="300" fill="#033B71">
                    <tspan x="23.123" y="204">Selecciona un</tspan>
                    <tspan x="26.732" y="227">servicio en el </tspan>
                    <tspan x="44.561" y="250">landing.</tspan>
                </text>
                <text id="1" font-family="SourceSansPro-Semibold, Source Sans Pro" font-size="24" font-weight="500" fill="#F8BA45">
                    <tspan x="68.344" y="181">1</tspan>
                </text>
                <text id="Ingrese-los-datos-pa" font-family="SourceSansPro-Light, Source Sans Pro" font-size="18" font-weight="300" fill="#033B71">
                    <tspan x="279.489" y="342">Ingrese los datos</tspan>
                    <tspan x="274.494" y="365">para tu búsqueda.</tspan>
                </text>
                <text id="2" font-family="SourceSansPro-Semibold, Source Sans Pro" font-size="24" font-weight="500" fill="#F8BA45">
                    <tspan x="333.344" y="317">2</tspan>
                </text>
                <text id="Ubica-quien-te-ayude" font-family="SourceSansPro-Light, Source Sans Pro" font-size="18" font-weight="300" fill="#033B71">
                    <tspan x="550.976" y="249">Ubica quien te </tspan>
                    <tspan x="537.26" y="272">ayude en el mapa.</tspan>
                </text>
                <text id="3" font-family="SourceSansPro-Semibold, Source Sans Pro" font-size="24" font-weight="500" fill="#F8BA45">
                    <tspan x="597.344" y="224">3</tspan>
                </text>
                <text id="¡Disfruta-al-máximo" font-family="SourceSansPro-Light, Source Sans Pro" font-size="18" font-weight="300" fill="#033B71">
                    <tspan x="798.291" y="301">¡Disfruta al máximo </tspan>
                    <tspan x="829.836" y="324">el servicio!</tspan>
                </text>
                <text id="4" font-family="SourceSansPro-Semibold, Source Sans Pro" font-size="24" font-weight="500" fill="#F8BA45">
                    <tspan x="862.344" y="276">4</tspan>
                </text>
            </g>
        </g>
    </g>
</svg>