<?xml version="1.0" encoding="UTF-8" standalone="no"?>
<!-- Created with Inkscape (http://www.inkscape.org/) -->

<svg
   xmlns:dc="http://purl.org/dc/elements/1.1/"
   xmlns:cc="http://creativecommons.org/ns#"
   xmlns:rdf="http://www.w3.org/1999/02/22-rdf-syntax-ns#"
   xmlns:svg="http://www.w3.org/2000/svg"
   xmlns="http://www.w3.org/2000/svg"
   xmlns:sodipodi="http://sodipodi.sourceforge.net/DTD/sodipodi-0.dtd"
   xmlns:inkscape="http://www.inkscape.org/namespaces/inkscape"
   id="svg2"
   version="1.1"
   inkscape:version="0.48.4 r9939"
   width="705.83209"
   height="412.63367"
   xml:space="preserve"
   sodipodi:docname="iconografia.ai"><metadata
     id="metadata8"><rdf:RDF><cc:Work
         rdf:about=""><dc:format>image/svg+xml</dc:format><dc:type
           rdf:resource="http://purl.org/dc/dcmitype/StillImage" /><dc:title></dc:title></cc:Work></rdf:RDF></metadata><defs
     id="defs6"><clipPath
       clipPathUnits="userSpaceOnUse"
       id="clipPath16"><path
         d="m 0,544.22 816.693,0 L 816.693,0 0,0 0,544.22 z"
         id="path18"
         inkscape:connector-curvature="0" /></clipPath></defs><sodipodi:namedview
     pagecolor="#ffffff"
     bordercolor="#666666"
     borderopacity="1"
     objecttolerance="10"
     gridtolerance="10"
     guidetolerance="10"
     inkscape:pageopacity="0"
     inkscape:pageshadow="2"
     inkscape:window-width="1013"
     inkscape:window-height="480"
     id="namedview4"
     showgrid="false"
     fit-margin-top="0"
     fit-margin-left="0"
     fit-margin-right="0"
     fit-margin-bottom="0"
     inkscape:zoom="0.34691851"
     inkscape:cx="364.4035"
     inkscape:cy="206.31674"
     inkscape:window-x="0"
     inkscape:window-y="24"
     inkscape:window-maximized="0"
     inkscape:current-layer="g10" /><g
     id="g10"
     inkscape:groupmode="layer"
     inkscape:label="iconografia"
     transform="matrix(1.25,0,0,-1.25,-146.02963,546.45443)"><g
       id="g12"><g
         id="g14"
         clip-path="url(#clipPath16)"><g
           id="g20"
           transform="translate(379.6641,135.1357)"><path
             d="m 0,0 c -4.016,-2.148 -7.378,-2.988 -11.673,-2.988 -11.3,0 -18.49,7.564 -18.49,19.33 0,13.635 10.645,25.214 27.175,25.214 2.147,0 4.575,-0.281 7.19,-0.747 L 3.175,33.805 c -2.148,0.466 -4.11,0.654 -6.071,0.654 -11.671,0 -19.142,-8.779 -19.142,-17.65 0,-7.938 4.389,-12.7 11.485,-12.7 4.202,0 7.565,1.213 11.487,3.549 L 0,0 z"
             style="fill:#005ca2;fill-opacity:1;fill-rule:nonzero;stroke:none"
             id="path22"
             inkscape:connector-curvature="0" /></g><g
           id="g24"
           transform="translate(402.0781,138.9639)"><path
             d="m 0,0 c 6.63,0 12.046,8.313 12.046,19.891 0,7.004 -2.895,11.58 -7.471,11.58 -6.816,0 -11.953,-9.711 -11.953,-20.358 C -7.378,4.389 -4.109,0 0,0 m 0.28,-6.816 c -9.898,0 -15.782,7.003 -15.782,18.769 0,14.662 8.685,25.775 20.077,25.775 9.526,0 15.596,-7.285 15.596,-18.304 0,-15.688 -8.871,-26.24 -19.891,-26.24"
             style="fill:#005ca2;fill-opacity:1;fill-rule:nonzero;stroke:none"
             id="path26"
             inkscape:connector-curvature="0" /></g><g
           id="g28"
           transform="translate(440.6475,168.0068)"><path
             d="m 0,0 0.187,-0.187 c 4.576,5.603 9.245,8.218 13.915,8.218 8.871,0 11.112,-9.246 9.992,-16.156 l -4.016,-26.428 -7.845,0 3.829,26.709 c 1.028,7.283 -2.148,9.338 -4.576,9.338 -2.241,0 -6.63,-1.588 -12.606,-9.338 l -3.829,-26.709 -7.844,0 5.883,41.93 7.937,0 L 0,0 z"
             style="fill:#005ca2;fill-opacity:1;fill-rule:nonzero;stroke:none"
             id="path30"
             inkscape:connector-curvature="0" /></g><g
           id="g32"
           transform="translate(499.0146,163.9912)"><path
             d="m 0,0 c -4.762,3.643 -9.151,5.51 -12.606,5.51 -3.269,0 -5.697,-1.961 -5.697,-4.389 0,-5.976 16.716,-8.871 16.716,-20.451 0,-7.565 -5.603,-12.514 -12.98,-12.514 -5.23,0 -8.591,1.307 -14.568,5.51 l 1.401,7.656 c 5.509,-4.388 9.525,-6.256 12.886,-6.256 3.175,0 5.416,1.961 5.416,4.67 0,7.004 -16.435,9.526 -16.435,20.918 0,7.19 5.137,12.046 13.168,12.046 4.388,0 8.777,-1.68 12.699,-4.389 L 0,0 z"
             style="fill:#005ca2;fill-opacity:1;fill-rule:nonzero;stroke:none"
             id="path34"
             inkscape:connector-curvature="0" /></g><g
           id="g36"
           transform="translate(536.6494,133.4541)"><path
             d="m 0,0 -7.844,0 0.934,6.91 -0.187,0.188 c -3.268,-3.455 -8.124,-7.75 -13.821,-7.75 -4.669,0 -11.486,3.361 -9.898,14.941 l 3.921,27.641 7.938,0 -3.922,-27.641 c -1.027,-7.471 2.335,-8.873 4.483,-8.873 3.082,0 6.91,2.43 12.607,9.246 l 3.828,27.268 7.938,0 L 0,0 z"
             style="fill:#005ca2;fill-opacity:1;fill-rule:nonzero;stroke:none"
             id="path38"
             inkscape:connector-curvature="0" /></g><g
           id="g40"
           transform="translate(560.5576,168.1006)"><path
             d="m 0,0 0.187,-0.187 c 5.136,5.79 9.805,8.124 14.475,8.124 3.455,0 8.404,-1.775 9.525,-9.431 6.07,7.471 11.58,9.431 15.688,9.431 6.07,0 11.206,-4.576 9.619,-15.408 l -3.829,-27.175 -7.937,0 3.921,27.548 c 0.841,5.51 -0.84,8.778 -4.295,8.778 -2.801,0 -7.377,-2.055 -13.167,-9.711 l -3.83,-26.615 -7.937,0 3.736,26.521 c 0.934,6.07 -0.187,9.805 -4.67,9.805 -3.082,0 -8.217,-3.828 -12.606,-9.711 l -3.735,-26.615 -7.938,0 5.977,41.929 7.937,0 L 0,0 z"
             style="fill:#005ca2;fill-opacity:1;fill-rule:nonzero;stroke:none"
             id="path42"
             inkscape:connector-curvature="0" /></g><g
           id="g44"
           transform="translate(633.6807,138.9639)"><path
             d="m 0,0 c 6.631,0 12.047,8.313 12.047,19.891 0,7.004 -2.895,11.58 -7.471,11.58 -6.817,0 -11.953,-9.711 -11.953,-20.358 C -7.377,4.389 -4.108,0 0,0 m 0.28,-6.816 c -9.898,0 -15.782,7.003 -15.782,18.769 0,14.662 8.686,25.775 20.078,25.775 9.526,0 15.595,-7.285 15.595,-18.304 0,-15.688 -8.871,-26.24 -19.891,-26.24"
             style="fill:#005ca2;fill-opacity:1;fill-rule:nonzero;stroke:none"
             id="path46"
             inkscape:connector-curvature="0" /></g><g
           id="g48"
           transform="translate(512.7471,341.668)"><path
             d="m 0,0 -9.822,0 c -55.594,0 -71.899,-38.11 -71.899,-63.647 0,-24.359 13.751,-40.075 35.164,-40.075 11.393,0 28.09,6.876 40.074,16.502 l -2.947,-21.609 c -13.358,-7.66 -27.502,-11.786 -39.681,-11.786 -30.449,0 -51.664,22.983 -51.664,55.79 0,46.752 34.574,81.719 91.542,81.719 l 12.768,0 L 0,0 z"
             style="fill:#f6b437;fill-opacity:1;fill-rule:nonzero;stroke:none"
             id="path50"
             inkscape:connector-curvature="0" /></g><g
           id="g52"
           transform="translate(548.6963,338.7217)"><path
             d="m 0,0 c 0,-5.305 -4.322,-9.626 -9.626,-9.626 -5.304,0 -9.626,4.321 -9.626,9.626 0,5.304 4.322,9.625 9.626,9.625 C -4.322,9.625 0,5.304 0,0 m -16.697,-115.9 -16.699,0 12.376,88.201 16.698,0 -12.375,-88.201 z"
             style="fill:#f6b437;fill-opacity:1;fill-rule:nonzero;stroke:none"
             id="path54"
             inkscape:connector-curvature="0" /></g><g
           id="g56"
           transform="translate(601.9307,298.0576)"><path
             d="m 0,0 -17.68,0 -8.447,-48.324 c -1.964,-11.197 0.59,-14.734 8.644,-14.734 4.911,0 8.839,1.179 16.108,5.304 l -0.982,-16.305 c -7.073,-2.946 -11.787,-3.927 -18.27,-3.927 -17.286,0 -25.34,11 -22.982,24.554 L -34.377,0 l -15.519,0 1.964,12.965 16.109,0 3.339,18.073 16.502,0 -3.144,-18.073 16.894,0 L 0,0 z"
             style="fill:#005ca2;fill-opacity:1;fill-rule:nonzero;stroke:none"
             id="path58"
             inkscape:connector-curvature="0" /></g><g
           id="g60"
           transform="translate(618.2354,177.6396)"><path
             d="m 0,0 -17.68,0 23.965,50.484 -17.09,82.899 16.698,0 11.787,-60.699 0.392,0 27.699,60.699 17.483,0 L 0,0 z"
             style="fill:#005ca2;fill-opacity:1;fill-rule:nonzero;stroke:none"
             id="path62"
             inkscape:connector-curvature="0" /></g><g
           id="g64"
           transform="translate(217.0205,353.5186)"><path
             d="m 0,0 c -4.357,-3.498 -10.695,-2.813 -14.182,1.582 -3.482,4.387 -2.748,10.768 1.631,14.24 4.383,3.477 10.754,2.735 14.237,-1.654 C 5.17,9.777 4.383,3.477 0,0 M 2.277,42.18 -0.152,29.676 c 0,0 -27.397,6.734 -31.717,-21.336 l -12.485,2.541 c 0,0 1.853,42.092 46.631,31.299 M 110.375,54.391 C 77.455,72.707 40.352,76.49 6.49,67.854 L 4.27,56.016 c 0,0 -14.916,3.685 -30.26,-0.85 -7.451,-4.025 -14.565,-8.738 -21.245,-14.1 -4.996,-6.324 -8.882,-14.98 -10.672,-26.791 l -12.945,2.627 C -75.02,11.457 -78.85,5.645 -82.278,-0.531 c -38.065,-68.42 -13.496,-154.598 54.864,-192.776 39.211,-21.66 84.303,-22.88 122.859,-7.066 l 40.354,-46.089 c 0,0 -8.6,30.03 -17.311,57.997 18.791,12.205 35.112,29.082 46.899,50.27 38.035,68.121 13.517,154.572 -55.012,192.586"
             style="fill:#005ca2;fill-opacity:1;fill-rule:nonzero;stroke:none"
             id="path66"
             inkscape:connector-curvature="0" /></g><g
           id="g68"
           transform="translate(126.4521,374.4248)"><path
             d="M 0,0 11.431,-2.705 24.284,-5.748 C 26.45,6 30.612,14.527 35.809,20.687 c 6.848,5.145 14.109,9.629 21.685,13.413 15.485,4.039 30.274,-0.123 30.274,-0.123 l 2.597,11.759 2.787,12.629 C 6.195,82.33 0,0 0,0"
             style="fill:#f6b437;fill-opacity:1;fill-rule:nonzero;stroke:none"
             id="path70"
             inkscape:connector-curvature="0" /></g><g
           id="g72"
           transform="translate(208.9541,382.2178)"><path
             d="m 0,0 2.83,12.42 c -44.41,12.223 -47.611,-29.787 -47.611,-29.787 l 12.398,-2.94 C -27.166,7.609 0,0 0,0"
             style="fill:#f6b437;fill-opacity:1;fill-rule:nonzero;stroke:none"
             id="path74"
             inkscape:connector-curvature="0" /></g><g
           id="g76"
           transform="translate(196.1182,368.7686)"><path
             d="m 0,0 c -4.488,-3.33 -5.426,-9.684 -2.088,-14.182 3.346,-4.502 9.658,-5.39 14.125,-2.035 4.49,3.336 5.481,9.608 2.139,14.108 C 10.836,2.391 4.492,3.334 0,0"
             style="fill:#f6b437;fill-opacity:1;fill-rule:nonzero;stroke:none"
             id="path78"
             inkscape:connector-curvature="0" /></g><g
           id="g80"
           transform="translate(268.332,169.7705)"><path
             d="m 0,0 c -4.566,-2.018 -6.921,-6.084 -5.914,-10.692 0.956,-4.387 5.177,-7.928 9.617,-8.075 4.677,-0.153 8.948,3.33 9.979,8.137 1.064,4.964 -0.905,8.386 -5.34,10.392 C 6.694,-2.531 5.159,-4.663 3.625,-6.796 2.481,-4.65 1.337,-2.505 0,0"
             style="fill:#ffffff;fill-opacity:1;fill-rule:evenodd;stroke:none"
             id="path82"
             inkscape:connector-curvature="0" /></g><g
           id="g84"
           transform="translate(268.332,169.7705)"><path
             d="m 0,0 c 1.337,-2.505 2.481,-4.65 3.625,-6.796 1.534,2.133 3.069,4.265 4.717,6.558 4.435,-2.006 6.404,-5.428 5.34,-10.392 -1.031,-4.807 -5.302,-8.29 -9.979,-8.137 -4.44,0.147 -8.661,3.688 -9.617,8.075 C -6.921,-6.084 -4.566,-2.018 0,0"
             style="fill:#fefefe;fill-opacity:1;fill-rule:evenodd;stroke:none"
             id="path86"
             inkscape:connector-curvature="0" /></g><g
           id="g88"
           transform="translate(260.123,240.915)"><path
             d="m 0,0 c -0.6,-1.328 -0.861,-1.557 -4.187,-2.25 -2.25,-0.25 -2.625,0.5 -3.224,2.073 C -7.75,2 -4.845,2.606 -3.528,2.639 -2.278,2.671 0.312,2.25 0,0 m 65.525,21.711 c 3.454,-15.19 4.893,-30.256 1.127,-45.195 -5.054,-20.046 -20.256,-28.825 -39.084,-32.704 -5.246,-1.081 -10.67,-1.304 -16.914,-2.025 0,11.762 -0.099,22.887 0.176,34.004 0.024,0.973 2.391,2.198 3.877,2.772 6.73,2.597 11.865,6.638 14.139,13.832 1.496,4.741 0.078,8.512 -4.078,10.528 C 14.17,8.064 3.41,8.41 -7.283,2.795 c -4.262,-2.237 -4.66,-5.482 -3.182,-9.556 2.424,-6.683 7.115,-11.15 13.461,-14.042 1.777,-0.808 3.606,-1.508 5.484,-2.288 l 0,-34.847 c -21.81,0.032 -42.68,2.005 -56.833,21.242 -7.988,10.856 -9.384,23.852 -7.529,36.771 2.457,17.089 5.152,34.234 9.313,50.965 5.158,20.733 17.111,36.013 39.413,40.681 1.23,0.258 2.48,0.467 3.73,0.55 0.85,0.057 1.719,-0.141 2.035,-0.172 C -0.258,81.221 0.033,70.531 2.096,60.197 7.398,33.616 22.846,21.212 49.791,20.95 c 5.131,-0.05 10.268,0.48 15.734,0.761 m 35.34,79.988 c -7.463,7.653 -16.687,8.709 -26.342,3.827 C 70.99,103.74 67.354,102.053 64.113,99.815 56.727,94.712 49.557,89.296 42.549,84.191 18.311,99.359 -5.814,99.256 -29.325,84.774 c -10.522,6.83 -20.568,14.246 -31.433,20.158 -11.732,6.383 -20.253,4.255 -29.644,-5.422 -8.49,-8.747 -13.796,-19.309 -17.286,-30.855 -3.833,-12.693 -5.081,-25.57 -0.655,-38.291 4.374,-12.567 14.519,-14.734 23.406,-4.905 4.04,4.467 7.797,9.782 9.791,15.386 4.567,12.843 8.276,26.022 11.67,39.235 1.077,4.185 2.944,5.342 6.248,3.999 6.25,-2.541 12.275,-5.637 19.327,-8.937 -8.6,-11.942 -11.368,-24.141 -13.916,-36.57 -3.403,-16.579 -7.704,-32.894 -6.912,-50.129 0.923,-20.115 11.148,-35.543 29.902,-43.059 3.103,-1.243 6.309,-2.227 9.528,-3.352 -3.31,-4.311 -2.664,-6.585 2.467,-9.046 9.783,-4.694 20.303,-5.582 30.703,-4.09 8.645,1.239 17.082,4.156 25.465,6.792 1.363,0.43 1.973,3.264 2.932,4.987 -1.7,0.304 -3.487,1.108 -5.082,0.827 -8.491,-1.492 -16.885,-3.597 -25.407,-4.833 -9.127,-1.325 -22.654,1.293 -27.986,4.834 15.191,-2.617 30.109,-2.943 44.908,0.163 19.401,4.07 34.541,13.509 40.242,33.919 3.272,11.712 2.817,23.688 0.981,35.447 -1.971,12.613 -4.68,25.162 -7.977,37.495 -2.343,8.756 -6.201,17.106 -9.892,27.01 5.289,2.571 11.252,5.734 17.433,8.374 3.856,1.647 6.164,0.373 7.024,-4.347 1.511,-8.302 3.426,-16.582 5.886,-24.652 3.321,-10.893 7.456,-21.569 15.643,-29.921 8.758,-8.932 17.275,-7.403 22.682,3.826 0.617,1.281 1.093,2.675 1.365,4.069 5.205,26.717 -2.488,49.602 -21.223,68.813"
             style="fill:#ffffff;fill-opacity:1;fill-rule:evenodd;stroke:none"
             id="path90"
             inkscape:connector-curvature="0" /></g><g
           id="g92"
           transform="translate(241.1465,283.5146)"><path
             d="m 0,0 c 0,-2.848 -2.309,-5.156 -5.156,-5.156 -2.848,0 -5.157,2.308 -5.157,5.156 0,2.848 2.309,5.156 5.157,5.156 C -2.309,5.156 0,2.848 0,0"
             style="fill:#ffffff;fill-opacity:1;fill-rule:evenodd;stroke:none"
             id="path94"
             inkscape:connector-curvature="0" /></g><g
           id="g96"
           transform="translate(301.2715,283.5146)"><path
             d="m 0,0 c 0,-2.848 -2.309,-5.156 -5.156,-5.156 -2.848,0 -5.157,2.308 -5.157,5.156 0,2.848 2.309,5.156 5.157,5.156 C -2.309,5.156 0,2.848 0,0"
             style="fill:#005ca2;fill-opacity:1;fill-rule:evenodd;stroke:none"
             id="path98"
             inkscape:connector-curvature="0" /></g></g></g></g></svg>