<?xml version="1.0" encoding="UTF-8" standalone="no"?>
<svg width="963px" height="338px" viewBox="0 0 963 338" version="1.1" xmlns="http://www.w3.org/2000/svg" xmlns:xlink="http://www.w3.org/1999/xlink">
    <!-- Generator: Sketch 39 (31667) - http://www.bohemiancoding.com/sketch -->
    <title>Group 3</title>
    <desc>Created with Sketch.</desc>
    <defs></defs>
    <g id="Page-1" stroke="none" stroke-width="1" fill="none" fill-rule="evenodd">
        <g id="servicios" transform="translate(0.000000, -447.000000)">
            <g id="Group-3" transform="translate(0.000000, 447.000000)">
                <g id="Group-2">
                    <path d="M328.838585,157.398085 C328.838585,157.398085 425.567667,155.848407 431.620991,198.346915 C437.674314,240.845424 320.230759,220.10008 412.245816,93.1115024" id="Shape" stroke="#F6B11F" stroke-width="4" stroke-dasharray="10,10"></path>
                    <path d="M145.537556,79.2450741 C137.362542,69.1638208 167.4521,121.025661 223.480149,104.671324" id="Shape" stroke="#F6B11F" stroke-width="4" stroke-dasharray="10,10"></path>
                    <g id="XMLID_1_" fill="#04529D">
                        <ellipse id="XMLID_2_" cx="71.8462509" cy="71.9062646" rx="71.6622698" ry="71.8740841"></ellipse>
                    </g>
                    <g id="XMLID_5_" transform="translate(185.072153, 85.074606)" fill="#04529D">
                        <ellipse id="XMLID_6_" cx="72.2418755" cy="72.2703554" rx="71.6622698" ry="71.8740841"></ellipse>
                    </g>
                    <g id="XMLID_7_" transform="translate(411.625995, 12.667898)" fill="#04529D">
                        <ellipse id="XMLID_8_" cx="72.0233106" cy="72.8029801" rx="71.6622698" ry="71.8740841"></ellipse>
                    </g>
                    <g id="XMLID_9_" transform="translate(621.978986, 92.663626)" fill="#04529D">
                        <ellipse id="XMLID_10_" cx="71.8114443" cy="72.2703554" rx="71.6622698" ry="71.8740841"></ellipse>
                    </g>
                    <g id="XMLID_11_" transform="translate(819.157785, 32.399348)" fill="#04529D">
                        <ellipse id="XMLID_12_" cx="71.7167497" cy="72.8029801" rx="71.6622698" ry="71.8740841"></ellipse>
                    </g>
                    <path d="M554.324884,72.2460262 C554.324884,72.2460262 579.963736,108.636892 621.136928,92.9230682 C621.136928,92.9230682 692.800711,21.0505019 700.382499,93.7988411" id="Shape" stroke="#F6B11F" stroke-width="4" stroke-dasharray="10,10"></path>
                    <path d="M725.331272,230.364988 C725.331272,230.364988 780.763068,294.537735 797.231135,230.364988 C797.231135,230.364988 791.805843,97.6649139 818.67806,97.6649139" id="Shape" stroke="#F6B11F" stroke-width="4" stroke-dasharray="10,10"></path>
                    <g id="XMLID_13_" transform="translate(861.531050, 63.825352)" fill="#F8BA45">
                        <path d="M24.0241275,25.2093288 C22.7968162,26.6269576 21.0095724,27.2872023 18.7486561,27.2872023 C14.2298501,27.2872023 9.14505842,24.6431879 8.10842678,24.0755293 C7.92228708,23.9814254 7.82694723,23.7932178 7.82694723,23.5093884 L7.82694723,9.62755431 C7.82694723,9.34220719 8.01308693,9.05989567 8.29759313,9.05989567 C9.33271145,8.87168799 14.512843,7.7378885 15.8324675,3.48803769 C16.3969399,1.59837188 17.7150511,0.276364713 18.9393358,0.276364713 C19.5038082,0.276364713 19.9774808,0.560194036 20.3527868,1.03223104 C21.2955919,2.44834204 20.9172592,5.56591118 19.3176685,9.53345048 C19.6929745,9.43782883 20.1636204,9.34372499 20.5419532,9.34372499 C22.2353704,9.34372499 25.156099,10.195213 25.8143979,16.0493825 C26.2820171,20.2992333 25.6237182,23.4152846 24.0241275,25.2093288 L24.0241275,25.2093288 Z M5.37686456,24.8313956 L0.668892242,24.8313956 C0.387412701,24.8313956 0.10441983,24.5475663 0.10441983,24.2652548 L0.10441983,8.87017019 C0.10441983,8.49071922 0.388926032,8.30251154 0.668892242,8.30251154 L5.37686456,8.30251154 C5.66137077,8.30251154 5.94133698,8.58634086 5.94133698,8.87017019 L5.94133698,24.2652548 C5.94133698,24.5490841 5.65985744,24.8313956 5.37686456,24.8313956 L5.37686456,24.8313956 Z M3.02363507,21.3374111 C2.36382281,21.3374111 1.89166358,21.9050698 1.89166358,22.4712106 C1.89166358,23.1329731 2.36533614,23.6050101 3.02363507,23.6050101 C3.68193399,23.6050101 4.15257989,23.0388693 4.15257989,22.4712106 C4.15257989,21.8094481 3.68344733,21.3374111 3.02363507,21.3374111 L3.02363507,21.3374111 Z" id="XMLID_16_"></path>
                    </g>
                    <g id="XMLID_22_" transform="translate(68.024107, 38.022687)" fill="#F6B11F">
                        <path d="M30.5748074,6.03946598 L16.2254042,20.4343178 C16.1164444,20.5420819 15.900038,20.6513638 15.7910782,20.6513638 C15.6821184,20.6513638 15.4687387,20.5435997 15.3597789,20.4343178 L8.56189668,13.5085788 C8.45293686,13.4008147 8.34397704,13.1837688 8.34397704,13.0729691 C8.34397704,12.965205 8.45293686,12.7527125 8.56189668,12.6434306 L10.8288663,10.3712782 C11.042246,10.1527145 11.4750586,10.1527145 11.6884382,10.3712782 L15.7910782,14.4845267 L27.4452392,2.79440132 C27.6616455,2.57735537 28.0914315,2.57735537 28.3078378,2.79440132 L30.5732941,5.06655371 C30.6822539,5.17431778 30.7912138,5.39136373 30.7912138,5.49912781 C30.6837673,5.71617376 30.6837673,5.93170191 30.5748074,6.03946598 L30.5748074,6.03946598 Z M3.16838548,3.33322169 L3.16838548,23.2452906 L23.0217731,23.2452906 L23.0217731,23.2452906 L23.0217731,17.1862176 L26.1513413,13.9396351 L26.1513413,25.8452886 C26.1513413,26.167063 25.8259752,26.4949086 25.505149,26.4949086 L0.686522858,26.4949086 C0.361156722,26.4949086 0.0388172481,26.167063 0.0388172481,25.8452886 L0.0388172481,0.953305236 C0.0388172481,0.626977406 0.361156722,0.303685183 0.686522858,0.303685183 L25.505149,0.303685183 C25.8259752,0.303685183 26.1513413,0.626977406 26.1513413,0.953305236 L23.4515591,3.44402138 L3.16687215,3.44402138 L3.16687215,3.33322169 L3.16838548,3.33322169 Z" id="XMLID_25_"></path>
                    </g>
                    <g id="XMLID_37_" transform="translate(448.391723, 50.087527)" fill="#FFFFFF">
                        <path d="M30.9385362,9.69148423 C27.8316679,9.69148423 25.3815853,12.1472909 25.3815853,15.2633422 C25.3815853,18.3809113 27.8316679,20.836718 30.9385362,20.836718 C34.0484311,20.836718 36.4954871,18.3809113 36.4954871,15.2633422 C36.4954871,12.1472909 34.0484311,9.69148423 30.9385362,9.69148423 L30.9385362,9.69148423 Z" id="XMLID_39_"></path>
                        <path d="M60.9796672,18.1927037 C60.6013345,17.9073565 60.2260284,17.9073565 59.7523559,18.0029782 L43.3690359,24.1424948 C43.8396818,23.1984208 44.3088144,22.3484506 44.6871471,21.4984805 C45.5330991,19.5147108 46.0052583,17.4368373 46.0052583,15.26486 C46.0052583,6.86078002 39.225536,0.0595009125 30.841683,0.0595009125 C22.46237,0.0595009125 15.6811344,6.85926222 15.6811344,15.26486 C15.6811344,16.0207263 15.7764743,16.8722143 15.8703008,17.6280806 L1.08505823,22.8220054 C0.61138567,23.0117309 0.236079615,23.4837679 0.236079615,24.0499088 L0.236079615,56.5400183 C0.236079615,56.9179514 0.425245973,57.3915062 0.800552028,57.5797139 C1.17585808,57.8635432 1.5541908,57.8635432 1.92949685,57.7679216 L19.4447883,51.628405 L40.3499409,60.1311422 C40.5391072,60.2252461 40.6344471,60.2252461 40.8205868,60.2252461 C41.0097531,60.2252461 41.105093,60.2252461 41.2942593,60.1311422 L60.502968,52.9534477 C60.9766405,52.7652401 61.3519466,52.2916853 61.3519466,51.7240266 L61.3519466,19.2339171 C61.5441396,18.8529483 61.2611468,18.3809113 60.9796672,18.1927037 L60.9796672,18.1927037 Z M36.4954871,50.1151545 C36.4954871,50.1151545 35.6465085,51.8150948 30.9385362,51.8150948 C26.135224,51.8150948 25.3815853,50.1151545 25.3815853,50.1151545 L25.3815853,49.7372214 C25.3815853,49.7372214 25.3815853,49.7372214 25.3815853,49.453392 C25.4769251,46.0535114 25.9490843,45.1094374 29.3389455,44.4476749 C29.3389455,44.4476749 29.8095914,45.1094374 30.9385362,45.1094374 C32.067481,45.1094374 32.5411536,44.4476749 32.5411536,44.4476749 C36.0263546,45.1094374 36.4016606,46.0535114 36.4954871,49.5474959 L36.4954871,49.8313252 L36.4954871,50.1151545 L36.4954871,50.1151545 Z M27.9270078,40.6698611 C27.9270078,38.6860914 28.3976537,37.0817727 30.8447097,37.0817727 C33.3901322,37.0817727 33.7654383,38.6876092 33.7654383,40.6698611 C33.7654383,42.6551485 32.4473271,44.2579494 30.8447097,44.2579494 C29.245119,44.2579494 27.9270078,42.6551485 27.9270078,40.6698611 L27.9270078,40.6698611 Z M40.7343269,19.6088147 C38.0981045,25.4629842 32.9164596,31.6981224 31.4091821,33.396545 C31.3168689,33.4921666 31.1277026,33.5862704 30.9385362,33.5862704 C30.7493698,33.5862704 30.5632302,33.4906488 30.4678903,33.396545 C28.9606128,31.6025008 23.7819945,25.4629842 21.1457722,19.6088147 C20.4859599,18.2868075 20.202967,16.7750749 20.202967,15.2633422 C20.202967,9.31355107 25.0062792,4.4960416 30.9385362,4.4960416 C36.8707932,4.4960416 41.6741054,9.31355107 41.6741054,15.2633422 C41.6741054,16.7750749 41.2987993,18.2868075 40.7343269,19.6088147 L40.7343269,19.6088147 Z" id="XMLID_38_"></path>
                    </g>
                    <g id="XMLID_26_" transform="translate(497.810072, 62.755425)" fill="#F6B11F">
                        <path d="M26.7203537,5.90122142 L14.1975408,18.464084 C14.102201,18.5581878 13.9130346,18.6522917 13.8192081,18.6522917 C13.7253816,18.6522917 13.5377286,18.55667 13.4439021,18.464084 L7.51164506,12.420189 C7.41630522,12.3245674 7.3224787,12.1348419 7.3224787,12.040738 C7.3224787,11.9466342 7.41781855,11.7584265 7.51164506,11.6643227 L9.4895685,9.68055304 C9.6757082,9.49082756 10.0540409,9.49082756 10.2401806,9.68055304 L13.8192081,13.2686414 L23.9887915,3.06748161 C24.1779579,2.87927393 24.5532639,2.87927393 24.7424303,3.06748161 L26.7203537,5.05125126 C26.8156936,5.1468729 26.9095201,5.33508058 26.9095201,5.42918442 C26.8156936,5.6189099 26.8156936,5.80711758 26.7203537,5.90122142 L26.7203537,5.90122142 Z M2.80367274,3.54103641 L2.80367274,20.9183728 L20.1297978,20.9183728 L20.1297978,20.9183728 L20.1297978,15.6303442 L22.8598467,12.7966044 L22.8598467,23.1874896 C22.8598467,23.4698011 22.5753405,23.7536305 22.2953743,23.7536305 L0.63658294,23.7536305 C0.352076737,23.7536305 0.0721105271,23.4682833 0.0721105271,23.1874896 L0.0721105271,1.46316292 C0.0721105271,1.1778158 0.353590068,0.897022083 0.63658294,0.897022083 L22.2953743,0.897022083 C22.5768538,0.897022083 22.8598467,1.1793336 22.8598467,1.46316292 L20.5051039,3.63665806 L2.80367274,3.63665806 L2.80367274,3.54103641 L2.80367274,3.54103641 Z" id="XMLID_27_"></path>
                    </g>
                    <path d="M907.515108,89.0859579 C902.40913,90.1377959 897.418165,86.8411259 896.369427,81.7200557 C895.319175,76.5989855 898.607643,71.5932683 903.713621,70.5399125 C908.7969,69.4926278 913.771218,72.7574239 914.845683,77.8496559 C915.883828,82.9783151 912.615033,87.9901035 907.515108,89.0859579 L907.515108,89.0859579 Z M856.499212,130.137999 L860.786478,128.453237 L867.837087,116.115009 L876.891345,109.523187 L880.972798,111.883372 L885.176832,110.359497 C885.756437,108.982849 887.103302,108.087344 888.595446,108.094933 C897.182085,108.094933 902.177591,102.014611 902.59527,96.1923155 C902.882803,93.2584007 905.211819,90.8299145 907.640715,89.6581699 C908.264207,89.3394311 908.927046,89.1072071 909.611072,88.9675692 C910.326877,88.8400736 911.050249,88.7748081 911.775135,88.7687369 L911.805401,88.75963 C915.110516,88.8552517 918.999776,90.6842053 919.818488,94.4893396 L924.225308,114.908355 C924.475007,116.052779 924.399341,117.247291 924.011928,118.35377 C923.961988,118.558673 919.382649,129.769173 919.382649,129.769173 L929.739886,129.769173 C932.498688,129.763101 934.741444,132.001862 934.747497,134.767301 C934.755064,137.535775 932.521388,139.783642 929.764099,139.791232 L929.739886,139.791232 L911.888635,139.791232 C910.211864,139.792749 908.641027,138.962511 907.695195,137.575238 C906.758443,136.194036 906.57533,134.434902 907.209416,132.891295 L910.046911,125.964038 L903.908841,127.709513 L906.218184,140.311838 C906.705476,143.042367 904.897046,145.651472 902.177591,146.141723 C902.171537,146.143241 902.165484,146.143241 902.160944,146.146276 C901.859791,146.196364 901.555612,146.220649 901.246892,146.222166 C898.821023,146.231273 896.735653,144.500977 896.28922,142.108918 L893.161165,125.033625 C892.701113,122.489785 894.24925,120.014247 896.731113,119.320611 L906.678237,116.499013 L905.060486,109.01624 C901.410332,113.240289 895.879107,115.439586 888.596959,115.439586 C887.737387,115.439586 886.905055,115.136026 886.24373,114.583545 L882.731289,115.849393 L873.098938,134.131341 L873.507537,143.98037 C873.552937,145.182471 872.617699,146.193328 871.419141,146.237345 L871.325314,146.237345 C870.161563,146.243416 869.202111,145.323627 869.150658,144.159471 L868.885825,137.866656 L867.846167,144.631508 C867.663053,145.829055 866.549242,146.651705 865.355224,146.469569 C864.161206,146.28895 863.340981,145.171846 863.519554,143.972781 L863.519554,143.972781 L865.235671,132.933794 L862.308889,131.283941 L857.67961,133.103788 C856.868464,133.44074 855.936253,133.0537 855.59878,132.237122 C855.26282,131.422061 855.650233,130.488612 856.462892,130.150141 C856.476512,130.147106 856.487105,130.141035 856.499212,130.137999 L856.499212,130.137999 Z M876.013613,104.930312 C875.73062,105.195928 875.440061,105.469133 875.151015,105.734748 C874.945202,105.921438 876.124086,108.632236 876.124086,108.632236 L867.310447,114.95996 C866.712682,114.038653 866.123996,113.112793 865.527744,112.182379 C864.279246,110.11513 862.911195,108.120736 861.434184,106.212857 C861.002884,105.704392 860.521645,105.244498 859.995006,104.836209 C857.582757,102.970828 859.082467,101.682212 859.46534,101.459095 C860.417225,100.933935 861.57341,100.956702 862.501082,101.518289 C863.053448,101.80819 863.601273,102.117822 864.155153,102.416829 C864.288326,102.512451 864.472952,102.497273 864.590992,102.38192 C864.845231,102.19523 865.126711,102.023718 865.399111,101.852206 C866.994161,100.894472 868.537759,101.064466 870.232689,100.329849 C870.812295,100.090036 874.401916,96.0025901 876.304173,96.9952338 C878.383489,98.0804636 878.530282,100.348063 877.862904,102.167909 C877.473977,103.224301 876.839892,104.172928 876.013613,104.930312 L876.013613,104.930312 Z" id="Forma_1_1_" fill="#FFFFFF"></path>
                    <path d="M56.290723,59.4192979 L61.9914403,59.4192979 L61.9914403,65.8380904 L65.7505542,65.8380904 L65.7505542,44.2063498 C65.7490409,42.7158664 64.5429162,41.5061767 63.0553119,41.5061767 L36.440362,41.5061767 C34.9497311,41.5031411 33.7420931,42.7128308 33.7390664,44.2063498 L33.7390664,44.2063498 L33.7390664,99.1022799 C33.7420931,100.594281 34.9527578,101.802453 36.440362,101.802453 L46.0152064,101.802453 L46.0152064,84.2293198 L53.4335543,84.2293198 L53.4335543,69.5202826 C53.5152742,67.8628408 54.6805389,66.4588722 56.2892096,66.0763856 L56.290723,59.4192979 L56.290723,59.4192979 L56.290723,59.4192979 L56.290723,59.4192979 Z M56.290723,46.9125941 L61.9914403,46.9125941 L61.9914403,55.0252557 L56.290723,55.0252557 L56.290723,46.9125941 L56.290723,46.9125941 L56.290723,46.9125941 Z M43.2972642,92.5226002 L37.5995735,92.5226002 L37.5995735,84.4099385 L43.2987775,84.4099385 L43.2972642,92.5226002 L43.2972642,92.5226002 L43.2972642,92.5226002 Z M43.2972642,80.6473027 L37.5995735,80.6473027 L37.5995735,72.5285699 L43.2987775,72.5285699 L43.2987775,80.6427493 L43.2972642,80.6473027 L43.2972642,80.6473027 Z M43.2972642,67.5304417 L37.5995735,67.5304417 L37.5995735,59.4192979 L43.2987775,59.4192979 L43.2972642,67.5304417 L43.2972642,67.5304417 L43.2972642,67.5304417 Z M43.2972642,55.0252557 L37.5995735,55.0252557 L37.5995735,46.9125941 L43.2987775,46.9125941 L43.2972642,55.0252557 L43.2972642,55.0252557 L43.2972642,55.0252557 Z M52.7994687,80.6457849 L47.1048046,80.6457849 L47.1048046,72.5285699 L52.8024953,72.5285699 L52.8024953,80.6427493 L52.7994687,80.6457849 L52.7994687,80.6457849 Z M52.7994687,67.5304417 L47.1048046,67.5304417 L47.1048046,59.4192979 L52.8024953,59.4192979 L52.8024953,67.5304417 L52.7994687,67.5304417 L52.7994687,67.5304417 Z M52.7994687,55.0252557 L47.1048046,55.0252557 L47.1048046,46.9125941 L52.8024953,46.9125941 L52.8024953,55.0252557 L52.7994687,55.0252557 L52.7994687,55.0252557 Z M80.9035362,68.0055144 L58.3609596,68.0055144 C57.100355,68.0055144 56.0773433,68.6854905 56.0773433,69.5202826 L56.0773433,100.29072 C56.0773433,101.130066 57.100355,101.805489 58.3609596,101.805489 L66.472413,101.805489 L66.472413,91.9549415 L72.9842757,91.9549415 L72.9842757,101.802453 L80.9035362,101.802453 C82.1641408,101.802453 83.1871524,101.119441 83.1871524,100.284649 L83.1871524,69.5187648 C83.1886658,68.6839727 82.1641408,68.0055144 80.9035362,68.0055144 L80.9035362,68.0055144 Z M64.1691235,96.6024569 L59.3431113,96.6024569 L59.3431113,92.0566344 L64.1676101,92.0566344 L64.1691235,96.6024569 L64.1691235,96.6024569 L64.1691235,96.6024569 Z M64.1691235,89.9453692 L59.3431113,89.9453692 L59.3431113,85.3995466 L64.1676101,85.3995466 L64.1691235,89.9453692 L64.1691235,89.9453692 L64.1691235,89.9453692 Z M64.1691235,82.5946451 L59.3431113,82.5946451 L59.3431113,78.0488225 L64.1676101,78.0488225 L64.1691235,82.5946451 L64.1691235,82.5946451 L64.1691235,82.5946451 Z M64.1691235,75.5823912 L59.3431113,75.5823912 L59.3431113,71.0365687 L64.1676101,71.0365687 L64.1691235,75.5823912 L64.1691235,75.5823912 L64.1691235,75.5823912 Z M72.2185303,89.9453692 L67.3940315,89.9453692 L67.3940315,85.3995466 L72.2185303,85.3995466 L72.2185303,89.9453692 L72.2185303,89.9453692 L72.2185303,89.9453692 Z M72.2185303,82.5946451 L67.3940315,82.5946451 L67.3940315,78.0488225 L72.2185303,78.0488225 L72.2185303,82.5946451 L72.2185303,82.5946451 L72.2185303,82.5946451 Z M72.2185303,75.5823912 L67.3940315,75.5823912 L67.3940315,71.0365687 L72.2185303,71.0365687 L72.2185303,75.5823912 L72.2185303,75.5823912 L72.2185303,75.5823912 Z M79.9985643,96.7041498 L75.1770922,96.7041498 L75.1770922,92.1583272 L80.001591,92.1583272 L80.001591,96.7041498 L79.9985643,96.7041498 L79.9985643,96.7041498 Z M79.9985643,89.9453692 L75.1770922,89.9453692 L75.1770922,85.3995466 L80.001591,85.3995466 L80.001591,89.9453692 L79.9985643,89.9453692 L79.9985643,89.9453692 Z M79.9985643,82.5946451 L75.1770922,82.5946451 L75.1770922,78.0488225 L80.001591,78.0488225 L80.001591,82.5946451 L79.9985643,82.5946451 L79.9985643,82.5946451 Z M79.9985643,75.583909 L75.1770922,75.583909 L75.1770922,71.0365687 L80.001591,71.0365687 L80.001591,75.5823912 L79.9985643,75.583909 L79.9985643,75.583909 Z" id="Forma_1_2_" fill="#FFFFFF"></path>
                    <path d="M719.871448,129.538795 L665.981736,129.538795 C664.474459,129.555491 663.265307,130.792501 663.284981,132.304234 L663.284981,132.305752 L663.284981,171.879452 C663.263794,173.391184 664.472945,174.632748 665.980223,174.649444 L665.981736,174.649444 L668.672438,174.649444 L668.672438,173.726619 C668.661845,171.530357 669.515364,169.422127 671.042315,167.8512 C672.538999,166.295451 674.604695,165.416643 676.759679,165.418161 C676.944305,165.418161 677.130445,165.428785 677.316584,165.437892 C675.524801,162.086581 672.371019,159.680862 668.670925,158.850623 L668.670925,145.336098 C673.72545,144.188638 677.634384,140.171011 678.654369,135.075744 L707.198816,135.075744 C708.218801,140.169493 712.127734,144.188638 717.182259,145.336098 L717.182259,158.852141 C712.127734,159.998083 708.218801,164.014192 707.198816,169.110977 L683.484921,169.110977 C684.374759,170.48459 684.843892,172.088909 684.839352,173.726619 L684.839352,174.649444 L719.869935,174.649444 C721.377212,174.632748 722.586364,173.39422 722.57123,171.882487 L722.57123,171.879452 L722.57123,132.305752 C722.587877,130.795537 721.381752,129.555491 719.872962,129.538795 C719.872962,129.538795 719.872962,129.538795 719.871448,129.538795 L719.871448,129.538795 Z M692.928106,160.058795 C698.40485,160.058795 702.695143,156.561775 702.695143,152.097914 C702.695143,147.635571 698.40485,144.126408 692.928106,144.126408 C687.448334,144.126408 683.158041,147.624946 683.158041,152.097914 C683.158041,156.570882 687.448334,160.058795 692.928106,160.058795 L692.928106,160.058795 Z M684.839352,180.18791 L684.839352,180.473257 C691.211988,181.877226 695.735334,187.559883 695.686908,194.104654 C695.724741,195.595137 694.55191,196.838218 693.062792,196.876163 C691.576701,196.914109 690.33577,195.736293 690.29945,194.244292 L690.29945,194.104654 C690.34939,189.5391 686.703776,185.794677 682.151676,185.735483 C680.642886,185.714234 679.435248,184.475706 679.450381,182.967009 L679.450381,173.726619 C679.456434,172.995037 679.171928,172.289259 678.661935,171.765616 C678.167076,171.246527 677.476997,170.955109 676.761192,170.958145 C676.039333,170.96118 675.353794,171.251081 674.846828,171.765616 C674.344402,172.292294 674.058383,172.996555 674.059896,173.726619 L674.059896,188.458423 C674.050816,193.646277 676.08776,198.626191 679.724294,202.312937 L706.127377,202.312937 C709.765425,198.624674 711.799341,193.644759 711.793288,188.458423 L711.793288,180.18791 L684.839352,180.18791 L684.839352,180.18791 L684.839352,180.18791 Z" id="Shape" fill="#FFFFFF"></path>
                    <path d="M249.390228,159.779527 C249.390228,159.054017 248.804569,158.468145 248.08271,158.47118 L248.07817,158.47118 L243.495804,158.47118 C242.773945,158.466627 242.186773,159.052499 242.183746,159.774974 L242.183746,159.779527 L242.183746,164.332939 C242.183746,165.058449 242.770919,165.644321 243.492778,165.642803 L243.495804,165.642803 L248.07817,165.642803 C248.800029,165.647357 249.388715,165.061485 249.390228,164.337492 L249.390228,164.332939 L249.390228,159.779527 L249.390228,159.779527 L249.390228,159.779527 Z M260.841603,159.779527 C260.841603,159.054017 260.25443,158.468145 259.532571,158.47118 L259.529545,158.47118 L254.948692,158.47118 C254.226833,158.466627 253.638148,159.052499 253.636634,159.774974 L253.636634,159.779527 L253.636634,164.332939 C253.636634,165.058449 254.223807,165.644321 254.945666,165.642803 L254.948692,165.642803 L259.529545,165.642803 C260.252917,165.645839 260.840089,165.059967 260.841603,164.337492 L260.841603,164.332939 L260.841603,159.779527 L260.841603,159.779527 Z M272.291464,159.779527 C272.291464,159.054017 271.705805,158.468145 270.982433,158.47118 L270.980919,158.47118 L266.398554,158.47118 C265.676695,158.466627 265.089522,159.052499 265.086496,159.774974 L265.086496,159.779527 L265.086496,164.332939 C265.088009,165.058449 265.673668,165.644321 266.395527,165.642803 L266.398554,165.642803 L270.980919,165.642803 C271.702778,165.645839 272.289951,165.059967 272.291464,164.337492 L272.291464,164.332939 L272.291464,159.779527 L272.291464,159.779527 Z M249.390228,171.175199 C249.390228,170.449688 248.804569,169.863816 248.08271,169.865334 L248.07817,169.865334 L243.495804,169.865334 C242.773945,169.863816 242.186773,170.44817 242.183746,171.170645 L242.183746,171.175199 L242.183746,175.730128 C242.183746,176.45412 242.770919,177.039993 243.492778,177.039993 L243.495804,177.039993 L248.07817,177.039993 C248.800029,177.043028 249.388715,176.457156 249.390228,175.733164 L249.390228,175.730128 L249.390228,171.175199 L249.390228,171.175199 L249.390228,171.175199 Z M260.841603,171.175199 C260.841603,170.449688 260.25443,169.863816 259.532571,169.865334 L259.529545,169.865334 L254.948692,169.865334 C254.226833,169.862298 253.638148,170.44817 253.636634,171.170645 L253.636634,171.175199 L253.636634,175.730128 C253.636634,176.45412 254.223807,177.039993 254.945666,177.039993 L254.948692,177.039993 L259.529545,177.039993 C260.252917,177.04151 260.840089,176.455638 260.841603,175.733164 L260.841603,175.730128 L260.841603,171.175199 L260.841603,171.175199 Z M272.291464,171.175199 C272.291464,170.449688 271.705805,169.863816 270.982433,169.865334 L270.980919,169.865334 L266.398554,169.865334 C265.676695,169.862298 265.089522,170.44817 265.086496,171.170645 L265.086496,171.175199 L265.086496,175.730128 C265.088009,176.45412 265.673668,177.039993 266.395527,177.039993 L266.398554,177.039993 L270.980919,177.039993 C271.702778,177.04151 272.289951,176.455638 272.291464,175.733164 L272.291464,175.730128 L272.291464,171.175199 L272.291464,171.175199 L272.291464,171.175199 Z M280.484637,134.426131 L280.484637,141.392851 C280.469504,144.54533 277.908948,147.090687 274.76576,147.073991 L274.75668,147.073991 L271.144359,147.073991 C267.990578,147.096758 265.413375,144.555954 265.383109,141.392851 L265.383109,134.403364 L249.096642,134.403364 L249.096642,141.392851 C249.064862,144.555954 246.487659,147.096758 243.335391,147.073991 L239.721557,147.073991 C236.578369,147.093722 234.014786,144.554437 233.9936,141.401958 L233.9936,141.392851 L233.9936,134.426131 C231.206044,134.509611 228.982961,136.786316 228.958748,139.580593 L228.958748,180.392821 C228.967828,183.259953 231.286251,185.577639 234.14342,185.582193 L280.334818,185.582193 C283.191986,185.576122 285.507382,183.259953 285.517976,180.392821 L285.517976,139.580593 C285.493762,136.786316 283.269166,134.509611 280.484637,134.426131 L280.484637,134.426131 L280.484637,134.426131 Z M278.806353,177.8505 C278.803327,179.08751 277.798475,180.089261 276.56511,180.086225 L237.811734,180.086225 C236.578369,180.089261 235.573517,179.089028 235.570491,177.8505 L235.570491,156.775793 C235.573517,155.540301 236.578369,154.537033 237.811734,154.540068 L276.563597,154.540068 C277.798475,154.537033 278.801813,155.538783 278.80484,156.775793 L278.80484,177.8505 L278.806353,177.8505 L278.806353,177.8505 L278.806353,177.8505 Z M239.706424,143.346265 L243.282425,143.346265 C244.36143,143.3493 245.240675,142.476563 245.246728,141.392851 L245.246728,129.972895 C245.240675,128.890701 244.36143,128.017963 243.282425,128.020999 L239.706424,128.020999 C238.625906,128.017963 237.748174,128.890701 237.74212,129.972895 L237.74212,141.392851 C237.748174,142.476563 238.625906,143.3493 239.706424,143.346265 L239.706424,143.346265 L239.706424,143.346265 Z M271.097446,143.346265 L274.673447,143.346265 C275.752452,143.3493 276.631697,142.476563 276.636237,141.392851 L276.636237,129.972895 C276.631697,128.890701 275.752452,128.017963 274.673447,128.020999 L271.097446,128.020999 C270.016928,128.017963 269.137682,128.890701 269.133142,129.972895 L269.133142,141.392851 C269.137682,142.476563 270.018441,143.3493 271.097446,143.346265 L271.097446,143.346265 L271.097446,143.346265 Z" id="Forma_1_3_" fill="#FFFFFF"></path>
                    <g id="XMLID_17_" transform="translate(266.346232, 162.930480)" fill="#F6B11F">
                        <path d="M34.7227315,6.82708178 L18.4983113,23.1040104 C18.3742181,23.2254347 18.1290585,23.346859 18.0079921,23.346859 C17.8838989,23.346859 17.6447927,23.2254347 17.5206995,23.1040104 L9.8360054,15.2736603 C9.71191227,15.1507182 9.58933247,14.9063517 9.58933247,14.780374 C9.58933247,14.6604675 9.71191227,14.4176189 9.8360054,14.2946768 L12.3965612,11.7265526 C12.6371808,11.4806684 13.1275,11.4806684 13.3681196,11.7265526 L18.0064787,16.3755859 L31.1830506,3.15854984 C31.4282102,2.91418342 31.9139894,2.91418342 32.159149,3.15854984 L34.7212182,5.72819178 C34.843798,5.85113389 34.9663778,6.09550031 34.9663778,6.21692462 C34.8453113,6.46280885 34.8453113,6.70717527 34.7227315,6.82708178 L34.7227315,6.82708178 Z M3.73728202,3.76870699 L3.73728202,26.2822917 L26.1845187,26.2822917 L26.1845187,26.2822917 L26.1845187,19.4294073 L29.7226863,15.7608753 L29.7226863,29.22076 C29.7226863,29.5835151 29.3549469,29.9523414 28.9917475,29.9523414 L0.930053263,29.9523414 C0.562313863,29.9523414 0.199114456,29.5835151 0.199114456,29.22076 L0.199114456,1.07764074 C0.199114456,0.708814404 0.562313863,0.343023673 0.930053263,0.343023673 L28.9917475,0.343023673 C29.3549469,0.343023673 29.7226863,0.708814404 29.7226863,1.07764074 L26.6702979,3.89164911 L3.73728202,3.89164911 L3.73728202,3.76870699 L3.73728202,3.76870699 Z" id="XMLID_18_"></path>
                    </g>
                </g>
                <text id="Selecciona-la-ciudad" font-family="SourceSansPro-Light, Source Sans Pro" font-size="18" font-weight="300" fill="#033B71">
                    <tspan x="16.12" y="200">Selecciona la</tspan>
                    <tspan x="36.955" y="223">ciudad.</tspan>
                </text>
                <text id="1" font-family="SourceSansPro-Semibold, Source Sans Pro" font-size="24" font-weight="500" fill="#F8BA45">
                    <tspan x="58.344" y="177">1</tspan>
                </text>
                <text id="Ingresa-las-fechas-q" font-family="SourceSansPro-Light, Source Sans Pro" font-size="18" font-weight="300" fill="#033B71">
                    <tspan x="193.717" y="291">Ingresa las fechas </tspan>
                    <tspan x="181.252" y="314">que necesitas cuiden </tspan>
                    <tspan x="204.121" y="337">de tu mascota.</tspan>
                </text>
                <text id="2" font-family="SourceSansPro-Semibold, Source Sans Pro" font-size="24" font-weight="500" fill="#F8BA45">
                    <tspan x="251.344" y="267">2</tspan>
                </text>
                <text id="Selecciona-el-cuidad" font-family="SourceSansPro-Light, Source Sans Pro" font-size="18" font-weight="300" fill="#033B71">
                    <tspan x="442.692" y="231">Selecciona el</tspan>
                    <tspan x="424.782" y="254">cuidador que más </tspan>
                    <tspan x="426.987" y="277">se acomode a tus </tspan>
                    <tspan x="450.873" y="300">exigencias. </tspan>
                </text>
                <text id="3" font-family="SourceSansPro-Semibold, Source Sans Pro" font-size="24" font-weight="500" fill="#F8BA45">
                    <tspan x="484.344" y="208">3</tspan>
                </text>
                <text id="Realiza-el-pago-de-f" font-family="SourceSansPro-Light, Source Sans Pro" font-size="18" font-weight="300" fill="#033B71">
                    <tspan x="629.164" y="291">Realiza el pago de</tspan>
                    <tspan x="644.428" y="314">forma segura.</tspan>
                </text>
                <text id="4" font-family="SourceSansPro-Semibold, Source Sans Pro" font-size="24" font-weight="500" fill="#F8BA45">
                    <tspan x="687.344" y="268">4</tspan>
                </text>
                <text id="Toma-contacto-con-el" font-family="SourceSansPro-Light, Source Sans Pro" font-size="18" font-weight="300" fill="#033B71">
                    <tspan x="822.196" y="237">Toma contacto con</tspan>
                    <tspan x="823.546" y="260">el cuidador para tu</tspan>
                    <tspan x="870.445" y="283">perro.</tspan>
                </text>
                <text id="5" font-family="SourceSansPro-Semibold, Source Sans Pro" font-size="24" font-weight="500" fill="#F8BA45">
                    <tspan x="885.344" y="214">5</tspan>
                </text>
            </g>
        </g>
    </g>
</svg>