<?xml version="1.0" encoding="UTF-8" standalone="no"?>
<svg width="100%" height="auto" viewBox="0 0 285 331" version="1.1" xmlns="http://www.w3.org/2000/svg" xmlns:xlink="http://www.w3.org/1999/xlink">
    <defs></defs>
    <g id="Page-1" stroke="none" stroke-width="1" fill="none" fill-rule="evenodd">
        <g id="iconografia">
            <path d="M101.0205,83.7014 C96.6635,87.1994 90.3255,86.5144 86.8385,82.1194 C83.3565,77.7324 84.0905,71.3514 88.4695,67.8794 C92.8525,64.4024 99.2235,65.1444 102.7065,69.5334 C106.1905,73.9244 105.4035,80.2244 101.0205,83.7014 M103.2975,41.5214 L100.8685,54.0254 C100.8685,54.0254 73.4715,47.2914 69.1515,75.3614 L56.6665,72.8204 C56.6665,72.8204 58.5195,30.7284 103.2975,41.5214 M211.3955,29.3104 C178.4755,10.9944 141.3725,7.2114 107.5105,15.8474 L105.2905,27.6854 C105.2905,27.6854 90.3745,24.0004 75.0305,28.5354 C67.5795,32.5604 60.4655,37.2734 53.7855,42.6354 C48.7895,48.9594 44.9035,57.6154 43.1135,69.4264 L30.1685,66.7994 C26.0005,72.2444 22.1705,78.0564 18.7425,84.2324 C-19.3225,152.6524 5.2465,238.8304 73.6065,277.0084 C112.8175,298.6684 157.9095,299.8884 196.4655,284.0744 L236.8195,330.1634 C236.8195,330.1634 228.2195,300.1334 219.5085,272.1664 C238.2995,259.9614 254.6205,243.0844 266.4075,221.8964 C304.4425,153.7754 279.9245,67.3244 211.3955,29.3104" id="Fill-23" fill="#004F8F"></path>
            <path d="M10.4521,62.7952 L21.8831,65.5002 L34.7361,68.5432 C36.9021,56.7952 41.0641,48.2682 46.2611,42.1082 C53.1091,36.9632 60.3701,32.4792 67.9461,28.6952 C83.4311,24.6562 98.2201,28.8182 98.2201,28.8182 L100.8171,17.0592 L103.6041,4.4302 C16.6471,-19.5348 10.4521,62.7952 10.4521,62.7952" id="Fill-25" fill="#EFA43A"></path>
            <path d="M92.9541,55.0022 L95.7841,42.5822 C51.3741,30.3592 48.1731,72.3692 48.1731,72.3692 L60.5711,75.3092 C65.7881,47.3932 92.9541,55.0022 92.9541,55.0022" id="Fill-27" fill="#EFA43A"></path>
            <path d="M80.1182,68.4514 C75.6302,71.7814 74.6922,78.1354 78.0302,82.6334 C81.3762,87.1354 87.6882,88.0234 92.1552,84.6684 C96.6452,81.3324 97.6362,75.0604 94.2942,70.5604 C90.9542,66.0604 84.6102,65.1174 80.1182,68.4514" id="Fill-29" fill="#EFA43A"></path>
            <path d="M152.332,267.4495 C147.766,269.4675 145.411,273.5335 146.418,278.1415 C147.374,282.5285 151.595,286.0695 156.035,286.2165 C160.712,286.3695 164.983,282.8865 166.014,278.0795 C167.078,273.1155 165.109,269.6935 160.674,267.6875 C159.026,269.9805 157.491,272.1125 155.957,274.2455 C154.813,272.0995 153.669,269.9545 152.332,267.4495" id="Fill-31" fill="#FFFFFF"></path>
            <path d="M152.332,267.4495 C153.669,269.9545 154.813,272.0995 155.957,274.2455 C157.491,272.1125 159.026,269.9805 160.674,267.6875 C165.109,269.6935 167.078,273.1155 166.014,278.0795 C164.983,282.8865 160.712,286.3695 156.035,286.2165 C151.595,286.0695 147.374,282.5285 146.418,278.1415 C145.411,273.5335 147.766,269.4675 152.332,267.4495" id="Fill-33" fill="#FEFCFC"></path>
            <path d="M144.123,196.305 C143.523,197.633 143.262,197.862 139.936,198.555 C137.686,198.805 137.311,198.055 136.712,196.482 C136.373,194.305 139.278,193.699 140.595,193.666 C141.845,193.634 144.435,194.055 144.123,196.305 M209.648,174.594 C213.102,189.784 214.541,204.85 210.775,219.789 C205.721,239.835 190.519,248.614 171.691,252.493 C166.445,253.574 161.021,253.797 154.777,254.518 C154.777,242.756 154.678,231.631 154.953,220.514 C154.977,219.541 157.344,218.316 158.83,217.742 C165.56,215.145 170.695,211.104 172.969,203.91 C174.465,199.169 173.047,195.398 168.891,193.382 C158.293,188.241 147.533,187.895 136.84,193.51 C132.578,195.747 132.18,198.992 133.658,203.066 C136.082,209.749 140.773,214.216 147.119,217.108 C148.896,217.916 150.725,218.616 152.603,219.396 L152.603,254.243 C130.793,254.211 109.923,252.238 95.77,233.001 C87.782,222.145 86.386,209.149 88.241,196.23 C90.698,179.141 93.393,161.996 97.554,145.265 C102.712,124.532 114.665,109.252 136.967,104.584 C138.197,104.326 139.447,104.117 140.697,104.034 C141.547,103.977 142.416,104.175 142.732,104.206 C143.865,115.084 144.156,125.774 146.219,136.108 C151.521,162.689 166.969,175.093 193.914,175.355 C199.045,175.405 204.182,174.875 209.648,174.594 M244.988,94.606 C237.525,86.953 228.301,85.897 218.646,90.779 C215.113,92.565 211.477,94.252 208.236,96.49 C200.85,101.593 193.68,107.009 186.672,112.114 C162.434,96.946 138.309,97.049 114.798,111.531 C104.276,104.701 94.23,97.285 83.365,91.373 C71.633,84.99 63.112,87.118 53.721,96.795 C45.231,105.542 39.925,116.104 36.435,127.65 C32.602,140.343 31.354,153.22 35.78,165.941 C40.154,178.508 50.299,180.675 59.186,170.846 C63.226,166.379 66.983,161.064 68.977,155.46 C73.544,142.617 77.253,129.438 80.647,116.225 C81.724,112.04 83.591,110.883 86.895,112.226 C93.145,114.767 99.17,117.863 106.222,121.163 C97.622,133.105 94.854,145.304 92.306,157.733 C88.903,174.312 84.602,190.627 85.394,207.862 C86.317,227.977 96.542,243.405 115.296,250.921 C118.399,252.164 121.605,253.148 124.824,254.273 C121.514,258.584 122.16,260.858 127.291,263.319 C137.074,268.013 147.594,268.901 157.994,267.409 C166.639,266.17 175.076,263.253 183.459,260.617 C184.822,260.187 185.432,257.353 186.391,255.63 C184.691,255.326 182.904,254.522 181.309,254.803 C172.818,256.295 164.424,258.4 155.902,259.636 C146.775,260.961 133.248,258.343 127.916,254.802 C143.107,257.419 158.025,257.745 172.824,254.639 C192.225,250.569 207.365,241.13 213.066,220.72 C216.338,209.008 215.883,197.032 214.047,185.273 C212.076,172.66 209.367,160.111 206.07,147.778 C203.727,139.022 199.869,130.672 196.178,120.768 C201.467,118.197 207.43,115.034 213.611,112.394 C217.467,110.747 219.775,112.021 220.635,116.741 C222.146,125.043 224.061,133.323 226.521,141.393 C229.842,152.286 233.977,162.962 242.164,171.314 C250.922,180.246 259.439,178.717 264.846,167.488 C265.463,166.207 265.939,164.813 266.211,163.419 C271.416,136.702 263.723,113.817 244.988,94.606" id="Fill-35" fill="#FFFFFF"></path>
            <path d="M125.1465,153.7054 C125.1465,156.5534 122.8375,158.8614 119.9905,158.8614 C117.1425,158.8614 114.8335,156.5534 114.8335,153.7054 C114.8335,150.8574 117.1425,148.5494 119.9905,148.5494 C122.8375,148.5494 125.1465,150.8574 125.1465,153.7054" id="Fill-37" fill="#FFFFFF"></path>
            <path d="M185.2715,153.7054 C185.2715,156.5534 182.9625,158.8614 180.1155,158.8614 C177.2675,158.8614 174.9585,156.5534 174.9585,153.7054 C174.9585,150.8574 177.2675,148.5494 180.1155,148.5494 C182.9625,148.5494 185.2715,150.8574 185.2715,153.7054" id="Fill-39" fill="#004F8F"></path>
        </g>
    </g>
</svg>