<?xml version="1.0" encoding="UTF-8" standalone="no"?>
<svg width="566px" height="331px" viewBox="0 0 566 331" version="1.1" xmlns="http://www.w3.org/2000/svg" xmlns:xlink="http://www.w3.org/1999/xlink">
    <!-- Generator: Sketch 3.8.3 (29802) - http://www.bohemiancoding.com/sketch -->
    <title>iconografia</title>
    <desc>Created with Sketch.</desc>
    <defs></defs>
    <g id="Page-1" stroke="none" stroke-width="1" fill="none" fill-rule="evenodd">
        <g id="iconografia">
            <path d="M263.6641,302.0843 C259.6481,304.2323 256.2861,305.0723 251.9911,305.0723 C240.6911,305.0723 233.5011,297.5083 233.5011,285.7423 C233.5011,272.1073 244.1461,260.5283 260.6761,260.5283 C262.8231,260.5283 265.2511,260.8093 267.8661,261.2753 L266.8391,268.2793 C264.6911,267.8133 262.7291,267.6253 260.7681,267.6253 C249.0971,267.6253 241.6261,276.4043 241.6261,285.2753 C241.6261,293.2133 246.0151,297.9753 253.1111,297.9753 C257.3131,297.9753 260.6761,296.7623 264.5981,294.4263 L263.6641,302.0843 Z" id="Fill-1" fill="#004F8F"></path>
            <path d="M286.0781,298.2561 C292.7081,298.2561 298.1241,289.9431 298.1241,278.3651 C298.1241,271.3611 295.2291,266.7851 290.6531,266.7851 C283.8371,266.7851 278.7001,276.4961 278.7001,287.1431 C278.7001,293.8671 281.9691,298.2561 286.0781,298.2561 M286.3581,305.0721 C276.4601,305.0721 270.5761,298.0691 270.5761,286.3031 C270.5761,271.6411 279.2611,260.5281 290.6531,260.5281 C300.1791,260.5281 306.2491,267.8131 306.2491,278.8321 C306.2491,294.5201 297.3781,305.0721 286.3581,305.0721" id="Fill-3" fill="#004F8F"></path>
            <path d="M324.6475,269.2132 L324.8345,269.4002 C329.4105,263.7972 334.0795,261.1822 338.7495,261.1822 C347.6205,261.1822 349.8615,270.4282 348.7415,277.3382 L344.7255,303.7662 L336.8805,303.7662 L340.7095,277.0572 C341.7375,269.7742 338.5615,267.7192 336.1335,267.7192 C333.8925,267.7192 329.5035,269.3072 323.5275,277.0572 L319.6985,303.7662 L311.8545,303.7662 L317.7375,261.8362 L325.6745,261.8362 L324.6475,269.2132 Z" id="Fill-5" fill="#004F8F"></path>
            <path d="M383.0146,273.2288 C378.2526,269.5858 373.8636,267.7188 370.4086,267.7188 C367.1396,267.7188 364.7116,269.6798 364.7116,272.1078 C364.7116,278.0838 381.4276,280.9788 381.4276,292.5588 C381.4276,300.1238 375.8246,305.0728 368.4476,305.0728 C363.2176,305.0728 359.8566,303.7658 353.8796,299.5628 L355.2806,291.9068 C360.7896,296.2948 364.8056,298.1628 368.1666,298.1628 C371.3416,298.1628 373.5826,296.2018 373.5826,293.4928 C373.5826,286.4888 357.1476,283.9668 357.1476,272.5748 C357.1476,265.3848 362.2846,260.5288 370.3156,260.5288 C374.7036,260.5288 379.0926,262.2088 383.0146,264.9178 L383.0146,273.2288 Z" id="Fill-7" fill="#004F8F"></path>
            <path d="M420.6494,303.7659 L412.8054,303.7659 L413.7394,296.8559 L413.5524,296.6679 C410.2844,300.1229 405.4284,304.4179 399.7314,304.4179 C395.0624,304.4179 388.2454,301.0569 389.8334,289.4769 L393.7544,261.8359 L401.6924,261.8359 L397.7704,289.4769 C396.7434,296.9479 400.1054,298.3499 402.2534,298.3499 C405.3354,298.3499 409.1634,295.9199 414.8604,289.1039 L418.6884,261.8359 L426.6264,261.8359 L420.6494,303.7659 Z" id="Fill-9" fill="#004F8F"></path>
            <path d="M444.5576,269.1194 L444.7446,269.3064 C449.8806,263.5164 454.5496,261.1824 459.2196,261.1824 C462.6746,261.1824 467.6236,262.9574 468.7446,270.6134 C474.8146,263.1424 480.3246,261.1824 484.4326,261.1824 C490.5026,261.1824 495.6386,265.7584 494.0516,276.5904 L490.2226,303.7654 L482.2856,303.7654 L486.2066,276.2174 C487.0476,270.7074 485.3666,267.4394 481.9116,267.4394 C479.1106,267.4394 474.5346,269.4944 468.7446,277.1504 L464.9146,303.7654 L456.9776,303.7654 L460.7136,277.2444 C461.6476,271.1744 460.5266,267.4394 456.0436,267.4394 C452.9616,267.4394 447.8266,271.2674 443.4376,277.1504 L439.7026,303.7654 L431.7646,303.7654 L437.7416,261.8364 L445.6786,261.8364 L444.5576,269.1194 Z" id="Fill-11" fill="#004F8F"></path>
            <path d="M517.6807,298.2561 C524.3117,298.2561 529.7277,289.9431 529.7277,278.3651 C529.7277,271.3611 526.8327,266.7851 522.2567,266.7851 C515.4397,266.7851 510.3037,276.4961 510.3037,287.1431 C510.3037,293.8671 513.5727,298.2561 517.6807,298.2561 M517.9607,305.0721 C508.0627,305.0721 502.1787,298.0691 502.1787,286.3031 C502.1787,271.6411 510.8647,260.5281 522.2567,260.5281 C531.7827,260.5281 537.8517,267.8131 537.8517,278.8321 C537.8517,294.5201 528.9807,305.0721 517.9607,305.0721" id="Fill-13" fill="#004F8F"></path>
            <path d="M396.7471,95.552 L386.9251,95.552 C331.3311,95.552 315.0261,133.662 315.0261,159.199 C315.0261,183.558 328.7771,199.274 350.1901,199.274 C361.5831,199.274 378.2801,192.398 390.2641,182.772 L387.3171,204.381 C373.9591,212.041 359.8151,216.167 347.6361,216.167 C317.1871,216.167 295.9721,193.184 295.9721,160.377 C295.9721,113.625 330.5461,78.658 387.5141,78.658 L400.2821,78.658 L396.7471,95.552 Z" id="Fill-15" fill="#EFA43A"></path>
            <path d="M432.6963,98.4983 C432.6963,103.8033 428.3743,108.1243 423.0703,108.1243 C417.7663,108.1243 413.4443,103.8033 413.4443,98.4983 C413.4443,93.1943 417.7663,88.8733 423.0703,88.8733 C428.3743,88.8733 432.6963,93.1943 432.6963,98.4983 L432.6963,98.4983 Z M415.9993,214.3983 L399.3003,214.3983 L411.6763,126.1973 L428.3743,126.1973 L415.9993,214.3983 Z" id="Fill-17" fill="#EFA43A"></path>
            <path d="M485.9307,139.1624 L468.2507,139.1624 L459.8037,187.4864 C457.8397,198.6834 460.3937,202.2204 468.4477,202.2204 C473.3587,202.2204 477.2867,201.0414 484.5557,196.9164 L483.5737,213.2214 C476.5007,216.1674 471.7867,217.1484 465.3037,217.1484 C448.0177,217.1484 439.9637,206.1484 442.3217,192.5944 L451.5537,139.1624 L436.0347,139.1624 L437.9987,126.1974 L454.1077,126.1974 L457.4467,108.1244 L473.9487,108.1244 L470.8047,126.1974 L487.6987,126.1974 L485.9307,139.1624 Z" id="Fill-19" fill="#004F8F"></path>
            <polygon id="Fill-21" fill="#004F8F" points="502.2354 259.5804 484.5554 259.5804 508.5204 209.0964 491.4304 126.1974 508.1284 126.1974 519.9154 186.8964 520.3074 186.8964 548.0064 126.1974 565.4894 126.1974"></polygon>
            <path d="M101.0205,83.7014 C96.6635,87.1994 90.3255,86.5144 86.8385,82.1194 C83.3565,77.7324 84.0905,71.3514 88.4695,67.8794 C92.8525,64.4024 99.2235,65.1444 102.7065,69.5334 C106.1905,73.9244 105.4035,80.2244 101.0205,83.7014 M103.2975,41.5214 L100.8685,54.0254 C100.8685,54.0254 73.4715,47.2914 69.1515,75.3614 L56.6665,72.8204 C56.6665,72.8204 58.5195,30.7284 103.2975,41.5214 M211.3955,29.3104 C178.4755,10.9944 141.3725,7.2114 107.5105,15.8474 L105.2905,27.6854 C105.2905,27.6854 90.3745,24.0004 75.0305,28.5354 C67.5795,32.5604 60.4655,37.2734 53.7855,42.6354 C48.7895,48.9594 44.9035,57.6154 43.1135,69.4264 L30.1685,66.7994 C26.0005,72.2444 22.1705,78.0564 18.7425,84.2324 C-19.3225,152.6524 5.2465,238.8304 73.6065,277.0084 C112.8175,298.6684 157.9095,299.8884 196.4655,284.0744 L236.8195,330.1634 C236.8195,330.1634 228.2195,300.1334 219.5085,272.1664 C238.2995,259.9614 254.6205,243.0844 266.4075,221.8964 C304.4425,153.7754 279.9245,67.3244 211.3955,29.3104" id="Fill-23" fill="#004F8F"></path>
            <path d="M10.4521,62.7952 L21.8831,65.5002 L34.7361,68.5432 C36.9021,56.7952 41.0641,48.2682 46.2611,42.1082 C53.1091,36.9632 60.3701,32.4792 67.9461,28.6952 C83.4311,24.6562 98.2201,28.8182 98.2201,28.8182 L100.8171,17.0592 L103.6041,4.4302 C16.6471,-19.5348 10.4521,62.7952 10.4521,62.7952" id="Fill-25" fill="#EFA43A"></path>
            <path d="M92.9541,55.0022 L95.7841,42.5822 C51.3741,30.3592 48.1731,72.3692 48.1731,72.3692 L60.5711,75.3092 C65.7881,47.3932 92.9541,55.0022 92.9541,55.0022" id="Fill-27" fill="#EFA43A"></path>
            <path d="M80.1182,68.4514 C75.6302,71.7814 74.6922,78.1354 78.0302,82.6334 C81.3762,87.1354 87.6882,88.0234 92.1552,84.6684 C96.6452,81.3324 97.6362,75.0604 94.2942,70.5604 C90.9542,66.0604 84.6102,65.1174 80.1182,68.4514" id="Fill-29" fill="#EFA43A"></path>
            <path d="M152.332,267.4495 C147.766,269.4675 145.411,273.5335 146.418,278.1415 C147.374,282.5285 151.595,286.0695 156.035,286.2165 C160.712,286.3695 164.983,282.8865 166.014,278.0795 C167.078,273.1155 165.109,269.6935 160.674,267.6875 C159.026,269.9805 157.491,272.1125 155.957,274.2455 C154.813,272.0995 153.669,269.9545 152.332,267.4495" id="Fill-31" fill="#FFFFFF"></path>
            <path d="M152.332,267.4495 C153.669,269.9545 154.813,272.0995 155.957,274.2455 C157.491,272.1125 159.026,269.9805 160.674,267.6875 C165.109,269.6935 167.078,273.1155 166.014,278.0795 C164.983,282.8865 160.712,286.3695 156.035,286.2165 C151.595,286.0695 147.374,282.5285 146.418,278.1415 C145.411,273.5335 147.766,269.4675 152.332,267.4495" id="Fill-33" fill="#FEFCFC"></path>
            <path d="M144.123,196.305 C143.523,197.633 143.262,197.862 139.936,198.555 C137.686,198.805 137.311,198.055 136.712,196.482 C136.373,194.305 139.278,193.699 140.595,193.666 C141.845,193.634 144.435,194.055 144.123,196.305 M209.648,174.594 C213.102,189.784 214.541,204.85 210.775,219.789 C205.721,239.835 190.519,248.614 171.691,252.493 C166.445,253.574 161.021,253.797 154.777,254.518 C154.777,242.756 154.678,231.631 154.953,220.514 C154.977,219.541 157.344,218.316 158.83,217.742 C165.56,215.145 170.695,211.104 172.969,203.91 C174.465,199.169 173.047,195.398 168.891,193.382 C158.293,188.241 147.533,187.895 136.84,193.51 C132.578,195.747 132.18,198.992 133.658,203.066 C136.082,209.749 140.773,214.216 147.119,217.108 C148.896,217.916 150.725,218.616 152.603,219.396 L152.603,254.243 C130.793,254.211 109.923,252.238 95.77,233.001 C87.782,222.145 86.386,209.149 88.241,196.23 C90.698,179.141 93.393,161.996 97.554,145.265 C102.712,124.532 114.665,109.252 136.967,104.584 C138.197,104.326 139.447,104.117 140.697,104.034 C141.547,103.977 142.416,104.175 142.732,104.206 C143.865,115.084 144.156,125.774 146.219,136.108 C151.521,162.689 166.969,175.093 193.914,175.355 C199.045,175.405 204.182,174.875 209.648,174.594 M244.988,94.606 C237.525,86.953 228.301,85.897 218.646,90.779 C215.113,92.565 211.477,94.252 208.236,96.49 C200.85,101.593 193.68,107.009 186.672,112.114 C162.434,96.946 138.309,97.049 114.798,111.531 C104.276,104.701 94.23,97.285 83.365,91.373 C71.633,84.99 63.112,87.118 53.721,96.795 C45.231,105.542 39.925,116.104 36.435,127.65 C32.602,140.343 31.354,153.22 35.78,165.941 C40.154,178.508 50.299,180.675 59.186,170.846 C63.226,166.379 66.983,161.064 68.977,155.46 C73.544,142.617 77.253,129.438 80.647,116.225 C81.724,112.04 83.591,110.883 86.895,112.226 C93.145,114.767 99.17,117.863 106.222,121.163 C97.622,133.105 94.854,145.304 92.306,157.733 C88.903,174.312 84.602,190.627 85.394,207.862 C86.317,227.977 96.542,243.405 115.296,250.921 C118.399,252.164 121.605,253.148 124.824,254.273 C121.514,258.584 122.16,260.858 127.291,263.319 C137.074,268.013 147.594,268.901 157.994,267.409 C166.639,266.17 175.076,263.253 183.459,260.617 C184.822,260.187 185.432,257.353 186.391,255.63 C184.691,255.326 182.904,254.522 181.309,254.803 C172.818,256.295 164.424,258.4 155.902,259.636 C146.775,260.961 133.248,258.343 127.916,254.802 C143.107,257.419 158.025,257.745 172.824,254.639 C192.225,250.569 207.365,241.13 213.066,220.72 C216.338,209.008 215.883,197.032 214.047,185.273 C212.076,172.66 209.367,160.111 206.07,147.778 C203.727,139.022 199.869,130.672 196.178,120.768 C201.467,118.197 207.43,115.034 213.611,112.394 C217.467,110.747 219.775,112.021 220.635,116.741 C222.146,125.043 224.061,133.323 226.521,141.393 C229.842,152.286 233.977,162.962 242.164,171.314 C250.922,180.246 259.439,178.717 264.846,167.488 C265.463,166.207 265.939,164.813 266.211,163.419 C271.416,136.702 263.723,113.817 244.988,94.606" id="Fill-35" fill="#FFFFFF"></path>
            <path d="M125.1465,153.7054 C125.1465,156.5534 122.8375,158.8614 119.9905,158.8614 C117.1425,158.8614 114.8335,156.5534 114.8335,153.7054 C114.8335,150.8574 117.1425,148.5494 119.9905,148.5494 C122.8375,148.5494 125.1465,150.8574 125.1465,153.7054" id="Fill-37" fill="#FFFFFF"></path>
            <path d="M185.2715,153.7054 C185.2715,156.5534 182.9625,158.8614 180.1155,158.8614 C177.2675,158.8614 174.9585,156.5534 174.9585,153.7054 C174.9585,150.8574 177.2675,148.5494 180.1155,148.5494 C182.9625,148.5494 185.2715,150.8574 185.2715,153.7054" id="Fill-39" fill="#004F8F"></path>
        </g>
    </g>
</svg>