<?xml version="1.0" encoding="utf-8"?>
<!-- Generator: Adobe Illustrator 16.0.0, SVG Export Plug-In . SVG Version: 6.00 Build 0)  -->
<!DOCTYPE svg PUBLIC "-//W3C//DTD SVG 1.1//EN" "http://www.w3.org/Graphics/SVG/1.1/DTD/svg11.dtd">
<svg version="1.1" id="Layer_1" xmlns="http://www.w3.org/2000/svg" xmlns:xlink="http://www.w3.org/1999/xlink" x="0px" y="0px"
	 width="409px" height="378px" viewBox="0 0 409 378" enable-background="new 0 0 409 378" xml:space="preserve">
<g>
	<defs>
		<rect id="SVGID_1_" x="-49.28" y="-139.89" width="595.28" height="841.89"/>
	</defs>
	<clipPath id="SVGID_2_">
		<use xlink:href="#SVGID_1_"  overflow="visible"/>
	</clipPath>
	<g clip-path="url(#SVGID_2_)">
		<defs>
			<rect id="SVGID_3_" x="32.851" y="-28.747" width="471.429" height="406.696"/>
		</defs>
		<clipPath id="SVGID_4_">
			<use xlink:href="#SVGID_3_"  overflow="visible"/>
		</clipPath>
		<path clip-path="url(#SVGID_4_)" fill="#EDB291" d="M57.269,372.027c0,0-9.121,15.973,3.379,21.473s33-2.862,33-2.862
			s-0.765-19.718-7-27.925C80.414,354.505,57.269,372.027,57.269,372.027"/>
		<path clip-path="url(#SVGID_4_)" fill="#005088" d="M216.526,204.21c0,0,0.149,151.238,5.839,173.956
			c5.69,22.719-123.401,7.453-123.401,7.453S83.148,284.833,163.451,193.37C163.451,193.37,178.56,245.695,216.526,204.21"/>
		<path clip-path="url(#SVGID_4_)" fill="#005088" d="M87.515,354.166c-0.166-4.519-0.007-9.063,0.211-13.576
			c0.236-4.896,0.619-9.784,1.141-14.657c0.158-1.477,0.337-2.948,0.512-4.422c0.292-2.458,0.1-0.183-0.167,1.163
			c0.165-0.832,0.236-1.693,0.359-2.532c0.464-3.154,0.988-6.298,1.577-9.432c1.276-6.779,2.854-13.505,4.785-20.129
			c1.056-3.623,2.22-7.215,3.501-10.765c0.6-1.664,1.226-3.318,1.88-4.962c0.283-0.712,0.521-1.884,1.006-2.472
			c0.097-0.116-1.357,3.029-0.637,1.531c0.257-0.535,0.478-1.093,0.722-1.635c3.075-6.854,6.671-13.482,10.886-19.704
			c1.065-1.573,2.1-3.448,3.436-4.797c-1.474,1.489-1.391,1.729-0.096,0.172c0.68-0.817,1.356-1.639,2.054-2.442
			c2.507-2.889,5.178-5.637,8.012-8.205c1.609-1.459,3.298-2.807,4.97-4.19c-2.187,1.81-1.104,0.854,0.351-0.176
			c0.901-0.638,1.813-1.261,2.738-1.863c3.819-2.491,7.826-4.505,11.914-6.502c0.374-0.183,1.999-0.854,0.044-0.034
			c-2.229,0.932,0.535-0.193,1.013-0.377c1.116-0.426,2.241-0.828,3.373-1.21c2.325-0.782,4.681-1.472,7.06-2.071
			c2.476-0.623,4.975-1.147,7.491-1.58c1.418-0.243,4.157-0.5,1.06-0.207c1.55-0.146,3.093-0.338,4.645-0.471
			c7.797-0.668,15.384-6.42,15-15c-0.339-7.552-6.628-15.719-15-15c-20.162,1.73-39.993,7.574-56.38,19.795
			c-14.482,10.797-26.111,24.664-34.546,40.649c-14.066,26.657-20.401,56.843-22.425,86.726c-0.414,6.099-0.715,12.261-0.49,18.375
			c0.288,7.832,6.693,15.372,15,15C80.395,368.813,87.824,362.565,87.515,354.166"/>
		<path clip-path="url(#SVGID_4_)" fill="#0E3755" d="M176.932,203.85c2.681-3.016,4.583-4.502,8.212-6.047
			c7.225-3.072,13.327,1.145,17.82,7.535c5.51,7.838,18.521,0.351,12.952-7.57c-7.625-10.846-18.861-18.92-32.639-15.131
			c-6.299,1.732-12.595,5.709-16.952,10.605C159.929,200.434,170.5,211.08,176.932,203.85"/>
		<path clip-path="url(#SVGID_4_)" fill="#F2C7B0" d="M187.956,172.642c-4.341,11.14-8.683,22.28-13.024,33.42
			c-2.207,5.662,2.428,12.347,7.857,13.839c6.369,1.75,11.624-2.174,13.839-7.857c4.342-11.141,8.683-22.28,13.024-33.42
			c2.207-5.662-2.428-12.348-7.857-13.838C195.425,163.035,190.17,166.959,187.956,172.642"/>
		<g opacity="0.22" clip-path="url(#SVGID_4_)">
			<g>
				<defs>
					<rect id="SVGID_5_" x="185.019" y="157.115" width="29.796" height="35.611"/>
				</defs>
				<clipPath id="SVGID_6_">
					<use xlink:href="#SVGID_5_"  overflow="visible"/>
				</clipPath>
				<path clip-path="url(#SVGID_6_)" fill="#6B3F2C" d="M185.019,184.345c0,0,5.574,13.974,17.435,5.837
					c11.86-8.137,12.362-33.066,12.362-33.066l-23.488,4.91L185.019,184.345z"/>
			</g>
		</g>
		<path clip-path="url(#SVGID_4_)" fill="#EDB291" d="M372.077,100.003c-1.666,9.727-14.281,18.288-30.526,7.968
			c-7.413-4.71-7.801-20.575-3.456-29.216c10.279-20.446,11.851-6.844,19.296-4.002C365.455,77.832,373.743,90.276,372.077,100.003"
			/>
		<path clip-path="url(#SVGID_4_)" fill="#005088" d="M210.139,226.042c11.34,2.134,23.365,0.601,34.402-2.339
			c26.271-7.001,49.368-23.783,67.792-43.34c16.979-18.023,30.906-38.856,42.713-60.555c3.872-7.114,1.76-16.347-5.381-20.523
			c-6.846-4.004-16.638-1.758-20.522,5.381c-5.429,9.976-11.251,19.731-17.676,29.1c-1.373,2.002-2.771,3.985-4.196,5.949
			c-0.77,1.059-1.557,2.104-2.329,3.16c-0.157,0.214-1.717,2.268-0.445,0.618c-2.804,3.64-5.753,7.175-8.791,10.621
			c-5.239,5.946-10.811,11.604-16.759,16.844c-1.448,1.276-2.918,2.527-4.411,3.75c-1.03,0.845-3.965,3.072-1.31,1.089
			c-2.771,2.069-5.571,4.088-8.472,5.976c-4.832,3.144-9.869,5.979-15.097,8.411c-0.704,0.328-2.202,1.369-2.983,1.334
			c1.192,0.053,3.127-1.241,1.397-0.601c-0.601,0.222-1.19,0.474-1.788,0.702c-2.141,0.818-4.307,1.566-6.499,2.234
			c-3.743,1.143-7.557,2.058-11.418,2.697c-0.776,0.129-3.955,0.575-0.618,0.119c3.283-0.449,0.332-0.051-0.45,0.016
			c-1.44,0.123-2.877,0.244-4.323,0.298c-2.116,0.077-4.212,0.003-6.324-0.107c-4.308-0.225,3.749,0.669,1.463,0.238
			c-7.686-1.446-16.551,2.13-18.452,10.476C197.981,214.971,201.893,224.491,210.139,226.042"/>
		<path clip-path="url(#SVGID_4_)" fill="#EDB291" d="M354.446,78.827c3.465-8.657,6.931-17.314,10.396-25.971
			c1.517-3.788-1.657-8.201-5.238-9.226c-4.259-1.218-7.727,1.495-9.226,5.239c-3.465,8.657-6.931,17.314-10.396,25.97
			c-1.517,3.788,1.657,8.202,5.238,9.226C349.479,85.284,352.947,82.571,354.446,78.827"/>
		<g opacity="0.66" clip-path="url(#SVGID_4_)">
			<g>
				<defs>
					<rect id="SVGID_7_" x="350.854" y="76.647" width="17.667" height="20.024"/>
				</defs>
				<clipPath id="SVGID_8_">
					<use xlink:href="#SVGID_7_"  overflow="visible"/>
				</clipPath>
				<path clip-path="url(#SVGID_8_)" fill="#B5793D" d="M358.006,79.394c-2.116,2.951-4.232,5.901-6.35,8.852
					c-1.721,2.399-0.497,6.367,2.019,7.696c2.905,1.535,5.858,0.542,7.695-2.018c2.117-2.951,4.233-5.901,6.351-8.852
					c1.721-2.399,0.497-6.367-2.019-7.696C362.796,75.841,359.844,76.834,358.006,79.394"/>
			</g>
		</g>
		<g opacity="0.66" clip-path="url(#SVGID_4_)">
			<g>
				<defs>
					<rect id="SVGID_9_" x="342.491" y="69.379" width="18.127" height="20.835"/>
				</defs>
				<clipPath id="SVGID_10_">
					<use xlink:href="#SVGID_9_"  overflow="visible"/>
				</clipPath>
				<path clip-path="url(#SVGID_10_)" fill="#B5793D" d="M350.097,72.16c-2.267,3.198-4.532,6.396-6.8,9.594
					c-1.757,2.48-0.44,6.257,2.019,7.696c2.818,1.649,5.934,0.468,7.695-2.018c2.268-3.198,4.533-6.396,6.801-9.594
					c1.758-2.48,0.441-6.257-2.019-7.696C354.974,68.493,351.859,69.674,350.097,72.16"/>
			</g>
		</g>
		<path clip-path="url(#SVGID_4_)" fill="#EDB291" d="M351.114,71.679c-2.268,3.198-4.533,6.396-6.801,9.594
			c-1.757,2.48-0.44,6.257,2.019,7.696c2.819,1.649,5.934,0.468,7.696-2.018c2.267-3.198,4.532-6.396,6.8-9.594
			c1.758-2.48,0.441-6.257-2.019-7.696C355.991,68.012,352.876,69.193,351.114,71.679"/>
		<path clip-path="url(#SVGID_4_)" fill="#EDB291" d="M358.964,78.957c-2.117,2.951-4.233,5.901-6.351,8.852
			c-1.721,2.399-0.497,6.367,2.019,7.696c2.906,1.535,5.858,0.542,7.696-2.018c2.116-2.951,4.232-5.901,6.35-8.852
			c1.721-2.399,0.497-6.367-2.018-7.696C363.754,75.404,360.801,76.397,358.964,78.957"/>
		<g opacity="0.24" clip-path="url(#SVGID_4_)">
			<g>
				<defs>
					<rect id="SVGID_11_" x="350.595" y="75.948" width="14.462" height="17.339"/>
				</defs>
				<clipPath id="SVGID_12_">
					<use xlink:href="#SVGID_11_"  overflow="visible"/>
				</clipPath>
				<path clip-path="url(#SVGID_12_)" fill="#B5793D" d="M361.45,76.74c-3.396,4.471-6.007,9.636-10.252,13.401
					c-1.809,1.604,0.852,4.248,2.652,2.651c4.482-3.976,7.253-9.439,10.838-14.159C366.147,76.711,362.893,74.841,361.45,76.74"/>
			</g>
		</g>
		<g opacity="0.19" clip-path="url(#SVGID_4_)">
			<g>
				<defs>
					<rect id="SVGID_13_" x="359.192" y="84.119" width="14.462" height="17.339"/>
				</defs>
				<clipPath id="SVGID_14_">
					<use xlink:href="#SVGID_13_"  overflow="visible"/>
				</clipPath>
				<path clip-path="url(#SVGID_14_)" fill="#B5793D" d="M370.049,84.912c-3.396,4.471-6.008,9.636-10.252,13.401
					c-1.81,1.604,0.851,4.248,2.651,2.651c4.482-3.976,7.253-9.439,10.838-14.159C374.745,84.882,371.49,83.013,370.049,84.912"/>
			</g>
		</g>
		<path clip-path="url(#SVGID_4_)" fill="#F2C7B0" d="M260.285,138.478c-10.804,31.346-37.2,45.565-61.998,37.019
			c-24.797-8.546-28.066-33.43-23.285-64.417c5.056-32.767,37.369-49.896,62.166-41.35
			C261.966,78.276,271.088,107.132,260.285,138.478"/>
		<path clip-path="url(#SVGID_4_)" fill="#BF6458" d="M226.097,123.036c-5.985,17.365-8.283,14.893-11.756,13.696
			c-3.473-1.197-6.807-0.666-0.822-18.031c5.984-17.365,13.652-30.472,17.125-29.275
			C234.117,90.623,232.082,105.671,226.097,123.036"/>
		<path clip-path="url(#SVGID_4_)" fill="#E3816F" d="M227.329,122.927c-5.673,16.467-8,14.074-11.475,12.879
			c-3.476-1.195-6.784-0.739-1.111-17.207c5.672-16.467,13.088-28.848,16.564-27.653
			C234.783,92.142,233.002,106.459,227.329,122.927"/>
		<path clip-path="url(#SVGID_4_)" fill="#4E1910" d="M248.973,118.222c-1.202,3.49-4.114,5.652-6.501,4.829
			c-2.389-0.823-3.35-4.32-2.147-7.81c1.202-3.49,4.114-5.652,6.502-4.829C249.215,111.236,250.176,114.732,248.973,118.222"/>
		<path clip-path="url(#SVGID_4_)" fill="#4E1910" d="M212.313,106.077c-1.203,3.49-4.114,5.652-6.502,4.829
			c-2.389-0.823-3.35-4.32-2.147-7.81c1.202-3.49,4.114-5.652,6.502-4.829C212.555,99.091,213.516,102.587,212.313,106.077"/>
		<polygon clip-path="url(#SVGID_4_)" fill="#0E3755" points="361.03,123.752 324.437,96.777 332.561,93 333.163,84.938 
			369.756,111.916 362.522,115.658 		"/>
		<polygon clip-path="url(#SVGID_4_)" fill="#0E3755" points="97.001,367.359 51.824,372.667 55.179,364.361 50.107,358.066 
			95.286,352.759 92.559,360.432 		"/>
		<path clip-path="url(#SVGID_4_)" fill="#4B180F" d="M177.141,114.083c0,0,19.107-7.287,29.966-36.994c0,0,8.084,23.34,58.304,28.5
			c0,0,21.184-18.304,6.126-61.67c0,0-1.634,14.934-7.767,14.938c0,0-58.717-25.189-82.378-1.426
			C157.73,81.195,171.245,108.557,177.141,114.083"/>
		<g opacity="0.52" clip-path="url(#SVGID_4_)">
			<g>
				<defs>
					<rect id="SVGID_15_" x="173.017" y="72.703" width="96.718" height="41.38"/>
				</defs>
				<clipPath id="SVGID_16_">
					<use xlink:href="#SVGID_15_"  overflow="visible"/>
				</clipPath>
				<path clip-path="url(#SVGID_16_)" fill="#060405" d="M173.017,108.292c0,0,7.719-4.857,11.73-11.157
					c0.846-1.329,3.492-6.921,3.131-8.569c0,0-1.391,13.45,15.397-11.683c0,0,1.512-4.699,4.066-4.132
					c2.555,0.568,20.762,25.235,62.394,27.469l-4.322,5.37c0,0-48.013-4.589-58.304-28.501c0,0-7.491,25.316-29.966,36.995
					L173.017,108.292z"/>
			</g>
		</g>
		<path clip-path="url(#SVGID_4_)" fill="#6B2612" d="M182.449,63.159c0,0-0.219-0.162-0.548-0.471
			c-0.322-0.326-0.747-0.845-1.169-1.458c-0.422-0.614-0.85-1.354-1.271-2.117c-0.204-0.392-0.428-0.768-0.621-1.173
			c-0.225-0.377-0.402-0.795-0.629-1.161c-0.192-0.395-0.419-0.749-0.621-1.112c-0.216-0.349-0.424-0.69-0.64-1.005
			c-0.225-0.3-0.427-0.622-0.666-0.867c-0.214-0.291-0.459-0.507-0.69-0.732c-0.219-0.253-0.475-0.395-0.693-0.583
			c-0.221-0.184-0.437-0.314-0.622-0.419c-0.37-0.221-0.607-0.386-0.607-0.386s0.239-0.099,0.702-0.203
			c0.231-0.053,0.523-0.127,0.851-0.094c0.327,0.02,0.738-0.012,1.133,0.123c0.409,0.106,0.864,0.24,1.282,0.487
			c0.452,0.215,0.851,0.524,1.26,0.863c0.221,0.159,0.374,0.364,0.564,0.554c0.18,0.194,0.378,0.39,0.521,0.609
			c0.325,0.422,0.617,0.875,0.863,1.335c1.012,1.861,1.376,3.829,1.512,5.295c0.062,0.744,0.076,1.342,0.077,1.79
			C182.465,62.886,182.449,63.159,182.449,63.159"/>
		<path clip-path="url(#SVGID_4_)" fill="#0E3755" d="M202.512,196.803c-3.001,3.973-7.092,9.028-12.185,10.238
			c-1.538,0.365-3.399-0.295-4.556-1.239c-2.685-2.192-3.147-3.114-4.744-6.06c-0.323-0.596-0.612-1.205-0.911-1.813
			c-0.254-0.515,0.772,1.347-0.08-0.206c-0.044-0.08-0.383-0.922-0.34-1.027c0.657-1.614-0.166,2.967-0.153,2.927
			c-1.148,1.493-2.297,2.987-3.446,4.481c0.014-0.007,0.029-0.014,0.043-0.021c8.63-4.328,1.043-17.271-7.571-12.952
			c-10.262,5.147,2.189,21.629,7.154,25.737c5.141,4.252,11.56,6.23,18.175,4.725c9.361-2.13,16.05-9.918,21.566-17.218
			c2.46-3.257,0.492-8.354-2.691-10.263C208.955,191.824,204.941,193.588,202.512,196.803"/>
		<path clip-path="url(#SVGID_4_)" fill="#141429" d="M195.481,137.584c0,0,8.333,14.863,28.667,15.722
			c0,0-9.763,18.046-19.667,12.527C195.398,160.771,195.481,137.584,195.481,137.584"/>
		<path clip-path="url(#SVGID_4_)" fill="none" stroke="#4E1910" stroke-miterlimit="10" d="M242.815,106.92
			c0,0,6.667-4.611,10.667,3.318"/>
		<path clip-path="url(#SVGID_4_)" fill="none" stroke="#4E1910" stroke-miterlimit="10" d="M204.89,93.969
			c0,0,6.667-4.611,10.667,3.318"/>
		<path clip-path="url(#SVGID_4_)" fill="#F2C7B0" d="M183.779,111.658c0,0-7.321-16.985-12.643-8.072
			c-5.322,8.913-1.498,17.404,4.924,18.159"/>
		<path clip-path="url(#SVGID_4_)" fill="#FFFFFF" d="M195.481,137.584c0,0,8.167,14.78,28.667,15.722l-2.868,4.369
			c0,0-25.12-6.903-25.469-12.045C195.464,140.489,195.481,137.584,195.481,137.584"/>
		<path clip-path="url(#SVGID_4_)" fill="#E58585" d="M211.681,166.224c0,0,3.482-13.39-15.035-16.024
			C196.646,150.199,198.803,171.167,211.681,166.224"/>
	</g>
</g>
</svg>
