<?xml version="1.0" encoding="UTF-8"?>
<svg width="101px" height="118px" viewBox="0 0 101 118" version="1.1" xmlns="http://www.w3.org/2000/svg" xmlns:xlink="http://www.w3.org/1999/xlink">
    <!-- Generator: Sketch 41 (35326) - http://www.bohemiancoding.com/sketch -->
    <title>globo-ayuda</title>
    <desc>Created with Sketch.</desc>
    <defs></defs>
    <g id="Page-1" stroke="none" stroke-width="1" fill="none" fill-rule="evenodd">
        <g id="iPad-Pro-Portrait" transform="translate(-655.000000, -685.000000)">
            <g id="globo-ayuda" transform="translate(655.000000, 685.000000)">
                <path d="M35.8589147,30.4768212 C34.3713178,31.805298 32.0616279,31.4536424 30.7697674,29.9688742 C29.6344961,28.484106 29.7910853,26.1788079 31.4352713,24.889404 C32.9228682,23.7562914 35.2325581,23.9125828 36.5244186,25.5536424 C37.6988372,27.0384106 37.3465116,29.1874172 35.8589147,30.4768212 M36.6810078,15.5119205 L35.8589147,19.9662252 C35.8589147,19.9662252 26.1503876,17.6609272 24.6627907,27.5463576 L20.2,26.7258278 C20.2391473,26.7258278 20.8655039,11.7609272 36.6810078,15.5119205 M75.0453488,11.2529801 C63.3403101,4.84503311 50.1868217,3.3602649 38.1686047,6.48609272 L37.3465116,10.5887417 C37.3465116,10.5887417 32.0616279,9.2602649 26.6593023,10.9013245 C24.0364341,12.3860927 21.570155,14.0271523 19.0647287,15.8245033 C17.2639535,18.1298013 15.9329457,21.0993377 15.2674419,25.3582781 L10.648062,24.381457 C9.16046512,26.3350993 7.82945736,28.3278146 6.5375969,30.6331126 C-6.96821705,54.8192053 1.76162791,85.3741722 25.9937984,98.8543046 C39.8127907,106.590728 55.7848837,106.903311 69.4864341,101.315894 L83.7751938,117.609272 C83.7751938,117.609272 80.6434109,106.942384 77.6682171,97.0569536 C84.2449612,92.7980132 90.1953488,86.702649 94.305814,79.3178808 C108.007364,55.3271523 99.2775194,24.7331126 75.0453488,11.2529801" id="XMLID_2931_" fill="#FFFFFF"></path>
                <path d="M5.01085271,22.5059603 L9.12131783,23.4827815 L13.7406977,24.615894 C14.5627907,20.513245 16.0503876,17.3874172 17.8511628,15.2384106 C20.3174419,13.4410596 22.7837209,11.8 25.6023256,10.4715232 C31.0437984,8.98675497 36.2895349,10.4715232 36.2895349,10.4715232 L37.2682171,6.36887417 L38.2468992,1.95364238 C7.28139535,-6.60331126 5.01085271,22.5059603 5.01085271,22.5059603" id="XMLID_2930_" fill="#EFA43B"></path>
                <path d="M29.7127907,24.4986755 C28.0686047,25.6317881 27.7554264,27.9370861 29.0472868,29.5781457 C30.1825581,31.2192053 32.4922481,31.5317881 33.979845,30.2423841 C35.624031,29.1092715 35.9372093,26.8039735 34.801938,25.3192053 C33.4709302,23.6781457 31.3569767,23.3264901 29.7127907,24.4986755" id="XMLID_2925_" fill="#EFA43B"></path>
                <path d="M34.2930233,19.7317881 L35.2717054,15.2774834 C19.4953488,11.018543 18.5166667,25.7880795 18.5166667,25.7880795 L22.9794574,26.7649007 C24.5844961,17.0748344 34.2930233,19.7317881 34.2930233,19.7317881" id="XMLID_2929_" fill="#EFA43B"></path>
            </g>
        </g>
    </g>
</svg>