<?xml version="1.0" encoding="UTF-8" standalone="no"?>
<svg width="574px" height="330px" viewBox="0 0 574 330" version="1.1" xmlns="http://www.w3.org/2000/svg" xmlns:xlink="http://www.w3.org/1999/xlink">
    <!-- Generator: Sketch 3.8.3 (29802) - http://www.bohemiancoding.com/sketch -->
    <title>Page 1</title>
    <desc>Created with Sketch.</desc>
    <defs>
        <path d="M100.197001,72.2725942 C95.840001,75.7705942 89.502001,75.0855942 86.015001,70.6905942 C82.533001,66.3035942 83.267001,59.9235942 87.646001,56.4505942 C92.029001,52.9735942 98.400001,53.7155942 101.883001,58.1045942 C105.367001,62.4955942 104.580001,68.7955942 100.197001,72.2725942 M102.474001,30.0925942 L100.045001,42.5965942 C100.045001,42.5965942 72.648001,35.8625942 68.328001,63.9325942 L55.843001,61.3915942 C55.843001,61.3915942 57.696001,19.3005942 102.474001,30.0925942 M210.572001,17.8815942 C177.652001,-0.434405814 140.548001,-4.21740581 106.687001,4.41959419 L104.467001,16.2575942 C104.467001,16.2575942 89.551001,12.5715942 74.207001,17.1065942 C66.756001,21.1315942 59.642001,25.8445942 52.962001,31.2065942 C47.965001,37.5305942 44.080001,46.1865942 42.290001,57.9985942 L29.345001,55.3705942 C25.177001,60.8165942 21.347001,66.6275942 17.919001,72.8035942 C-20.145999,141.223594 4.422001,227.402594 72.783001,265.579594 C111.994001,287.239594 157.086001,288.459594 195.642001,272.645594 L235.996001,318.735594 C235.996001,318.735594 227.396001,288.704594 218.685001,260.737594 C237.476001,248.534594 253.797001,231.654594 265.584001,210.469594 C303.619001,142.346594 279.101001,55.8955942 210.572001,17.8815942" id="path-1"></path>
        <polygon id="path-3" points="1.35525272e-20 12.2645058 1.35525272e-20 0.892 565.665 0.892 565.665 331 1.35525272e-20 331 1.35525272e-20 12.2645058 -0.000101001291 331.0001 283.488936 331.0001 283.488936 12.2645058 -2.71050543e-20 12.2645058"></polygon>
        <path d="M56.1658303,103.1657 L51.857,95.548 L51.857,5.164 L51.348,5.164 L47.509,0.17 L58.438,0.17 L64.862,0.17 L61.023,5.164 L60.514,5.164 L60.514,95.548 L56.166,103.166 L9.35758988,103.1657 L5.049,100.014 L5.049,99.955 L13.706,95.724 L13.706,100.014 L9.358,103.166 L56.1658303,103.1657 Z M0.7014,0.17 L11.631,0.17 L18.054,0.17 L14.216,5.164 L13.706,5.164 L13.706,31.388 L14.803,30.839 L15.821,32.896 L14.96,33.308 L14.96,33.288 L4.03,38.615 L3.052,36.577 L5.049,35.619 L5.049,5.164 L4.541,5.164 L0.7014,0.170520208 L0.7014,0.17 L0.7014,0.17 Z M5.049,40.691 L5.049,45.489 L3.052,46.469 L4.03,48.505 L14.96,43.157 L14.96,43.197 L15.821,42.766 L14.803,40.71 L13.706,41.259 L13.706,36.461 L5.049,40.691 L5.049,40.691 Z M5.049,50.561 L5.049,55.378 L3.052,56.34 L4.03,58.376 L14.96,53.049 L14.96,53.068 L15.821,52.658 L14.803,50.6 L13.706,51.148 L13.706,46.331 L5.049,50.561 L5.049,50.561 Z M5.049,60.453 L5.049,65.25 L3.052,66.21 L4.03,68.248 L14.96,62.92 L14.96,62.938 L15.821,62.529 L14.803,60.471 L13.706,61.019 L13.706,56.222 L5.049,60.453 L5.049,60.453 Z M5.049,70.324 L5.049,75.121 L3.052,76.1 L4.03,78.136 L14.96,72.791 L14.96,72.829 L15.821,72.417 L14.803,70.341 L13.706,70.89 L13.706,66.093 L5.049,70.324 L5.049,70.324 Z M5.049,80.194 L5.049,85.011 L3.052,85.97 L4.03,88.007 L14.96,82.68 L14.96,82.701 L15.821,82.288 L14.803,80.233 L13.706,80.781 L13.706,75.963 L5.049,80.194 L5.049,80.194 Z M5.049,90.083 L5.049,94.882 L3.052,95.861 L4.03,97.879 L14.96,92.55 L14.96,92.572 L15.821,92.16 L14.803,90.103 L13.706,90.652 L13.706,85.853 L5.049,90.083 L5.049,90.083 Z" id="path-5"></path>
        <path d="M58.438,0.17 L47.509,0.17 L51.348,5.164 L51.857,5.164 L51.857,95.548 L56.166,103.166 L60.514,95.548 L60.514,5.164 L61.023,5.164 L64.862,0.17 L58.438,0.17 L58.438,0.17 Z M11.631,0.17 L0.701,0.17 L4.541,5.164 L5.049,5.164 L5.049,35.619 L3.052,36.577 L4.03,38.615 L14.96,33.288 L14.96,33.308 L15.821,32.896 L14.803,30.839 L13.706,31.388 L13.706,5.164 L14.216,5.164 L18.054,0.17 L11.631,0.17 L11.631,0.17 Z M5.049,40.691 L5.049,45.489 L3.052,46.469 L4.03,48.505 L14.96,43.157 L14.96,43.197 L15.821,42.766 L14.803,40.71 L13.706,41.259 L13.706,36.461 L5.049,40.691 L5.049,40.691 Z M5.049,50.561 L5.049,55.378 L3.052,56.34 L4.03,58.376 L14.96,53.049 L14.96,53.068 L15.821,52.658 L14.803,50.6 L13.706,51.148 L13.706,46.331 L5.049,50.561 L5.049,50.561 Z M5.049,60.453 L5.049,65.25 L3.052,66.21 L4.03,68.248 L14.96,62.92 L14.96,62.938 L15.821,62.529 L14.803,60.471 L13.706,61.019 L13.706,56.222 L5.049,60.453 L5.049,60.453 Z M5.049,70.324 L5.049,75.121 L3.052,76.1 L4.03,78.136 L14.96,72.791 L14.96,72.829 L15.821,72.417 L14.803,70.341 L13.706,70.89 L13.706,66.093 L5.049,70.324 L5.049,70.324 Z M5.049,80.194 L5.049,85.011 L3.052,85.97 L4.03,88.007 L14.96,82.68 L14.96,82.701 L15.821,82.288 L14.803,80.233 L13.706,80.781 L13.706,75.963 L5.049,80.194 L5.049,80.194 Z M5.049,90.083 L5.049,94.882 L3.052,95.861 L4.03,97.879 L14.96,92.55 L14.96,92.572 L15.821,92.16 L14.803,90.103 L13.706,90.652 L13.706,85.853 L5.049,90.083 L5.049,90.083 Z M5.049,99.955 L5.049,100.014 L9.358,103.166 L13.706,100.014 L13.706,95.724 L5.049,99.955 L5.049,99.955 Z" id="path-7"></path>
    </defs>
    <g id="Page-1" stroke="none" stroke-width="1" fill="none" fill-rule="evenodd">
        <g id="iPad-Pro-Portrait" transform="translate(-202.000000, -483.000000)">
            <g id="Page-1" transform="translate(198.000000, 471.000000)">
                <g id="Group-34" transform="translate(0.000000, 0.108000)">
                    <g id="Page-1" transform="translate(4.000000, 23.000000)">
                        <mask id="mask-2" fill="white">
                            <use xlink:href="#path-1"></use>
                        </mask>
                        <use id="Fill-1" fill="#D8D9DD" xlink:href="#path-1"></use>
                    </g>
                    <path d="M275.8394,315.539 C271.8234,317.687 268.4614,318.527 264.1664,318.527 C252.8664,318.527 245.6764,310.963 245.6764,299.197 C245.6764,285.562 256.3214,273.982 272.8514,273.982 C274.9984,273.982 277.4264,274.264 280.0414,274.73 L279.0144,281.734 C276.8664,281.268 274.9044,281.08 272.9434,281.08 C261.2724,281.08 253.8014,289.859 253.8014,298.73 C253.8014,306.668 258.1904,311.43 265.2864,311.43 C269.4894,311.43 272.8514,310.217 276.7734,307.881 L275.8394,315.539 Z" id="Fill-1" fill="#00519E"></path>
                    <path d="M298.2535,311.7109 C304.8835,311.7109 310.2995,303.3979 310.2995,291.8199 C310.2995,284.8159 307.4045,280.2399 302.8285,280.2399 C296.0125,280.2399 290.8755,289.9509 290.8755,300.5979 C290.8755,307.3219 294.1445,311.7109 298.2535,311.7109 M298.5335,318.5269 C288.6355,318.5269 282.7515,311.5239 282.7515,299.7579 C282.7515,285.0959 291.4365,273.9819 302.8285,273.9819 C312.3545,273.9819 318.4245,281.2679 318.4245,292.2869 C318.4245,307.9749 309.5535,318.5269 298.5335,318.5269" id="Fill-3" fill="#00519E"></path>
                    <path d="M336.8228,282.6679 L337.0098,282.8549 C341.5858,277.2519 346.2548,274.6369 350.9248,274.6369 C359.7958,274.6369 362.0368,283.8829 360.9168,290.7929 L356.9008,317.2209 L349.0558,317.2209 L352.8848,290.5119 C353.9128,283.2289 350.7368,281.1739 348.3088,281.1739 C346.0678,281.1739 341.6798,282.7619 335.7028,290.5119 L331.8738,317.2209 L324.0298,317.2209 L329.9128,275.2909 L337.8498,275.2909 L336.8228,282.6679 Z" id="Fill-5" fill="#00519E"></path>
                    <path d="M395.19,286.6835 C390.428,283.0405 386.039,281.1735 382.584,281.1735 C379.315,281.1735 376.887,283.1345 376.887,285.5625 C376.887,291.5385 393.603,294.4335 393.603,306.0135 C393.603,313.5785 388,318.5275 380.623,318.5275 C375.393,318.5275 372.032,317.2205 366.055,313.0175 L367.456,305.3615 C372.965,309.7495 376.981,311.6175 380.342,311.6175 C383.517,311.6175 385.758,309.6565 385.758,306.9475 C385.758,299.9435 369.323,297.4215 369.323,286.0295 C369.323,278.8395 374.46,273.9825 382.491,273.9825 C386.88,273.9825 391.268,275.6635 395.19,278.3725 L395.19,286.6835 Z" id="Fill-7" fill="#00519E"></path>
                    <path d="M432.8248,317.2207 L424.9808,317.2207 L425.9148,310.3107 L425.7278,310.1227 C422.4598,313.5777 417.6038,317.8727 411.9068,317.8727 C407.2378,317.8727 400.4208,314.5117 402.0088,302.9317 L405.9298,275.2907 L413.8678,275.2907 L409.9458,302.9317 C408.9188,310.4027 412.2808,311.8047 414.4288,311.8047 C417.5108,311.8047 421.3388,309.3747 427.0358,302.5587 L430.8638,275.2907 L438.8018,275.2907 L432.8248,317.2207 Z" id="Fill-9" fill="#00519E"></path>
                    <path d="M456.733,282.5742 L456.92,282.7612 C462.056,276.9702 466.725,274.6372 471.395,274.6372 C474.85,274.6372 479.799,276.4122 480.919,284.0682 C486.99,276.5972 492.5,274.6372 496.608,274.6372 C502.678,274.6372 507.814,279.2132 506.227,290.0452 L502.398,317.2202 L494.461,317.2202 L498.382,289.6722 C499.223,284.1622 497.542,280.8942 494.087,280.8942 C491.286,280.8942 486.71,282.9492 480.919,290.6052 L477.09,317.2202 L469.153,317.2202 L472.889,290.6992 C473.823,284.6292 472.702,280.8942 468.219,280.8942 C465.137,280.8942 460.001,284.7222 455.613,290.6052 L451.878,317.2202 L443.94,317.2202 L449.917,275.2912 L457.854,275.2912 L456.733,282.5742 Z" id="Fill-11" fill="#00519E"></path>
                    <path d="M529.856,311.7109 C536.487,311.7109 541.903,303.3979 541.903,291.8199 C541.903,284.8159 539.008,280.2399 534.432,280.2399 C527.615,280.2399 522.479,289.9509 522.479,300.5979 C522.479,307.3219 525.748,311.7109 529.856,311.7109 M530.136,318.5269 C520.238,318.5269 514.354,311.5239 514.354,299.7579 C514.354,285.0959 523.04,273.9819 534.432,273.9819 C543.958,273.9819 550.027,281.2679 550.027,292.2869 C550.027,307.9749 541.156,318.5269 530.136,318.5269" id="Fill-13" fill="#00519E"></path>
                    <path d="M408.9224,109.0063 L399.1004,109.0063 C343.5064,109.0063 327.2014,147.1163 327.2014,172.6533 C327.2014,197.0123 340.9524,212.7283 362.3654,212.7283 C373.7584,212.7283 390.4554,205.8523 402.4394,196.2263 L399.4924,217.8353 C386.1344,225.4953 371.9904,229.6213 359.8114,229.6213 C329.3634,229.6213 308.1474,206.6383 308.1474,173.8323 C308.1474,127.0793 342.7214,92.1123 399.6894,92.1123 L412.4574,92.1123 L408.9224,109.0063 Z" id="Fill-15" fill="#F5B019"></path>
                    <path d="M444.8717,111.9531 C444.8717,117.2571 440.5497,121.5791 435.2457,121.5791 C429.9417,121.5791 425.6197,117.2571 425.6197,111.9531 C425.6197,106.6491 429.9417,102.3271 435.2457,102.3271 C440.5497,102.3271 444.8717,106.6491 444.8717,111.9531 L444.8717,111.9531 Z M428.1747,227.8531 L411.4757,227.8531 L423.8517,139.6511 L440.5497,139.6511 L428.1747,227.8531 Z" id="Fill-17" fill="#F5B019"></path>
                    <path d="M498.106,152.6162 L480.426,152.6162 L471.979,200.9412 C470.015,212.1382 472.569,215.6742 480.623,215.6742 C485.534,215.6742 489.462,214.4952 496.731,210.3702 L495.749,226.6752 C488.676,229.6212 483.962,230.6032 477.479,230.6032 C460.193,230.6032 452.139,219.6032 454.497,206.0482 L463.729,152.6162 L448.21,152.6162 L450.174,139.6512 L466.283,139.6512 L469.622,121.5782 L486.124,121.5782 L482.98,139.6512 L499.874,139.6512 L498.106,152.6162 Z" id="Fill-19" fill="#00519E"></path>
                    <polygon id="Fill-21" fill="#00519E" points="514.4107 273.0351 496.7307 273.0351 520.6957 222.5501 503.6057 139.6511 520.3037 139.6511 532.0907 200.3511 532.4827 200.3511 560.1807 139.6511 577.6647 139.6511"></polygon>
                    <g id="Group-25">
                        <mask id="mask-4" fill="white">
                            <use xlink:href="#path-3"></use>
                        </mask>
                        <g id="Clip-24"></g>
                        <path d="M100.1969,84.5371 C95.8399,88.0351 89.5019,87.3501 86.0149,82.9551 C82.5329,78.5681 83.2669,72.1881 87.6459,68.7151 C92.0289,65.2381 98.3999,65.9801 101.8829,70.3691 C105.3669,74.7601 104.5799,81.0601 100.1969,84.5371 M102.4739,42.3571 L100.0449,54.8611 C100.0449,54.8611 72.6479,48.1271 68.3279,76.1971 L55.8429,73.6561 C55.8429,73.6561 57.6959,31.5651 102.4739,42.3571 M210.5719,30.1461 C177.6519,11.8301 140.5479,8.0471 106.6869,16.6841 L104.4669,28.5221 C104.4669,28.5221 89.5509,24.8361 74.2069,29.3711 C66.7559,33.3961 59.6419,38.1091 52.9619,43.4711 C47.9649,49.7951 44.0799,58.4511 42.2899,70.2631 L29.3449,67.6351 C25.1769,73.0811 21.3469,78.8921 17.9189,85.0681 C-20.1461,153.4881 4.4219,239.6671 72.7829,277.8441 C111.9939,299.5041 157.0859,300.7241 195.6419,284.9101 L235.9959,331.0001 C235.9959,331.0001 227.3959,300.9691 218.6849,273.0021 C237.4759,260.7991 253.7969,243.9191 265.5839,222.7341 C303.6189,154.6111 279.1009,68.1601 210.5719,30.1461" id="Fill-23" fill="#D8D9DD" mask="url(#mask-4)"></path>
                    </g>
                    <path d="M21.6285,74.6308 L33.0595,77.3368 L45.9125,80.3788 C48.0785,68.6318 52.2405,60.1038 57.4375,53.9438 C64.2855,48.7988 71.5465,44.3148 79.1225,40.5308 C94.6075,36.4918 109.3965,40.6538 109.3965,40.6538 L111.9935,28.8948 L114.7805,16.2658 C27.8235,-7.6992 21.6285,74.6308 21.6285,74.6308" id="Fill-26" fill="#F5B019"></path>
                    <path d="M104.1305,66.8378 L106.9605,54.4178 C62.5505,42.1958 59.3495,84.2058 59.3495,84.2058 L71.7475,87.1448 C76.9645,59.2288 104.1305,66.8378 104.1305,66.8378" id="Fill-28" fill="#F5B019"></path>
                    <path d="M91.2945,80.2871 C86.8065,83.6171 85.8685,89.9711 89.2065,94.4691 C92.5525,98.9711 98.8645,99.8601 103.3315,96.5041 C107.8215,93.1681 108.8125,86.8971 105.4705,82.3961 C102.1305,77.8961 95.7865,76.9531 91.2945,80.2871" id="Fill-30" fill="#F5B019"></path>
                    <path d="M194.0377,119.1591 L188.8447,117.8451 L192.8207,102.3641 L198.0117,103.6781 L194.0377,119.1591 Z M181.9227,123.2621 L176.7287,121.9471 L180.7677,106.4671 L185.8957,107.7801 L181.9227,123.2621 Z M169.8077,127.3641 L164.6797,126.0501 L168.6537,110.5701 L173.7807,111.8831 L169.8077,127.3641 Z M224.4237,65.7611 C219.6787,57.9411 211.6657,51.1451 197.6907,46.1781 C194.4237,47.3641 192.3087,48.4541 192.3087,48.4541 L207.7577,90.5051 L144.1667,112.9411 C144.1667,112.9411 155.5107,127.7171 164.6797,133.7101 L199.5527,131.2751 C199.5527,131.2751 210.6407,123.8061 224.4237,104.1601 C235.1277,88.9341 230.4477,75.6981 224.4237,65.7611 L224.4237,65.7611 Z M154.8067,89.4151 C153.5877,80.3761 155.5107,70.0571 163.2677,57.4291 C166.5377,56.2731 168.9077,55.7611 168.9077,55.7611 L182.1157,94.5111 L158.5877,102.8461 C156.4747,98.4871 155.4497,93.8061 154.8067,89.4151 L154.8067,89.4151 Z M182.1157,275.3141 C176.7947,275.3141 172.4337,270.9881 172.4337,265.6661 C172.4337,260.3461 176.7947,256.0191 182.1157,256.0191 C187.4347,256.0191 191.7307,260.3461 191.7307,265.6661 C191.7307,270.9881 187.4347,275.3141 182.1157,275.3141 L182.1157,275.3141 Z M164.6797,137.9741 L164.6797,267.7811 C164.6797,279.0621 172.4987,284.1621 182.1157,284.1621 C191.7307,284.1621 199.5527,279.0621 199.5527,267.7811 L199.5527,136.0181 L164.6797,137.9741 Z" id="Fill-32" fill="#00519E"></path>
                </g>
                <path d="M87.0494,235.4317 L87.0494,240.2287 L85.0524,241.2077 L86.0304,243.2437 L96.9594,237.8987 L96.9594,237.9377 L97.8204,237.5257 L96.8024,235.4497 L95.7064,235.9977 L95.7064,231.2017 L87.0494,235.4317 Z M87.0494,245.3017 L87.0494,250.1197 L85.0524,251.0777 L86.0304,253.1157 L96.9594,247.7877 L96.9594,247.8087 L97.8204,247.3967 L96.8024,245.3407 L95.7064,245.8887 L95.7064,241.0717 L87.0494,245.3017 Z M96.9594,257.6587 L96.9594,257.6797 L97.8204,257.2677 L96.8024,255.2107 L95.7064,255.7597 L95.7064,250.9607 L87.0494,255.1917 L87.0494,259.9907 L85.0524,260.9697 L86.0304,262.9867 L96.9594,257.6587 Z M87.0494,265.0627 L87.0494,265.1217 L91.3584,268.2737 L95.7064,265.1217 L95.7064,260.8317 L87.0494,265.0627 Z M87.0494,225.5607 L87.0494,230.3577 L85.0524,231.3187 L86.0304,233.3557 L96.9594,228.0277 L96.9594,228.0467 L97.8204,227.6367 L96.8024,225.5787 L95.7064,226.1267 L95.7064,221.3297 L87.0494,225.5607 Z M87.0494,170.2717 L87.0494,200.7267 L85.0524,201.6857 L86.0304,203.7227 L96.9594,198.3957 L96.9594,198.4157 L97.8204,198.0037 L96.8024,195.9477 L95.7064,196.4957 L95.7064,170.2717 L96.2154,170.2717 L100.0544,165.2777 L93.6304,165.2777 L82.7014,165.2777 L86.5404,170.2717 L87.0494,170.2717 Z M87.0494,205.7987 L87.0494,210.5977 L85.0524,211.5767 L86.0304,213.6137 L96.9594,208.2657 L96.9594,208.3047 L97.8204,207.8737 L96.8024,205.8187 L95.7064,206.3677 L95.7064,201.5687 L87.0494,205.7987 Z M87.0494,215.6687 L87.0494,220.4867 L85.0524,221.4477 L86.0304,223.4847 L96.9594,218.1577 L96.9594,218.1757 L97.8204,217.7657 L96.8024,215.7077 L95.7064,216.2557 L95.7064,211.4387 L87.0494,215.6687 Z M129.5094,165.2777 L140.4384,165.2777 L146.8624,165.2777 L143.0234,170.2717 L142.5144,170.2717 L142.5144,260.6567 L138.1654,268.2737 L133.8574,260.6567 L133.8574,170.2717 L133.3484,170.2717 L129.5094,165.2777 Z" id="Fill-42" fill="#00519E"></path>
                <g id="Group-50" transform="translate(82.000000, 165.108000)">
                    <g id="Group-46">
                        <mask id="mask-6" fill="white">
                            <use xlink:href="#path-5"></use>
                        </mask>
                        <g id="Clip-45"></g>
                        <path d="M5.0494,70.3237 L5.0494,75.1207 L3.0524,76.0997 L4.0304,78.1357 L14.9594,72.7907 L14.9594,72.8297 L15.8204,72.4177 L14.8024,70.3417 L13.7064,70.8897 L13.7064,66.0937 L5.0494,70.3237 Z M5.0494,80.1937 L5.0494,85.0117 L3.0524,85.9697 L4.0304,88.0077 L14.9594,82.6797 L14.9594,82.7007 L15.8204,82.2887 L14.8024,80.2327 L13.7064,80.7807 L13.7064,75.9637 L5.0494,80.1937 Z M14.9594,92.5507 L14.9594,92.5717 L15.8204,92.1597 L14.8024,90.1027 L13.7064,90.6517 L13.7064,85.8527 L5.0494,90.0837 L5.0494,94.8827 L3.0524,95.8617 L4.0304,97.8787 L14.9594,92.5507 Z M5.0494,99.9547 L5.0494,100.0137 L9.3584,103.1657 L13.7064,100.0137 L13.7064,95.7237 L5.0494,99.9547 Z M5.0494,60.4527 L5.0494,65.2497 L3.0524,66.2107 L4.0304,68.2477 L14.9594,62.9197 L14.9594,62.9387 L15.8204,62.5287 L14.8024,60.4707 L13.7064,61.0187 L13.7064,56.2217 L5.0494,60.4527 Z M5.0494,5.1637 L5.0494,35.6187 L3.0524,36.5777 L4.0304,38.6147 L14.9594,33.2877 L14.9594,33.3077 L15.8204,32.8957 L14.8024,30.8397 L13.7064,31.3877 L13.7064,5.1637 L14.2154,5.1637 L18.0544,0.1697 L11.6304,0.1697 L0.7014,0.1697 L4.5404,5.1637 L5.0494,5.1637 Z M5.0494,40.6907 L5.0494,45.4897 L3.0524,46.4687 L4.0304,48.5057 L14.9594,43.1577 L14.9594,43.1967 L15.8204,42.7657 L14.8024,40.7107 L13.7064,41.2597 L13.7064,36.4607 L5.0494,40.6907 Z M5.0494,50.5607 L5.0494,55.3787 L3.0524,56.3397 L4.0304,58.3767 L14.9594,53.0497 L14.9594,53.0677 L15.8204,52.6577 L14.8024,50.5997 L13.7064,51.1477 L13.7064,46.3307 L5.0494,50.5607 Z M47.5094,0.1697 L58.4384,0.1697 L64.8624,0.1697 L61.0234,5.1637 L60.5144,5.1637 L60.5144,95.5487 L56.1654,103.1657 L51.8574,95.5487 L51.8574,5.1637 L51.3484,5.1637 L47.5094,0.1697 Z" id="Fill-44" fill="#00519E" mask="url(#mask-6)"></path>
                    </g>
                    <g id="Group-49">
                        <mask id="mask-8" fill="white">
                            <use xlink:href="#path-7"></use>
                        </mask>
                        <g id="Clip-48"></g>
                        <path d="M63.0211,7.1611 L62.5111,7.1611 L62.5111,97.5471 L58.1641,105.1641 L53.8551,97.5471 L53.8551,7.1611 L53.3451,7.1611 L49.5071,2.1681 L60.4351,2.1681 L66.8591,2.1681 L63.0211,7.1611 Z M16.8391,32.8371 L17.8191,34.9131 L16.9971,35.3241 L16.9581,35.2851 L6.0681,40.6321 L5.0491,38.5951 L7.0471,37.6171 L7.0471,7.1611 L6.5381,7.1611 L2.6991,2.1681 L13.6271,2.1681 L20.0511,2.1681 L16.2121,7.1611 L15.7041,7.1611 L15.7041,33.3861 L16.8391,32.8371 Z M16.9581,45.1951 L16.9581,45.1761 L6.0681,50.5031 L5.0491,48.4661 L7.0471,47.5051 L7.0471,42.6881 L15.7041,38.4571 L15.7041,43.2761 L16.8391,42.7271 L17.8191,44.7851 L16.9581,45.1951 Z M16.9971,55.0661 L16.9581,55.0461 L6.0681,60.3741 L5.0491,58.3371 L7.0471,57.3761 L7.0471,52.5791 L15.7041,48.3491 L15.7041,53.1461 L16.8391,52.5981 L17.8191,54.6561 L16.9971,55.0661 Z M16.9971,64.9561 L16.9581,64.9371 L6.0681,70.2631 L5.0491,68.2261 L7.0471,67.2471 L7.0471,62.4501 L15.7041,58.2201 L15.7041,63.0371 L16.8391,62.4901 L17.8191,64.5441 L16.9971,64.9561 Z M16.9971,74.8271 L16.9581,74.8071 L6.0681,80.1341 L5.0491,78.0971 L7.0471,77.1381 L7.0471,72.3211 L15.7041,68.0901 L15.7041,72.9081 L16.8391,72.3601 L17.8191,74.4151 L16.9971,74.8271 Z M16.9971,84.6991 L16.9581,84.6771 L6.0681,90.0051 L5.0491,87.9891 L7.0471,87.0091 L7.0471,82.2101 L15.7041,77.9801 L15.7041,82.7791 L16.8391,82.2301 L17.8191,84.2861 L16.9971,84.6991 Z M16.9581,94.5871 L16.9581,94.5701 L6.0681,99.8961 L5.0491,97.8591 L7.0471,96.8811 L7.0471,92.0811 L15.7041,87.8511 L15.7041,92.6681 L16.8391,92.1201 L17.8191,94.1771 L16.9581,94.5871 Z M15.7041,102.0311 L11.3561,105.1641 L7.0471,102.0311 L7.0471,101.9511 L15.7041,97.7221 L15.7041,102.0311 Z M-19.5099,119.4021 L87.4631,119.4021 L87.4631,-19.1609 L-19.5099,-19.1609 L-19.5099,119.4021 Z" id="Fill-47" fill="#00519E" mask="url(#mask-8)"></path>
                    </g>
                </g>
            </g>
        </g>
    </g>
</svg>