<?xml version="1.0" encoding="UTF-8" standalone="no"?>
<svg width="959px" height="330px" viewBox="0 0 959 330" version="1.1" xmlns="http://www.w3.org/2000/svg" xmlns:xlink="http://www.w3.org/1999/xlink">
    <!-- Generator: Sketch 39 (31667) - http://www.bohemiancoding.com/sketch -->
    <title>Group 6</title>
    <desc>Created with Sketch.</desc>
    <defs></defs>
    <g id="Page-1" stroke="none" stroke-width="1" fill="none" fill-rule="evenodd">
        <g id="servicios" transform="translate(-2.000000, -1180.000000)">
            <g id="Group-6" transform="translate(1.000000, 1180.000000)">
                <path d="M329,154.194665 C329,154.194665 425.32854,152.671308 431.356797,194.447973 C437.385055,236.224637 320.427818,215.831657 412.061852,91" id="Shape" stroke="#F6B11F" stroke-width="4" stroke-dasharray="10,10"></path>
                <path d="M147.319848,77.2893324 C139.178686,67.3793109 169.143647,118.360269 224.939691,102.283714" id="Shape" stroke="#F6B11F" stroke-width="4" stroke-dasharray="10,10"></path>
                <g id="XMLID_90_" fill="#04529D">
                    <ellipse id="XMLID_91_" cx="72.8349137" cy="70.8397942" rx="71.3655259" ry="70.6532912"></ellipse>
                </g>
                <g id="XMLID_88_" transform="translate(186.000000, 83.000000)" fill="#04529D">
                    <ellipse id="XMLID_89_" cx="72.16427" cy="71.2754651" rx="71.3655259" ry="70.6532912"></ellipse>
                </g>
                <g id="XMLID_86_" transform="translate(412.000000, 13.000000)" fill="#04529D">
                    <ellipse id="XMLID_87_" cx="71.5041758" cy="70.7457967" rx="71.3655259" ry="70.6532912"></ellipse>
                </g>
                <g id="XMLID_84_" transform="translate(620.000000, 91.000000)" fill="#04529D">
                    <ellipse id="XMLID_85_" cx="72.8002512" cy="71.2754651" rx="71.3655259" ry="70.6532912"></ellipse>
                </g>
                <g id="XMLID_82_" transform="translate(817.000000, 33.000000)" fill="#04529D">
                    <ellipse id="XMLID_83_" cx="71.6413187" cy="70.7457967" rx="71.3655259" ry="70.6532912"></ellipse>
                </g>
                <path d="M554,70.8214254 C554,70.8214254 579.532684,106.594186 620.535385,91.1472646 C620.535385,91.1472646 691.902418,20.4954654 699.45281,92.0081622" id="Shape" stroke="#F6B11F" stroke-width="4" stroke-dasharray="10,10"></path>
                <path d="M724,225.446142 C724,225.446142 779.202261,288.530397 795.602135,225.446142 C795.602135,225.446142 790.199309,95 816.960251,95" id="Shape" stroke="#F6B11F" stroke-width="4" stroke-dasharray="10,10"></path>
                <g id="XMLID_78_" transform="translate(68.000000, 37.000000)" fill="#F6B11F">
                    <path d="M31.6589011,6.16802606 L17.3689168,20.318379 C17.2604082,20.4243127 17.044898,20.5317384 16.9363893,20.5317384 C16.8278807,20.5317384 16.6153846,20.4258047 16.506876,20.318379 L9.73714286,13.5102748 C9.62863422,13.4043411 9.52012559,13.1909817 9.52012559,13.082064 C9.52012559,12.9761303 9.62863422,12.767247 9.73714286,12.6598213 L11.9947253,10.4262618 C12.2072214,10.2114103 12.6382418,10.2114103 12.8507378,10.4262618 L16.9363893,14.469646 L28.542292,2.97807934 C28.7578022,2.76471995 29.1858085,2.76471995 29.4013187,2.97807934 L31.657394,5.21163885 C31.7659027,5.31757254 31.8744113,5.53093193 31.8744113,5.63686561 C31.7674097,5.850225 31.7674097,6.06209237 31.6589011,6.16802606 L31.6589011,6.16802606 Z M4.3644584,3.50923979 L4.3644584,23.083099 L24.1356358,23.083099 L24.1356358,23.083099 L24.1356358,17.1269403 L27.2522449,13.9355015 L27.2522449,25.6389356 C27.2522449,25.9552446 26.9282261,26.2775218 26.6087284,26.2775218 L1.89287284,26.2775218 C1.568854,26.2775218 1.24784929,25.9552446 1.24784929,25.6389356 L1.24784929,1.1697466 C1.24784929,0.848961496 1.568854,0.531160444 1.89287284,0.531160444 L26.6087284,0.531160444 C26.9282261,0.531160444 27.2522449,0.848961496 27.2522449,1.1697466 L24.5636421,3.61815752 L4.36295133,3.61815752 L4.36295133,3.50923979 L4.3644584,3.50923979 Z" id="XMLID_79_"></path>
                </g>
                <g id="XMLID_75_" transform="translate(448.000000, 49.000000)" fill="#FFFFFF">
                    <path d="M31.0319623,9.68174192 C27.9379592,9.68174192 25.499529,12.0958363 25.499529,15.158961 C25.499529,18.2235777 27.9394662,20.6376721 31.0319623,20.6376721 C34.1289796,20.6376721 36.5659027,18.2235777 36.5659027,15.158961 C36.5659027,12.0958363 34.1289796,9.68174192 31.0319623,9.68174192 L31.0319623,9.68174192 Z" id="XMLID_77_"></path>
                    <path d="M60.948697,18.0385668 C60.5719309,17.7580663 60.198179,17.7580663 59.7264678,17.8520638 L43.410989,23.8872998 C43.879686,22.959261 44.346876,22.1237277 44.7236421,21.2881944 C45.5660911,19.3381194 46.0362951,17.295539 46.0362951,15.160453 C46.0362951,6.89911768 39.2846468,0.213359392 30.9355102,0.213359392 C22.5908948,0.213359392 15.8392465,6.89762566 15.8392465,15.160453 C15.8392465,15.9034808 15.9341915,16.7405061 16.0276295,17.4835339 L1.30361068,22.5892391 C0.831899529,22.7757421 0.458147567,23.2397615 0.458147567,23.7962863 L0.458147567,55.734546 C0.458147567,56.10606 0.646530612,56.5715714 1.02028257,56.7565823 C1.39403454,57.0355907 1.77080063,57.0355907 2.14455259,56.9415932 L19.5873155,50.9063573 L40.4059027,59.2646742 C40.5942857,59.3571796 40.6892308,59.3571796 40.8745997,59.3571796 C41.0629827,59.3571796 41.1579278,59.3571796 41.3463108,59.2646742 L60.4754788,52.208894 C60.94719,52.0238831 61.3209419,51.5583717 61.3209419,51.0003548 L61.3209419,19.062095 C61.510832,18.6875971 61.229011,18.2235777 60.948697,18.0385668 L60.948697,18.0385668 Z M36.5659027,49.4188096 C36.5659027,49.4188096 35.7204396,51.0898762 31.0319623,51.0898762 C26.2500471,51.0898762 25.499529,49.4188096 25.499529,49.4188096 L25.499529,49.0472957 C25.499529,49.0472957 25.499529,49.0472957 25.499529,48.7682873 C25.5944741,45.4261542 26.0646782,44.4981154 29.4405024,43.8475931 C29.4405024,43.8475931 29.9091994,44.4981154 31.0334694,44.4981154 C32.1577394,44.4981154 32.6294505,43.8475931 32.6294505,43.8475931 C36.1002198,44.4981154 36.4739717,45.4261542 36.5674097,48.8607928 L36.5674097,49.1398012 C36.5659027,49.2337987 36.5659027,49.3277962 36.5659027,49.4188096 L36.5659027,49.4188096 Z M28.0329042,40.133946 C28.0329042,38.183871 28.5016013,36.606802 30.9385243,36.606802 C33.4734066,36.606802 33.8471586,38.1853631 33.8471586,40.133946 C33.8471586,42.0855131 32.5345055,43.6610901 30.9385243,43.6610901 C29.3455573,43.6625821 28.0329042,42.0855131 28.0329042,40.133946 L28.0329042,40.133946 Z M40.7856829,19.4306249 C38.1603768,25.1853604 33.0001884,31.3145938 31.4991523,32.9841684 C31.4072214,33.0781659 31.2188383,33.1706713 31.0304553,33.1706713 C30.8420722,33.1706713 30.6567033,33.0766738 30.5617582,32.9841684 C29.0607221,31.2205963 23.9050549,25.1853604 21.2782418,19.4306249 C20.6211617,18.1310722 20.3393407,16.6450166 20.3393407,15.158961 C20.3393407,9.31022801 25.122763,4.57454472 31.0289482,4.57454472 C36.9366405,4.57454472 41.7200628,9.31022801 41.7200628,15.158961 C41.7230769,16.6450166 41.349325,18.1310722 40.7856829,19.4306249 L40.7856829,19.4306249 Z" id="XMLID_76_"></path>
                </g>
                <g id="XMLID_73_" transform="translate(496.000000, 62.000000)" fill="#F6B11F">
                    <path d="M27.8204082,4.98037518 L15.3494505,17.3298555 C15.2545055,17.422361 15.0661224,17.5148664 14.9726845,17.5148664 C14.8792465,17.5148664 14.6923705,17.420869 14.5989325,17.3298555 L8.69124019,11.3886171 C8.59629513,11.2946196 8.50285714,11.1081166 8.50285714,11.0156111 C8.50285714,10.9231057 8.5978022,10.7380947 8.69124019,10.6455892 L10.6609733,8.69551424 C10.8463422,8.50901127 11.2231083,8.50901127 11.4084772,8.69551424 L14.9726845,12.2226583 L25.1016641,2.19476689 C25.2900471,2.00975595 25.6637991,2.00975595 25.8521821,2.19476689 L27.8219152,4.14484189 C27.9168603,4.23883939 28.0102983,4.42385033 28.0102983,4.5163558 C27.9138462,4.70285876 27.9138462,4.88786971 27.8204082,4.98037518 L27.8204082,4.98037518 Z M4.00125589,2.66027829 L4.00125589,19.7424579 L21.2556358,19.7424579 L21.2556358,19.7424579 L21.2556358,14.5442472 L23.975887,11.7586389 L23.975887,21.9730333 C23.975887,22.2505497 23.6925589,22.5295582 23.413752,22.5295582 L1.84313972,22.5295582 C1.55981162,22.5295582 1.28100471,22.2490577 1.28100471,21.9730333 L1.28100471,0.61769782 C1.28100471,0.337197361 1.56131868,0.0611729725 1.84313972,0.0611729725 L23.413752,0.0611729725 C23.6940659,0.0611729725 23.975887,0.338689384 23.975887,0.61769782 L21.6293878,2.75427579 L4.00125589,2.75427579 L4.00125589,2.66027829 L4.00125589,2.66027829 Z" id="XMLID_74_"></path>
                </g>
                <path d="M58.4582732,56.6073775 L64.1353846,56.6073775 L64.1353846,62.9171458 L67.8789325,62.9171458 L67.8789325,41.6543158 C67.8774254,40.1891485 66.6762951,39.0000056 65.1948509,39.0000056 L38.6901099,39.0000056 C37.2056515,38.9970216 36.0030141,40.1861645 36,41.6543158 L36,41.6543158 L36,95.6178297 C36.0030141,97.084489 37.2086656,98.2721399 38.6901099,98.2721399 L48.2253061,98.2721399 L48.2253061,80.9974893 L55.6129356,80.9974893 L55.6129356,66.5382874 C55.6943171,64.9089975 56.8547567,63.5288756 58.4567661,63.1528856 L58.4582732,56.6073775 L58.4582732,56.6073775 L58.4582732,56.6073775 L58.4582732,56.6073775 Z M58.4582732,44.3131021 L64.1353846,44.3131021 L64.1353846,52.2879689 L58.4582732,52.2879689 L58.4582732,44.3131021 L58.4582732,44.3131021 L58.4582732,44.3131021 Z M45.5186185,89.1484148 L39.8445212,89.1484148 L39.8445212,81.1735481 L45.5201256,81.1735481 L45.5186185,89.1484148 L45.5186185,89.1484148 L45.5186185,89.1484148 Z M45.5186185,77.4763133 L39.8445212,77.4763133 L39.8445212,69.4954784 L45.5201256,69.4954784 L45.5201256,77.4718372 L45.5186185,77.4763133 L45.5186185,77.4763133 Z M45.5186185,64.5807523 L39.8445212,64.5807523 L39.8445212,56.6073775 L45.5201256,56.6073775 L45.5186185,64.5807523 L45.5186185,64.5807523 L45.5186185,64.5807523 Z M45.5186185,52.2879689 L39.8445212,52.2879689 L39.8445212,44.3131021 L45.5201256,44.3131021 L45.5186185,52.2879689 L45.5186185,52.2879689 L45.5186185,52.2879689 Z M54.9814757,77.4748213 L49.3103925,77.4748213 L49.3103925,69.4954784 L54.9844898,69.4954784 L54.9844898,77.4718372 L54.9814757,77.4748213 L54.9814757,77.4748213 Z M54.9814757,64.5807523 L49.3103925,64.5807523 L49.3103925,56.6073775 L54.9844898,56.6073775 L54.9844898,64.5807523 L54.9814757,64.5807523 L54.9814757,64.5807523 Z M54.9814757,52.2879689 L49.3103925,52.2879689 L49.3103925,44.3131021 L54.9844898,44.3131021 L54.9844898,52.2879689 L54.9814757,52.2879689 L54.9814757,52.2879689 Z M82.969168,65.0477557 L60.5199372,65.0477557 C59.2645526,65.0477557 58.2457771,65.7161823 58.2457771,66.5367954 L58.2457771,96.7845922 C58.2457771,97.6096814 59.2645526,98.2736319 60.5199372,98.2736319 L68.5978022,98.2736319 L68.5978022,88.590398 L75.0827002,88.590398 L75.0827002,98.2706479 L82.969168,98.2706479 C84.2245526,98.2706479 85.2433281,97.5992372 85.2433281,96.7786241 L85.2433281,66.5353034 C85.2463422,65.7146903 84.2260597,65.0477557 82.969168,65.0477557 L82.969168,65.0477557 Z M66.3055573,93.1589746 L61.499529,93.1589746 L61.499529,88.6903636 L66.3040502,88.6903636 L66.3055573,93.1589746 L66.3055573,93.1589746 L66.3055573,93.1589746 Z M66.3055573,86.6164506 L61.499529,86.6164506 L61.499529,82.1478396 L66.3040502,82.1478396 L66.3055573,86.6164506 L66.3055573,86.6164506 L66.3055573,86.6164506 Z M66.3055573,79.3890877 L61.499529,79.3890877 L61.499529,74.9204767 L66.3040502,74.9204767 L66.3055573,79.3890877 L66.3055573,79.3890877 L66.3055573,79.3890877 Z M66.3055573,72.4974301 L61.499529,72.4974301 L61.499529,68.0288191 L66.3040502,68.0288191 L66.3055573,72.4974301 L66.3055573,72.4974301 L66.3055573,72.4974301 Z M74.3216327,86.6164506 L69.5171115,86.6164506 L69.5171115,82.1478396 L74.3216327,82.1478396 L74.3216327,86.6164506 L74.3216327,86.6164506 L74.3216327,86.6164506 Z M74.3216327,79.3890877 L69.5171115,79.3890877 L69.5171115,74.9204767 L74.3216327,74.9204767 L74.3216327,79.3890877 L74.3216327,79.3890877 L74.3216327,79.3890877 Z M74.3216327,72.4974301 L69.5171115,72.4974301 L69.5171115,68.0288191 L74.3216327,68.0288191 L74.3216327,72.4974301 L74.3216327,72.4974301 L74.3216327,72.4974301 Z M82.0679435,93.2589402 L77.2664364,93.2589402 L77.2664364,88.7903292 L82.0709576,88.7903292 L82.0709576,93.2589402 L82.0679435,93.2589402 L82.0679435,93.2589402 Z M82.0679435,86.6164506 L77.2664364,86.6164506 L77.2664364,82.1478396 L82.0709576,82.1478396 L82.0709576,86.6164506 L82.0679435,86.6164506 L82.0679435,86.6164506 Z M82.0679435,79.3890877 L77.2664364,79.3890877 L77.2664364,74.9204767 L82.0709576,74.9204767 L82.0709576,79.3890877 L82.0679435,79.3890877 L82.0679435,79.3890877 Z M82.0679435,72.4989222 L77.2664364,72.4989222 L77.2664364,68.0288191 L82.0709576,68.0288191 L82.0709576,72.4974301 L82.0679435,72.4989222 L82.0679435,72.4989222 Z" id="Forma_1_8_" fill="#FFFFFF"></path>
                <path d="M719.352424,126 L665.685862,126 C664.184826,126.016412 662.980681,127.232412 663.000273,128.718467 L663.000273,128.719959 L663.000273,167.621494 C662.979174,169.107549 664.183319,170.328025 665.684355,170.344437 L665.685862,170.344437 L668.365422,170.344437 L668.365422,169.437287 C668.354873,167.278328 669.204857,165.205907 670.725485,163.661663 C672.215972,162.132338 674.273115,161.268457 676.419174,161.269949 C676.603036,161.269949 676.788405,161.280393 676.973774,161.289345 C675.18941,157.994957 672.048688,155.630099 668.363915,154.813962 L668.363915,141.528983 C673.39751,140.401013 677.290257,136.451626 678.306019,131.442903 L706.732267,131.442903 C707.748028,136.450134 711.640775,140.401013 716.67437,141.528983 L716.67437,154.815454 C711.640775,155.941932 707.748028,159.889827 706.732267,164.900042 L683.116568,164.900042 C684.002722,166.250324 684.469912,167.827393 684.465391,169.437287 L684.465391,170.344437 L719.350917,170.344437 C720.851953,170.328025 722.056097,169.110533 722.041027,167.624478 L722.041027,167.621494 L722.041027,128.719959 C722.057604,127.235396 720.856474,126.016412 719.353931,126 C719.353931,126 719.353931,126 719.352424,126 L719.352424,126 Z M692.522157,156.001613 C697.976223,156.001613 702.24875,152.56399 702.24875,148.175949 C702.24875,143.789399 697.976223,140.33984 692.522157,140.33984 C687.065077,140.33984 682.792549,143.778955 682.792549,148.175949 C682.792549,152.572942 687.065077,156.001613 692.522157,156.001613 L692.522157,156.001613 Z M684.466898,175.788832 L684.466898,176.069332 C690.813146,177.449454 695.317761,183.035591 695.269535,189.469197 C695.307212,190.934364 694.139237,192.156332 692.656286,192.193632 C691.176348,192.230933 689.940556,191.073123 689.904386,189.606463 L689.904386,189.469197 C689.954119,184.98119 686.323601,181.300367 681.790352,181.242178 C680.287808,181.22129 679.085171,180.003799 679.100242,178.520727 L679.100242,169.437287 C679.10627,168.718131 678.822942,168.02434 678.315061,167.509592 C677.822251,166.99932 677.13503,166.712851 676.422188,166.715835 C675.703319,166.718819 675.020618,167.003796 674.515752,167.509592 C674.015407,168.027324 673.730571,168.719623 673.732078,169.437287 L673.732078,183.918869 C673.723036,189.018606 675.751545,193.913936 679.37302,197.538061 L705.666772,197.538061 C709.289755,193.912444 711.31525,189.017114 711.309221,183.918869 L711.309221,175.788832 L684.466898,175.788832 L684.466898,175.788832 L684.466898,175.788832 Z" id="Shape" fill="#FFFFFF"></path>
                <path d="M250.348383,156.219112 C250.348383,155.505925 249.765149,154.930004 249.046279,154.932988 L249.041758,154.932988 L244.478367,154.932988 C243.759498,154.928512 243.174757,155.504433 243.171743,156.214636 L243.171743,156.219112 L243.171743,160.695183 C243.171743,161.408371 243.756484,161.984292 244.475353,161.9828 L244.478367,161.9828 L249.041758,161.9828 C249.760628,161.987276 250.346876,161.411355 250.348383,160.699659 L250.348383,160.695183 L250.348383,156.219112 L250.348383,156.219112 L250.348383,156.219112 Z M261.750832,156.219112 C261.750832,155.505925 261.166091,154.930004 260.447221,154.932988 L260.444207,154.932988 L255.882323,154.932988 C255.163454,154.928512 254.577206,155.504433 254.575699,156.214636 L254.575699,156.219112 L254.575699,160.695183 C254.575699,161.408371 255.16044,161.984292 255.879309,161.9828 L255.882323,161.9828 L260.444207,161.9828 C261.164584,161.985784 261.749325,161.409863 261.750832,160.699659 L261.750832,160.695183 L261.750832,156.219112 L261.750832,156.219112 Z M273.153281,156.219112 C273.153281,155.505925 272.570047,154.930004 271.84967,154.932988 L271.848163,154.932988 L267.284772,154.932988 C266.565903,154.928512 265.981162,155.504433 265.978148,156.214636 L265.978148,156.219112 L265.978148,160.695183 C265.979655,161.408371 266.562889,161.984292 267.281758,161.9828 L267.284772,161.9828 L271.848163,161.9828 C272.567033,161.985784 273.151774,161.409863 273.153281,160.699659 L273.153281,160.695183 L273.153281,156.219112 L273.153281,156.219112 Z M250.348383,167.419734 C250.348383,166.706547 249.765149,166.130626 249.046279,166.132118 L249.041758,166.132118 L244.478367,166.132118 C243.759498,166.130626 243.174757,166.705055 243.171743,167.415258 L243.171743,167.419734 L243.171743,171.897297 C243.171743,172.608993 243.756484,173.184914 244.475353,173.184914 L244.478367,173.184914 L249.041758,173.184914 C249.760628,173.187898 250.346876,172.611977 250.348383,171.900281 L250.348383,171.897297 L250.348383,167.419734 L250.348383,167.419734 L250.348383,167.419734 Z M261.750832,167.419734 C261.750832,166.706547 261.166091,166.130626 260.447221,166.132118 L260.444207,166.132118 L255.882323,166.132118 C255.163454,166.129134 254.577206,166.705055 254.575699,167.415258 L254.575699,167.419734 L254.575699,171.897297 C254.575699,172.608993 255.16044,173.184914 255.879309,173.184914 L255.882323,173.184914 L260.444207,173.184914 C261.164584,173.186406 261.749325,172.610485 261.750832,171.900281 L261.750832,171.897297 L261.750832,167.419734 L261.750832,167.419734 Z M273.153281,167.419734 C273.153281,166.706547 272.570047,166.130626 271.84967,166.132118 L271.848163,166.132118 L267.284772,166.132118 C266.565903,166.129134 265.981162,166.705055 265.978148,167.415258 L265.978148,167.419734 L265.978148,171.897297 C265.979655,172.608993 266.562889,173.184914 267.281758,173.184914 L267.284772,173.184914 L271.848163,173.184914 C272.567033,173.186406 273.151774,172.610485 273.153281,171.900281 L273.153281,171.897297 L273.153281,167.419734 L273.153281,167.419734 L273.153281,167.419734 Z M281.312527,131.296348 L281.312527,138.144737 C281.297457,141.24367 278.747504,143.745794 275.617331,143.729382 L275.608289,143.729382 L272.010926,143.729382 C268.870204,143.751762 266.303673,141.254114 266.273532,138.144737 L266.273532,131.273968 L250.054505,131.273968 L250.054505,138.144737 C250.022857,141.254114 247.456327,143.751762 244.317111,143.729382 L240.718242,143.729382 C237.588069,143.748778 235.035102,141.252622 235.014003,138.153689 L235.014003,138.144737 L235.014003,131.296348 C232.237991,131.378409 230.024113,133.616445 230,136.36326 L230,176.482286 C230.009042,179.300719 232.317865,181.579039 235.163203,181.583515 L281.163328,181.583515 C284.008666,181.577547 286.314474,179.300719 286.325024,176.482286 L286.325024,136.36326 C286.302418,133.614953 284.087033,131.376917 281.312527,131.296348 L281.312527,131.296348 L281.312527,131.296348 Z M279.641193,173.981654 C279.638179,175.197654 278.637488,176.182389 277.409231,176.179405 L238.817834,176.179405 C237.589576,176.182389 236.588885,175.199146 236.585871,173.981654 L236.585871,153.264905 C236.588885,152.050398 237.589576,151.06417 238.817834,151.067154 L277.409231,151.067154 C278.638995,151.06417 279.638179,152.048906 279.641193,153.264905 L279.641193,173.981654 L279.641193,173.981654 L279.641193,173.981654 L279.641193,173.981654 Z M240.704678,140.064971 L244.265871,140.064971 C245.340408,140.067955 246.216013,139.210042 246.222041,138.144737 L246.222041,126.91875 C246.216013,125.854937 245.340408,124.997024 244.265871,125.000008 L240.704678,125.000008 C239.628634,124.997024 238.754537,125.854937 238.748509,126.91875 L238.748509,138.144737 C238.75303,139.20855 239.628634,140.066463 240.704678,140.064971 L240.704678,140.064971 L240.704678,140.064971 Z M271.964207,140.064971 L275.5254,140.064971 C276.599937,140.067955 277.475542,139.210042 277.480063,138.144737 L277.480063,126.91875 C277.475542,125.854937 276.599937,124.997024 275.5254,125.000008 L271.964207,125.000008 C270.888163,124.997024 270.012559,125.854937 270.008038,126.91875 L270.008038,138.144737 C270.014066,139.20855 270.88967,140.066463 271.964207,140.064971 L271.964207,140.064971 L271.964207,140.064971 Z" id="Forma_1_7_" fill="#FFFFFF"></path>
                <g id="XMLID_71_" transform="translate(265.000000, 159.000000)" fill="#F6B11F">
                    <path d="M35.8651177,7.38253336 L19.7078807,23.3829957 C19.5843014,23.5023576 19.340157,23.6217195 19.2195918,23.6217195 C19.0960126,23.6217195 18.8578964,23.5023576 18.7343171,23.3829957 L11.0814443,15.6856454 C10.957865,15.5647914 10.8357928,15.3245756 10.8357928,15.2007377 C10.8357928,15.0828678 10.957865,14.844144 11.0814443,14.7232901 L13.6313972,12.1987859 C13.8710204,11.9570781 14.3593093,11.9570781 14.5989325,12.1987859 L19.2180848,16.7688546 L32.3400942,3.77631203 C32.5842386,3.53609622 33.0680063,3.53609622 33.3121507,3.77631203 L35.8636107,6.30230819 C35.9856829,6.42316211 36.1077551,6.66337793 36.1077551,6.78273983 C35.98719,7.02444767 35.98719,7.26466349 35.8651177,7.38253336 L35.8651177,7.38253336 Z M5.00646782,4.37759759 L5.00646782,26.5087854 L27.3607535,26.5087854 L27.3607535,26.5087854 L27.3607535,19.7722983 L30.88427,16.166077 L30.88427,29.3973433 C30.88427,29.753937 30.5180534,30.1164988 30.1563579,30.1164988 L2.21086342,30.1164988 C1.84464678,30.1164988 1.48295133,29.753937 1.48295133,29.3973433 L1.48295133,1.73223954 C1.48295133,1.36967777 1.84464678,1.01010006 2.21086342,1.01010006 L30.1563579,1.01010006 C30.5180534,1.01010006 30.88427,1.36967777 30.88427,1.73223954 L27.8445212,4.49845151 L5.00646782,4.49845151 L5.00646782,4.37759759 L5.00646782,4.37759759 Z" id="XMLID_72_"></path>
                </g>
                <path d="M891.831212,106.349945 C896.95071,106.349945 908.975577,100.259505 908.975577,85.6734807 C908.975577,83.6413444 908.922829,81.670381 908.751024,79.8157955 C908.473724,76.1588454 907.718685,72.927122 905.828826,70.4414105 C903.416016,67.0604848 899.185686,65 891.832719,65 C884.478245,65 880.255451,67.0604848 877.835106,70.4414105 C875.952782,72.9181699 875.190208,76.1603374 874.912908,79.8157955 C874.74261,81.671873 874.697398,83.6413444 874.697398,85.6734807 C874.695891,100.260997 886.720757,106.349945 891.831212,106.349945 L891.831212,106.349945 Z M897.426942,72.5720204 C896.92509,73.8238283 896.682453,74.4445101 896.1806,75.6978101 C893.356362,74.7921517 890.315106,74.7921517 887.490867,75.6978101 C886.987508,74.4460022 886.738842,73.8238283 886.235482,72.5720204 C889.866,71.3649732 893.796424,71.3649732 897.426942,72.5720204 L897.426942,72.5720204 L897.426942,72.5720204 Z M877.242829,82.5148664 C877.438748,82.9415852 878.282704,84.5828113 879.581793,84.7349977 C881.070773,84.9110565 883.545373,79.5054546 891.831212,79.4965025 C900.117052,79.5054546 902.591652,84.9095645 904.088167,84.7349977 C905.388763,84.5828113 906.22217,82.9415852 906.421102,82.5148664 C906.464807,83.5622671 906.47385,84.6171279 906.47385,85.6734807 C906.63812,90.9537526 904.510145,96.0505056 900.627947,99.6746312 C897.256644,102.76312 893.52666,103.880646 891.831212,103.880646 C890.134258,103.880646 886.405781,102.76312 883.04352,99.6746312 C879.153787,96.0549817 877.022798,90.9567367 877.188575,85.6734807 C877.188575,84.6171279 877.20666,83.5622671 877.242829,82.5148664 L877.242829,82.5148664 L877.242829,82.5148664 Z M923.652876,127.557571 C922.774258,122.169873 920.973316,115.245391 917.357869,112.777584 C914.892311,111.099057 906.28396,106.5454 902.618779,104.610246 L902.54644,104.574437 C902.125969,104.353618 901.615074,104.395394 901.236801,104.680371 C899.401197,106.135094 897.259658,107.161606 894.96892,107.680831 C894.57407,107.765876 894.248544,108.043392 894.109894,108.41789 L891.831212,114.347193 L889.554038,108.41789 C889.410867,108.043392 889.085341,107.764384 888.691997,107.680831 C886.401259,107.160114 884.261228,106.133602 882.425624,104.680371 C882.048858,104.390918 881.534949,104.349142 881.117492,104.574437 C877.485467,106.491688 868.770113,111.133373 866.312092,112.767139 C862.160129,115.536335 860.341102,125.568703 860.017084,127.556078 C859.982421,127.753026 860.000506,127.955941 860.071338,128.142444 C860.169297,128.418468 861.964211,133.006441 871.799313,135.927824 L871.799313,130.920592 C871.799313,128.764618 873.565592,127.014474 875.744807,127.014474 L875.744807,127.014474 L891.831212,127.014474 C894.007413,127.020442 895.769172,128.76611 895.7752,130.920592 L895.7752,131.320454 L902.492186,131.320454 L906.814446,130.192484 C906.989266,130.150708 907.170113,130.129819 907.350961,130.131311 C907.477555,130.131311 907.602641,130.140264 907.727727,130.158168 L914.5698,131.383119 C915.58104,131.562162 916.316487,132.434996 916.317994,133.451064 L916.317994,134.277645 C922.270898,131.544258 923.508198,128.373707 923.597115,128.143936 C923.661919,127.954449 923.680004,127.754518 923.652876,127.557571 L923.652876,127.557571 L923.652876,127.557571 Z M902.770993,133.416748 L893.650239,133.416748 L893.650239,130.922084 C893.650239,129.926904 892.836424,129.119719 891.831212,129.119719 L875.744807,129.119719 C874.739595,129.119719 873.924274,129.926904 873.924274,130.922084 L873.924274,139.541505 C873.924274,140.536685 874.739595,141.34387 875.744807,141.34387 L891.831212,141.34387 C892.836424,141.342378 893.650239,140.535193 893.650239,139.541505 L893.650239,137.037889 L902.770993,137.037889 L907.352468,138.235984 L914.19454,137.009541 L914.19454,133.449572 L907.352468,132.224621 L902.770993,133.416748 L902.770993,133.416748 Z M888.94217,138.565722 L878.621793,138.565722 C878.050616,138.565722 877.58644,138.106178 877.58644,137.539209 C877.58644,136.973732 878.050616,136.514189 878.621793,136.514189 L888.94217,136.514189 C889.516362,136.514189 889.97903,136.973732 889.97903,137.539209 C889.980537,138.106178 889.516362,138.565722 888.94217,138.565722 L888.94217,138.565722 L888.94217,138.565722 Z M888.94217,133.9494 L878.621793,133.9494 C878.050616,133.944924 877.589454,133.483889 877.590961,132.919904 C877.587947,132.358903 878.044588,131.900852 878.611244,131.897868 L878.621793,131.897868 L888.94217,131.897868 C889.490741,131.735237 890.081511,132.088847 890.244274,132.631943 C890.407037,133.17504 890.095074,133.744993 889.546503,133.906131 C889.355106,133.962828 889.150145,133.962828 888.94217,133.9494 L888.94217,133.9494 L888.94217,133.9494 Z" id="Forma_1" fill="#FFFFFF"></path>
                <g id="XMLID_80_" transform="translate(901.000000, 92.000000)" fill="#F8BA45">
                    <path d="M24.7098273,25.8269306 C23.4875981,27.2204807 21.7077551,27.8695111 19.4562009,27.8695111 C14.9561068,27.8695111 9.89237049,25.2704057 8.8600314,24.7123889 C8.67466248,24.6198834 8.57971743,24.4348725 8.57971743,24.155864 L8.57971743,10.5098151 C8.57971743,10.2293146 8.76508634,9.95179821 9.04841444,9.95179821 C10.0792465,9.76678727 15.2379278,8.65224555 16.5520879,4.47457914 C17.1142229,2.6170096 18.426876,1.31745694 19.6460911,1.31745694 C20.2082261,1.31745694 20.6799372,1.59646538 21.0536892,2.06048476 C21.9925903,3.45254289 21.6158242,6.51715961 20.0228571,10.4173096 C20.3966091,10.3233121 20.8653061,10.2308066 21.2420722,10.2308066 C22.9284772,10.2308066 25.8371115,11.067832 26.4926845,16.8225674 C26.9583673,20.9987418 26.3012873,24.0618665 24.7098273,25.8269306 L24.7098273,25.8269306 Z M6.13827316,25.4554167 L1.44979592,25.4554167 C1.16948195,25.4554167 0.887660911,25.1764082 0.887660911,24.8988918 L0.887660911,9.76529525 C0.887660911,9.39228932 1.17098901,9.20727837 1.44979592,9.20727837 L6.13827316,9.20727837 C6.42160126,9.20727837 6.70040816,9.48628681 6.70040816,9.76529525 L6.70040816,24.8988918 C6.70040816,25.1764082 6.42160126,25.4554167 6.13827316,25.4554167 L6.13827316,25.4554167 Z M3.79629513,22.0192861 C3.13921507,22.0192861 2.66901099,22.5773029 2.66901099,23.1338278 C2.66901099,23.7843501 3.14072214,24.2483695 3.79629513,24.2483695 C4.45186813,24.2483695 4.92056515,23.6918446 4.92056515,23.1338278 C4.92056515,22.4833054 4.45186813,22.0192861 3.79629513,22.0192861 L3.79629513,22.0192861 Z" id="XMLID_81_"></path>
                </g>
                <text id="Programate-para-el-d" font-family="SourceSansPro-Light, Source Sans Pro" font-size="18" font-weight="300" fill="#033B71">
                    <tspan x="189.488" y="283">Programate para el</tspan>
                    <tspan x="222.572" y="306">día que lo </tspan>
                    <tspan x="224.723" y="329">necesites </tspan>
                </text>
                <text id="2" font-family="SourceSansPro-Semibold, Source Sans Pro" font-size="24" font-weight="500" fill="#F8BA45">
                    <tspan x="252.344" y="260">2</tspan>
                </text>
                <text id="Selecciona-la-ciudad" font-family="SourceSansPro-Light, Source Sans Pro" font-size="18" font-weight="300" fill="#033B71">
                    <tspan x="25.12" y="196">Selecciona la</tspan>
                    <tspan x="45.955" y="219">ciudad.</tspan>
                </text>
                <text id="1" font-family="SourceSansPro-Semibold, Source Sans Pro" font-size="24" font-weight="500" fill="#F8BA45">
                    <tspan x="66.344" y="173">1</tspan>
                </text>
                <text id="Escoge-el-tipo-de-se" font-family="SourceSansPro-Light, Source Sans Pro" font-size="18" font-weight="300" fill="#033B71">
                    <tspan x="446.726" y="216">Escoge el tipo </tspan>
                    <tspan x="438.455" y="239">de servicios que</tspan>
                    <tspan x="461.279" y="262">necesitas.</tspan>
                </text>
                <text id="3" font-family="SourceSansPro-Semibold, Source Sans Pro" font-size="24" font-weight="500" fill="#F8BA45">
                    <tspan x="491.344" y="193">3</tspan>
                </text>
                <text id="Realiza-el-pago-de-f" font-family="SourceSansPro-Light, Source Sans Pro" font-size="18" font-weight="300" fill="#033B71">
                    <tspan x="628.164" y="289">Realiza el pago de</tspan>
                    <tspan x="643.428" y="312">forma segura.</tspan>
                </text>
                <text id="4" font-family="SourceSansPro-Semibold, Source Sans Pro" font-size="24" font-weight="500" fill="#F8BA45">
                    <tspan x="686.344" y="266">4</tspan>
                </text>
                <text id="Toma-contacto-con-el" font-family="SourceSansPro-Light, Source Sans Pro" font-size="18" font-weight="300" fill="#033B71">
                    <tspan x="817.196" y="230">Toma contacto con</tspan>
                    <tspan x="817.025" y="253">el ayudante para tu</tspan>
                    <tspan x="866.606" y="276">tarea.</tspan>
                </text>
                <text id="5" font-family="SourceSansPro-Semibold, Source Sans Pro" font-size="24" font-weight="500" fill="#F8BA45">
                    <tspan x="880.344" y="207">5</tspan>
                </text>
            </g>
        </g>
    </g>
</svg>